<svg width="996" height="500" viewBox="0 0 996 500" fill="none" xmlns="http://www.w3.org/2000/svg">
<g clip-path="url(#clip0_927_3771)">
<mask id="path-1-inside-1_927_3771" fill="white">
<path d="M0 24C0 10.7452 10.7452 0 24 0H972C985.255 0 996 10.7452 996 24V476C996 489.255 985.255 500 972 500H24C10.7452 500 0 489.255 0 476V24Z"/>
</mask>
<path d="M0 24C0 10.7452 10.7452 0 24 0H972C985.255 0 996 10.7452 996 24V476C996 489.255 985.255 500 972 500H24C10.7452 500 0 489.255 0 476V24Z" fill="#FF66C8"/>
<g opacity="0.33">
<path fill-rule="evenodd" clip-rule="evenodd" d="M161.455 -187H-16.9634C140.47 -107.782 291.401 -29.2376 368.841 41.731C451.772 113 461.799 176.755 471.596 240.493L471.52 240.633C428.65 183.631 385.559 126.66 272.598 77.8898C164.413 28.3144 -14.1846 -12.9852 -208 -52.5161V129.273C4.81334 111.257 147.926 118.952 249.36 142.01C351.014 164.779 411.263 202.806 471.384 240.885L471.339 240.969L471.17 241.28L471.351 241.044L471.691 241.11L471.692 241.114L471.421 241.234L471.317 241.28L471.088 241.345C308.646 209.986 135.979 189.687 -207.986 354.702H-208V536.456C-79.9521 436.949 45.4594 346.461 157.871 300.472C270.544 251.465 370.378 246.422 470.146 241.612C377.556 267.859 284.989 294.26 204.472 366.389C122.641 435.177 52.9463 550.091 -15.5623 669.547H-15.5838L-15.5699 669.56L-15.5623 669.547H162.188C176.515 535.727 212.326 437.965 267.807 373.226C322.364 307.439 396.468 274.47 470.62 241.589L471.25 241.559C471.143 241.699 471.036 241.839 470.928 241.979C353.596 318.134 244.283 402.25 319.558 669.56H413.884C280.702 413.795 374.236 327.31 470.344 242.742C398.625 336.439 329.849 431.679 530.158 669.56H624.422C375.18 448.124 416.698 342.622 470.972 242.191C471.157 242.028 471.342 241.865 471.527 241.702C462.229 298.579 453.045 355.5 496.064 424.7C537.196 493.61 630.803 574.874 781.413 669.56H781.427H959.598C802.383 590.342 651.662 511.798 574.33 440.829C491.372 369.438 481.467 305.586 471.667 241.739C514.586 298.808 557.647 355.855 670.74 404.683C778.925 454.259 957.509 495.558 1151.32 535.076V353.286C938.511 371.303 795.398 363.608 693.964 340.549C592.186 317.753 531.915 279.662 471.722 241.536L471.74 241.535L472.007 241.522L471.781 241.479C471.856 241.412 471.931 241.346 472.007 241.28L472.136 241.196C634.607 272.566 807.275 292.907 1151.32 127.859V-53.8952C1023.28 45.6113 897.865 136.099 785.453 182.088C672.511 231.212 572.471 236.162 472.465 240.983L472.542 240.933C565.114 214.691 657.661 188.287 738.163 116.171C819.994 47.3825 889.688 -67.5314 958.197 -186.987H958.219L958.205 -187L958.197 -186.987H780.447C766.12 -53.1666 730.309 44.5951 674.828 109.334C620.634 174.683 547.152 207.65 473.495 240.314C590.672 164.23 699.643 79.9987 624.455 -187H530.13C663.755 69.6184 569.152 155.825 472.707 240.664L471.93 241.008L471.807 241.014L471.769 240.964L471.866 240.372C543.737 146.496 613.18 51.3495 412.477 -187H318.212C567.008 34.0389 526.084 139.56 471.955 239.829C481.207 183.294 490.034 126.643 447.215 57.8597C406.026 -11.05 312.289 -92.3135 161.469 -187H161.455ZM471.719 241.467L471.622 241.448L471.596 241.28L471.59 241.317L471.57 241.438L471.565 241.437L471.427 241.349L471.464 241.28L471.416 241.343L471.356 241.304L471.317 241.28L471.584 241.204L471.7 241.171L471.717 241.28L471.723 241.243L471.737 241.161L471.794 241.145L471.969 241.256L472.007 241.28C471.911 241.342 471.815 241.404 471.719 241.467ZM471.546 241.579L471.521 241.546L471.315 241.556C471.267 241.645 471.219 241.733 471.171 241.822C471.296 241.741 471.421 241.66 471.546 241.579ZM472.007 241.28L471.936 241.186L471.911 241.153L472.108 241.191L472.007 241.28ZM471.317 241.28L471.331 241.293L471.392 241.374L471.372 241.4L471.146 241.356L471.214 241.326L471.317 241.28ZM471.418 241.409L471.404 241.39L471.397 241.404L471.418 241.409ZM471.357 241.036L471.444 240.923L471.603 241.024L471.584 241.025L471.357 241.036ZM471.592 240.729L471.643 240.796L471.626 240.685L471.592 240.729Z" fill="url(#paint0_radial_927_3771)"/>
</g>
<path d="M485.246 307.149V298.519C485.246 292.624 480.468 287.84 474.563 287.84H415.045C408.757 287.84 403.661 292.934 403.661 299.219V311.673L384.553 361.592C381.861 368.634 381.355 376.333 383.11 383.672C387.159 400.592 402.333 412.491 419.737 412.39L528.212 411.777C547.825 403.984 553.722 379.082 539.682 363.331L492.494 310.396C490.653 308.332 488.018 307.149 485.254 307.149H485.246Z" fill="#6342FF" stroke="black" stroke-width="1.6" stroke-miterlimit="10"/>
<path d="M411.075 407.772L402.665 403.875C387.701 396.941 380.655 379.623 386.524 364.225L406.462 311.904V298.973C406.462 293.713 410.728 289.441 415.998 289.441H429.28" stroke="#B0BBFF" stroke-width="1.6" stroke-miterlimit="10"/>
<path d="M494.135 272.254H511.084C564.04 272.254 607.027 315.231 607.027 368.158C607.027 381.622 596.091 392.547 582.628 392.547H398.191V368.158C398.191 315.223 441.186 272.254 494.135 272.254Z" fill="#94FCFF" stroke="black" stroke-width="1.6" stroke-miterlimit="10"/>
<path d="M472.144 314.819C490.164 314.819 504.772 308.294 504.772 300.244C504.772 292.194 490.164 285.668 472.144 285.668C454.124 285.668 439.516 292.194 439.516 300.244C439.516 308.294 454.124 314.819 472.144 314.819Z" fill="black"/>
<path d="M425.029 101.963C444.357 101.963 460.025 86.3016 460.025 66.9817C460.025 47.6619 444.357 32 425.029 32C405.701 32 390.033 47.6619 390.033 66.9817C390.033 86.3016 405.701 101.963 425.029 101.963Z" fill="black"/>
<path d="M646.44 238.579C631.728 304.285 543.459 321.458 464.415 303.772C385.37 286.087 345.487 240.231 360.206 174.525C374.918 108.819 454.301 54.8379 533.338 72.5236C612.382 90.2093 661.152 172.872 646.44 238.571V238.579Z" fill="white" stroke="black" stroke-width="1.6" stroke-miterlimit="10"/>
<path d="M612.332 140.712C631.66 140.712 647.328 125.05 647.328 105.73C647.328 86.4099 631.66 70.748 612.332 70.748C593.004 70.748 577.336 86.4099 577.336 105.73C577.336 125.05 593.004 140.712 612.332 140.712Z" fill="black"/>
<path d="M538.13 119.362L522.104 123.046C518.036 123.981 515.497 128.035 516.432 132.101L516.434 132.109C517.369 136.175 521.425 138.713 525.493 137.778L541.519 134.095C545.587 133.159 548.126 129.105 547.191 125.039L547.189 125.032C546.254 120.965 542.198 118.427 538.13 119.362Z" fill="black"/>
<path d="M436.955 114.383L449.881 124.543C453.162 127.123 457.914 126.555 460.494 123.275L460.499 123.269C463.079 119.989 462.51 115.24 459.229 112.66L446.303 102.5C443.022 99.9209 438.27 100.489 435.69 103.769L435.686 103.774C433.106 107.054 433.674 111.804 436.955 114.383Z" fill="black"/>
<path d="M532.349 252.201C560.559 252.201 583.428 229.342 583.428 201.143C583.428 172.944 560.559 150.084 532.349 150.084C504.138 150.084 481.27 172.944 481.27 201.143C481.27 229.342 504.138 252.201 532.349 252.201Z" fill="black"/>
<path d="M554.443 195.402C555.503 188.594 550.843 182.215 544.034 181.156C537.225 180.096 530.845 184.756 529.785 191.564L526.01 215.798C524.95 222.607 529.61 228.985 536.419 230.045C543.228 231.104 549.607 226.444 550.668 219.636L554.443 195.402Z" fill="white"/>
<path d="M411.872 223.086C438.013 223.086 459.204 201.903 459.204 175.773C459.204 149.642 438.013 128.459 411.872 128.459C385.731 128.459 364.539 149.642 364.539 175.773C364.539 201.903 385.731 223.086 411.872 223.086Z" fill="black"/>
<path d="M432.26 171.011C433.242 164.703 428.923 158.793 422.612 157.811C416.301 156.829 410.389 161.146 409.406 167.455L405.908 189.914C404.925 196.222 409.245 202.132 415.556 203.114C421.866 204.096 427.779 199.778 428.761 193.47L432.26 171.011Z" fill="white"/>
<path d="M430.953 172.682C431.444 169.528 429.285 166.573 426.129 166.082C422.974 165.591 420.018 167.75 419.526 170.904L417.747 182.326C417.256 185.48 419.416 188.435 422.571 188.926C425.726 189.417 428.683 187.258 429.174 184.104L430.953 172.682Z" fill="black"/>
<path d="M551.119 195.073C551.61 191.919 549.451 188.964 546.295 188.473C543.14 187.982 540.184 190.14 539.692 193.294L537.913 204.716C537.422 207.87 539.582 210.825 542.737 211.317C545.892 211.808 548.849 209.649 549.34 206.495L551.119 195.073Z" fill="black"/>
<path d="M498.965 242.593C502.03 222.916 486.431 204.15 464.122 200.678C441.814 197.206 421.245 210.343 418.18 230.019C415.115 249.696 430.715 268.462 453.023 271.934C475.332 275.406 495.901 262.269 498.965 242.593Z" fill="white" stroke="black" stroke-width="1.6" stroke-miterlimit="10"/>
<path d="M471.642 219.32C470.48 224.494 462.72 230.41 455.154 228.722C447.589 227.026 443.092 218.367 444.254 213.194C445.416 208.02 452.483 205.199 460.049 206.887C467.614 208.583 472.804 214.146 471.642 219.32Z" fill="black"/>
<path d="M483.863 234.87C483.271 238.658 479.719 241.256 475.929 240.664L433.383 234.04C429.593 233.448 426.994 229.898 427.586 226.11" fill="white"/>
<path d="M483.863 234.87C483.271 238.658 479.719 241.256 475.929 240.664L433.383 234.04C429.593 233.448 426.994 229.898 427.586 226.11" stroke="black" stroke-width="1.6" stroke-linecap="round" stroke-linejoin="round"/>
<path d="M586.105 308.946V300.316C586.105 294.421 581.326 289.637 575.421 289.637H515.903C509.616 289.637 504.52 294.731 504.52 301.016V359.47C504.52 374.003 509.775 388.044 519.311 399.005L532.716 414.411C547.218 431.079 570.664 436.772 591.201 428.618L629.07 413.581C648.683 405.788 654.581 380.886 640.54 365.135L593.352 312.2C591.511 310.137 588.877 308.953 586.112 308.953L586.105 308.946Z" fill="#6342FF" stroke="black" stroke-width="1.6" stroke-miterlimit="10"/>
<path d="M508.354 308.946V358.503C508.354 373.512 514.157 388.095 524.834 399.907C538.224 414.728 548.338 426.071 576.981 425.992C582.099 425.977 587.196 425.285 592.162 424.036L596.587 422.918" stroke="#B0BBFF" stroke-width="1.6" stroke-miterlimit="10"/>
<path d="M508.354 308.946V301.131C508.354 297.256 511.494 294.118 515.37 294.118H583.435" stroke="#B0BBFF" stroke-width="1.6" stroke-miterlimit="10"/>
<path d="M586.162 308.946H504.52" stroke="black" stroke-width="1.6" stroke-miterlimit="10"/>
<path d="M515.477 343.242V335.146H518.278C518.798 335.146 519.253 335.247 519.643 335.434C520.032 335.629 520.336 335.896 520.559 336.242C520.783 336.589 520.884 336.993 520.884 337.462C520.884 337.794 520.826 338.097 520.704 338.364C520.581 338.631 520.4 338.862 520.162 339.042C520.48 339.244 520.718 339.497 520.884 339.807C521.05 340.117 521.13 340.471 521.13 340.846C521.13 341.322 521.014 341.741 520.783 342.094C520.552 342.448 520.234 342.729 519.823 342.931C519.412 343.126 518.935 343.227 518.379 343.227H515.463L515.477 343.242ZM518.913 337.671C518.913 337.462 518.856 337.296 518.733 337.166C518.61 337.036 518.451 336.971 518.257 336.971H517.434V338.349H518.257C518.451 338.349 518.61 338.284 518.733 338.162C518.856 338.039 518.913 337.873 518.913 337.671ZM519.159 340.673C519.159 340.449 519.087 340.276 518.95 340.146C518.812 340.016 518.617 339.951 518.379 339.951H517.434V341.43H518.379C518.617 341.43 518.812 341.365 518.95 341.228C519.087 341.091 519.159 340.911 519.159 340.68V340.673Z" fill="white"/>
<path d="M528.459 340.168C528.459 340.666 528.379 341.12 528.213 341.517C528.054 341.921 527.823 342.26 527.535 342.549C527.246 342.837 526.907 343.054 526.517 343.205C526.127 343.357 525.708 343.429 525.261 343.429C524.813 343.429 524.38 343.357 523.998 343.205C523.615 343.054 523.283 342.837 522.994 342.556C522.713 342.275 522.489 341.935 522.33 341.539C522.171 341.142 522.092 340.694 522.092 340.196V335.146H524.07V340.074C524.07 340.5 524.185 340.846 524.409 341.113C524.633 341.373 524.922 341.503 525.282 341.503C525.643 341.503 525.925 341.373 526.149 341.113C526.372 340.853 526.481 340.507 526.481 340.074V335.146H528.459V340.168Z" fill="white"/>
<path d="M534.866 340.803C534.866 341.409 534.714 341.9 534.418 342.275C534.122 342.65 533.725 342.924 533.22 343.09C532.722 343.256 532.159 343.328 531.545 343.314C530.924 343.292 530.296 343.191 529.661 343.011V340.962C530.246 341.185 530.78 341.323 531.264 341.38C531.747 341.438 532.13 341.416 532.419 341.315C532.707 341.214 532.844 341.048 532.844 340.81C532.844 340.644 532.765 340.507 532.606 340.399C532.447 340.291 532.245 340.197 531.993 340.11C531.74 340.024 531.473 339.923 531.199 339.807C530.917 339.692 530.657 339.547 530.405 339.367C530.152 339.187 529.95 338.956 529.791 338.667C529.632 338.379 529.553 338.018 529.553 337.578C529.553 337.036 529.69 336.582 529.957 336.207C530.231 335.831 530.592 335.55 531.061 335.362C531.523 335.175 532.05 335.074 532.642 335.074C533.234 335.074 533.848 335.168 534.476 335.362V337.412C533.949 337.173 533.465 337.029 533.025 336.979C532.585 336.928 532.231 336.95 531.971 337.051C531.704 337.152 531.574 337.311 531.574 337.534C531.574 337.693 531.653 337.823 531.812 337.924C531.971 338.025 532.173 338.119 532.426 338.205C532.678 338.292 532.946 338.386 533.22 338.501C533.501 338.617 533.761 338.768 534.014 338.956C534.267 339.143 534.469 339.381 534.627 339.685C534.786 339.98 534.866 340.363 534.866 340.825V340.803Z" fill="white"/>
<path d="M535.049 343.242C535.439 341.907 535.836 340.557 536.233 339.194C536.63 337.83 537.02 336.48 537.409 335.146H540.109C540.499 336.48 540.896 337.83 541.293 339.194C541.69 340.557 542.08 341.907 542.477 343.242H540.492C540.42 342.989 540.347 342.729 540.275 342.477C540.203 342.224 540.138 341.964 540.059 341.712H537.474C537.402 341.964 537.33 342.224 537.258 342.477C537.186 342.729 537.121 342.989 537.041 343.242H535.056H535.049ZM537.965 339.93H539.56C539.431 339.461 539.301 338.991 539.164 338.515C539.026 338.039 538.896 337.57 538.766 337.101C538.637 337.57 538.507 338.039 538.369 338.515C538.232 338.991 538.095 339.461 537.965 339.93Z" fill="white"/>
<path d="M543.26 343.242V335.146H545.238V343.242H543.26Z" fill="white"/>
<path d="M404.965 406.863H526.707" stroke="black" stroke-width="1.6" stroke-miterlimit="10"/>
<rect x="33.5" y="325.5" width="929" height="147" rx="45.5" fill="white" stroke="black"/>
<path d="M73.9072 390V361.366H80.9355V390H73.9072ZM79.0265 390V384.273H95.8164V390H79.0265ZM79.0265 378.156V372.993H93.6906V378.156H79.0265ZM79.0265 367.05V361.366H95.7296V367.05H79.0265ZM102.888 390.607C101.644 390.607 100.516 390.376 99.5038 389.913C98.5204 389.45 97.7251 388.742 97.1177 387.787C96.5392 386.833 96.25 385.633 96.25 384.186C96.25 382.856 96.5103 381.757 97.0309 380.889C97.5515 380.022 98.2891 379.327 99.2435 378.807C100.198 378.286 101.312 377.881 102.584 377.592C103.857 377.274 105.231 376.985 106.706 376.724C107.805 376.551 108.672 376.392 109.309 376.247C109.945 376.102 110.393 375.9 110.654 375.64C110.943 375.35 111.088 374.96 111.088 374.468C111.088 373.687 110.813 373.066 110.263 372.603C109.714 372.111 108.889 371.865 107.79 371.865C107.038 371.865 106.33 371.995 105.664 372.256C105.028 372.516 104.479 372.935 104.016 373.514C103.582 374.063 103.293 374.786 103.148 375.683L96.9875 374.382C97.2189 372.935 97.6527 371.721 98.2891 370.737C98.9543 369.725 99.7786 368.901 100.762 368.264C101.745 367.628 102.859 367.18 104.103 366.919C105.346 366.63 106.633 366.486 107.964 366.486C110.278 366.486 112.158 366.876 113.604 367.657C115.079 368.438 116.164 369.609 116.858 371.171C117.581 372.733 117.942 374.714 117.942 377.115V380.802C117.942 381.815 117.957 382.842 117.986 383.883C118.015 384.895 118.044 385.907 118.072 386.92C118.13 387.932 118.203 388.959 118.289 390H112.172C112.085 389.19 111.999 388.294 111.912 387.31C111.854 386.327 111.811 385.314 111.782 384.273H111.131C110.842 385.43 110.307 386.5 109.526 387.484C108.774 388.438 107.834 389.205 106.706 389.783C105.607 390.333 104.334 390.607 102.888 390.607ZM105.968 385.618C106.46 385.618 106.98 385.531 107.53 385.358C108.08 385.155 108.6 384.866 109.092 384.49C109.584 384.114 110.017 383.637 110.393 383.058C110.769 382.451 111.03 381.757 111.174 380.976L111.131 378.416L112.129 378.503C111.695 378.879 111.174 379.168 110.567 379.371C109.96 379.573 109.309 379.747 108.615 379.891C107.949 380.007 107.284 380.137 106.619 380.282C105.954 380.398 105.346 380.557 104.797 380.759C104.276 380.962 103.857 381.236 103.539 381.583C103.249 381.93 103.105 382.422 103.105 383.058C103.105 383.839 103.365 384.461 103.886 384.924C104.435 385.387 105.129 385.618 105.968 385.618ZM120.088 390V378.72V367.093H125.902L125.989 375.336H126.683C126.885 373.167 127.247 371.446 127.767 370.173C128.317 368.901 129.069 367.99 130.023 367.44C130.978 366.862 132.135 366.572 133.494 366.572C133.812 366.572 134.159 366.601 134.535 366.659C134.94 366.717 135.36 366.833 135.793 367.006L135.49 374.555C134.969 374.295 134.42 374.107 133.841 373.991C133.292 373.875 132.785 373.818 132.323 373.818C131.281 373.818 130.385 374.049 129.633 374.512C128.881 374.974 128.288 375.669 127.854 376.594C127.449 377.52 127.203 378.691 127.117 380.108V390H120.088ZM136.488 390V376.507V367.093H142.214L142.258 374.772H142.952C143.27 372.921 143.747 371.388 144.384 370.173C145.049 368.93 145.917 368.004 146.987 367.397C148.057 366.789 149.344 366.486 150.848 366.486C153.48 366.486 155.461 367.382 156.792 369.175C158.151 370.969 158.831 373.774 158.831 377.592V390H151.802V378.416C151.802 376.334 151.499 374.815 150.891 373.861C150.284 372.878 149.373 372.386 148.158 372.386C147.146 372.386 146.293 372.704 145.598 373.34C144.904 373.977 144.369 374.902 143.993 376.117C143.646 377.303 143.473 378.734 143.473 380.412V390H136.488ZM168.361 390V361.366H180.422C181.897 361.366 183.256 361.482 184.5 361.713C185.743 361.945 186.842 362.292 187.797 362.754C188.78 363.217 189.619 363.796 190.313 364.49C191.007 365.155 191.528 365.936 191.875 366.833C192.251 367.729 192.439 368.727 192.439 369.826C192.439 370.781 192.28 371.663 191.962 372.473C191.673 373.282 191.195 374.006 190.53 374.642C189.894 375.249 189.07 375.755 188.057 376.16C187.074 376.536 185.917 376.811 184.586 376.985V377.505C186.293 377.65 187.609 378.026 188.534 378.633C189.489 379.212 190.212 379.978 190.704 380.933C191.224 381.858 191.644 382.943 191.962 384.186L193.567 390H185.801L184.586 384.577C184.384 383.507 184.066 382.654 183.632 382.017C183.227 381.381 182.678 380.933 181.983 380.672C181.318 380.412 180.45 380.282 179.38 380.282H175.346V390H168.361ZM175.346 375.032H179.858C181.535 375.032 182.837 374.7 183.762 374.034C184.717 373.369 185.194 372.342 185.194 370.954C185.194 369.537 184.76 368.496 183.892 367.83C183.054 367.136 181.766 366.789 180.031 366.789H175.346V375.032ZM205.134 390.607C203.138 390.607 201.388 390.333 199.884 389.783C198.409 389.234 197.166 388.453 196.153 387.44C195.17 386.399 194.418 385.17 193.897 383.753C193.406 382.335 193.16 380.745 193.16 378.98C193.16 377.245 193.406 375.611 193.897 374.078C194.389 372.545 195.112 371.214 196.066 370.086C197.05 368.958 198.25 368.076 199.667 367.44C201.114 366.804 202.777 366.486 204.657 366.486C206.537 366.486 208.171 366.804 209.559 367.44C210.976 368.047 212.133 368.944 213.03 370.13C213.926 371.316 214.548 372.733 214.895 374.382C215.271 376.001 215.358 377.823 215.156 379.848L197.672 380.022V376.334L210.644 376.16L208.735 378.026C208.937 376.638 208.879 375.495 208.561 374.598C208.243 373.673 207.751 372.993 207.086 372.559C206.421 372.097 205.64 371.865 204.743 371.865C203.702 371.865 202.82 372.14 202.097 372.69C201.374 373.239 200.824 374.034 200.448 375.076C200.072 376.088 199.884 377.332 199.884 378.807C199.884 381.15 200.347 382.856 201.273 383.926C202.227 384.996 203.514 385.531 205.134 385.531C205.886 385.531 206.508 385.43 206.999 385.228C207.491 385.025 207.896 384.765 208.214 384.447C208.532 384.1 208.764 383.709 208.908 383.275C209.082 382.842 209.198 382.393 209.255 381.93L215.459 382.928C215.344 383.941 215.069 384.91 214.635 385.835C214.23 386.761 213.608 387.585 212.77 388.308C211.96 389.002 210.933 389.566 209.689 390C208.446 390.405 206.927 390.607 205.134 390.607ZM220.092 390L214.626 367.093H221.958L224.735 384.36H225.342L228.683 367.093H236.752L240.136 384.36H240.787L243.564 367.093H250.635L245.169 390H235.711L232.848 373.384H232.24L229.464 390H220.092ZM256.154 390.607C254.91 390.607 253.782 390.376 252.77 389.913C251.787 389.45 250.991 388.742 250.384 387.787C249.805 386.833 249.516 385.633 249.516 384.186C249.516 382.856 249.776 381.757 250.297 380.889C250.818 380.022 251.555 379.327 252.51 378.807C253.464 378.286 254.578 377.881 255.85 377.592C257.123 377.274 258.497 376.985 259.972 376.724C261.071 376.551 261.939 376.392 262.575 376.247C263.211 376.102 263.66 375.9 263.92 375.64C264.209 375.35 264.354 374.96 264.354 374.468C264.354 373.687 264.079 373.066 263.529 372.603C262.98 372.111 262.156 371.865 261.056 371.865C260.304 371.865 259.596 371.995 258.931 372.256C258.294 372.516 257.745 372.935 257.282 373.514C256.848 374.063 256.559 374.786 256.414 375.683L250.254 374.382C250.485 372.935 250.919 371.721 251.555 370.737C252.22 369.725 253.045 368.901 254.028 368.264C255.012 367.628 256.125 367.18 257.369 366.919C258.612 366.63 259.9 366.486 261.23 366.486C263.544 366.486 265.424 366.876 266.87 367.657C268.345 368.438 269.43 369.609 270.124 371.171C270.847 372.733 271.208 374.714 271.208 377.115V380.802C271.208 381.815 271.223 382.842 271.252 383.883C271.281 384.895 271.31 385.907 271.339 386.92C271.396 387.932 271.469 388.959 271.556 390H265.438C265.352 389.19 265.265 388.294 265.178 387.31C265.12 386.327 265.077 385.314 265.048 384.273H264.397C264.108 385.43 263.573 386.5 262.792 387.484C262.04 388.438 261.1 389.205 259.972 389.783C258.873 390.333 257.6 390.607 256.154 390.607ZM259.234 385.618C259.726 385.618 260.247 385.531 260.796 385.358C261.346 385.155 261.866 384.866 262.358 384.49C262.85 384.114 263.284 383.637 263.66 383.058C264.036 382.451 264.296 381.757 264.44 380.976L264.397 378.416L265.395 378.503C264.961 378.879 264.44 379.168 263.833 379.371C263.226 379.573 262.575 379.747 261.881 379.891C261.216 380.007 260.55 380.137 259.885 380.282C259.22 380.398 258.612 380.557 258.063 380.759C257.542 380.962 257.123 381.236 256.805 381.583C256.516 381.93 256.371 382.422 256.371 383.058C256.371 383.839 256.631 384.461 257.152 384.924C257.701 385.387 258.396 385.618 259.234 385.618ZM273.354 390V378.72V367.093H279.168L279.255 375.336H279.949C280.151 373.167 280.513 371.446 281.033 370.173C281.583 368.901 282.335 367.99 283.289 367.44C284.244 366.862 285.401 366.572 286.76 366.572C287.078 366.572 287.425 366.601 287.801 366.659C288.206 366.717 288.626 366.833 289.06 367.006L288.756 374.555C288.235 374.295 287.686 374.107 287.107 373.991C286.558 373.875 286.052 373.818 285.589 373.818C284.548 373.818 283.651 374.049 282.899 374.512C282.147 374.974 281.554 375.669 281.12 376.594C280.715 377.52 280.469 378.691 280.383 380.108V390H273.354ZM297.913 390.607C296.091 390.607 294.471 390.145 293.054 389.219C291.666 388.265 290.581 386.876 289.8 385.054C289.019 383.232 288.629 381.019 288.629 378.416C288.629 375.987 288.976 373.89 289.67 372.126C290.364 370.332 291.377 368.958 292.707 368.004C294.037 367.021 295.657 366.529 297.566 366.529C298.983 366.529 300.198 366.804 301.21 367.353C302.223 367.874 303.061 368.684 303.727 369.783C304.392 370.882 304.898 372.27 305.245 373.948H306.069C305.896 372.993 305.722 372.068 305.549 371.171C305.375 370.246 305.245 369.378 305.158 368.568C305.072 367.758 305.028 367.021 305.028 366.355V359.067H312.057V379.935V390H306.2L306.113 383.102H305.419C305.101 384.837 304.609 386.254 303.944 387.354C303.278 388.453 302.44 389.277 301.427 389.826C300.415 390.347 299.244 390.607 297.913 390.607ZM300.386 384.967C301.167 384.967 301.847 384.808 302.425 384.49C303.004 384.143 303.481 383.68 303.857 383.102C304.262 382.523 304.565 381.873 304.768 381.15C304.97 380.426 305.072 379.674 305.072 378.894V378.199C305.072 377.534 304.985 376.912 304.811 376.334C304.667 375.726 304.45 375.177 304.161 374.685C303.9 374.165 303.568 373.731 303.163 373.384C302.758 373.008 302.309 372.718 301.818 372.516C301.326 372.314 300.805 372.212 300.256 372.212C299.33 372.212 298.535 372.487 297.87 373.037C297.233 373.586 296.742 374.338 296.395 375.293C296.048 376.247 295.874 377.346 295.874 378.59C295.874 379.834 296.048 380.947 296.395 381.93C296.771 382.885 297.291 383.637 297.957 384.186C298.651 384.707 299.461 384.967 300.386 384.967ZM324.045 390.607C322.512 390.607 321.11 390.463 319.837 390.174C318.564 389.884 317.451 389.465 316.496 388.915C315.571 388.337 314.819 387.614 314.24 386.746C313.691 385.85 313.358 384.823 313.243 383.666L318.796 382.017C318.94 382.682 319.244 383.29 319.707 383.839C320.17 384.389 320.792 384.823 321.572 385.141C322.353 385.43 323.308 385.575 324.436 385.575C325.506 385.575 326.359 385.416 326.996 385.098C327.661 384.779 327.993 384.288 327.993 383.622C327.993 383.189 327.834 382.842 327.516 382.581C327.198 382.321 326.692 382.09 325.998 381.887C325.304 381.656 324.407 381.424 323.308 381.193C322.093 380.904 320.907 380.6 319.75 380.282C318.593 379.935 317.552 379.501 316.627 378.98C315.701 378.431 314.964 377.737 314.414 376.898C313.864 376.059 313.59 375.003 313.59 373.731C313.59 372.256 313.98 370.983 314.761 369.913C315.571 368.843 316.713 368.004 318.188 367.397C319.692 366.789 321.486 366.486 323.568 366.486C325.419 366.486 327.082 366.746 328.557 367.266C330.032 367.758 331.233 368.525 332.158 369.566C333.113 370.578 333.677 371.88 333.85 373.47L328.124 374.902C328.066 374.208 327.834 373.615 327.429 373.123C327.024 372.603 326.489 372.212 325.824 371.952C325.159 371.663 324.378 371.518 323.481 371.518C322.411 371.518 321.572 371.706 320.965 372.082C320.387 372.429 320.097 372.878 320.097 373.427C320.097 373.89 320.285 374.28 320.661 374.598C321.066 374.888 321.645 375.134 322.397 375.336C323.149 375.538 324.074 375.77 325.173 376.03C326.244 376.233 327.328 376.493 328.427 376.811C329.526 377.129 330.539 377.549 331.464 378.069C332.39 378.561 333.127 379.241 333.677 380.108C334.226 380.947 334.501 382.017 334.501 383.319C334.501 384.794 334.096 386.081 333.286 387.18C332.476 388.279 331.291 389.132 329.729 389.74C328.196 390.318 326.301 390.607 324.045 390.607Z" fill="#726FF7"/>
<path d="M356.995 390.607C355.578 390.607 354.349 390.333 353.308 389.783C352.267 389.205 351.413 388.366 350.748 387.267C350.083 386.139 349.62 384.75 349.36 383.102H348.709L348.622 390H342.765V379.891V359.067H349.75V366.355C349.75 367.078 349.707 367.845 349.62 368.655C349.533 369.465 349.418 370.318 349.273 371.214C349.128 372.082 348.955 372.993 348.752 373.948H349.577C349.924 372.27 350.43 370.896 351.095 369.826C351.76 368.727 352.599 367.903 353.611 367.353C354.624 366.804 355.795 366.529 357.126 366.529C358.977 366.529 360.567 367.006 361.898 367.961C363.257 368.886 364.313 370.246 365.065 372.039C365.817 373.803 366.193 375.972 366.193 378.546C366.193 381.121 365.803 383.304 365.022 385.098C364.27 386.891 363.199 388.265 361.811 389.219C360.423 390.145 358.818 390.607 356.995 390.607ZM354.436 384.967C355.361 384.967 356.157 384.707 356.822 384.186C357.516 383.637 358.037 382.885 358.384 381.93C358.76 380.947 358.948 379.848 358.948 378.633C358.948 377.361 358.774 376.247 358.427 375.293C358.08 374.338 357.574 373.586 356.909 373.037C356.272 372.487 355.477 372.212 354.523 372.212C353.973 372.212 353.452 372.314 352.961 372.516C352.469 372.718 352.021 373.008 351.616 373.384C351.24 373.731 350.907 374.15 350.618 374.642C350.329 375.134 350.112 375.683 349.967 376.29C349.823 376.898 349.75 377.534 349.75 378.199V378.894C349.75 379.674 349.837 380.426 350.011 381.15C350.213 381.873 350.517 382.523 350.922 383.102C351.327 383.68 351.818 384.143 352.397 384.49C352.975 384.808 353.655 384.967 354.436 384.967ZM376.101 397.549C375.031 397.549 373.918 397.462 372.761 397.289C371.604 397.115 370.49 396.84 369.42 396.464C368.35 396.088 367.41 395.611 366.6 395.033L368.249 388.525C369.29 389.479 370.49 390.174 371.85 390.607C373.238 391.07 374.54 391.302 375.754 391.302C377.258 391.302 378.502 391.012 379.485 390.434C380.469 389.855 381.221 388.973 381.741 387.787C382.262 386.602 382.551 385.141 382.609 383.406L382.739 379.588H381.958C381.756 381.497 381.336 383.073 380.7 384.317C380.093 385.531 379.283 386.428 378.271 387.006C377.258 387.585 376.087 387.874 374.756 387.874C373.079 387.874 371.676 387.455 370.548 386.616C369.449 385.777 368.625 384.519 368.075 382.842C367.526 381.135 367.251 379.024 367.251 376.507V367.093H374.236V374.729C374.236 377.332 374.496 379.197 375.017 380.325C375.566 381.453 376.405 382.017 377.533 382.017C378.14 382.017 378.676 381.858 379.138 381.54C379.63 381.222 380.035 380.745 380.353 380.108C380.671 379.472 380.917 378.691 381.091 377.766C381.264 376.84 381.351 375.799 381.351 374.642V367.093H388.336V383.666C388.336 385.401 388.177 387.006 387.859 388.482C387.54 389.928 387.049 391.215 386.384 392.343C385.747 393.471 384.937 394.425 383.954 395.206C382.971 395.987 381.828 396.566 380.527 396.942C379.225 397.346 377.75 397.549 376.101 397.549ZM409.352 390.607C406.98 390.607 404.869 390.043 403.018 388.915C401.167 387.787 399.72 386.139 398.679 383.97C397.638 381.771 397.117 379.11 397.117 375.987C397.117 373.673 397.421 371.59 398.028 369.739C398.636 367.859 399.532 366.254 400.718 364.924C401.933 363.593 403.423 362.566 405.187 361.843C406.98 361.12 409.063 360.759 411.434 360.759C413.314 360.759 414.977 360.99 416.423 361.453C417.899 361.916 419.142 362.566 420.155 363.405C421.167 364.215 421.933 365.184 422.454 366.312C422.975 367.44 423.22 368.698 423.191 370.086L416.597 371.648C416.597 370.491 416.366 369.537 415.903 368.785C415.44 368.033 414.789 367.454 413.951 367.05C413.141 366.645 412.215 366.442 411.174 366.442C409.757 366.442 408.542 366.789 407.53 367.483C406.546 368.149 405.794 369.175 405.274 370.564C404.753 371.923 404.493 373.63 404.493 375.683C404.493 377.187 404.637 378.532 404.927 379.718C405.216 380.875 405.664 381.858 406.271 382.668C406.879 383.449 407.616 384.042 408.484 384.447C409.352 384.852 410.379 385.054 411.564 385.054C412.721 385.054 413.719 384.866 414.558 384.49C415.426 384.085 416.091 383.521 416.554 382.798C417.045 382.046 417.306 381.121 417.335 380.022H412.475V375.076H424.016V380.542V390H419.243L419.157 382.625H418.463C418.115 384.36 417.566 385.821 416.814 387.006C416.062 388.192 415.064 389.089 413.82 389.696C412.606 390.304 411.116 390.607 409.352 390.607ZM436.835 390.607C434.84 390.607 433.09 390.333 431.586 389.783C430.111 389.234 428.867 388.453 427.855 387.44C426.871 386.399 426.119 385.17 425.599 383.753C425.107 382.335 424.861 380.745 424.861 378.98C424.861 377.245 425.107 375.611 425.599 374.078C426.09 372.545 426.813 371.214 427.768 370.086C428.751 368.958 429.952 368.076 431.369 367.44C432.815 366.804 434.478 366.486 436.358 366.486C438.238 366.486 439.872 366.804 441.261 367.44C442.678 368.047 443.835 368.944 444.731 370.13C445.628 371.316 446.25 372.733 446.597 374.382C446.973 376.001 447.06 377.823 446.857 379.848L429.373 380.022V376.334L442.345 376.16L440.436 378.026C440.639 376.638 440.581 375.495 440.263 374.598C439.945 373.673 439.453 372.993 438.788 372.559C438.122 372.097 437.341 371.865 436.445 371.865C435.404 371.865 434.521 372.14 433.798 372.69C433.075 373.239 432.526 374.034 432.15 375.076C431.774 376.088 431.586 377.332 431.586 378.807C431.586 381.15 432.049 382.856 432.974 383.926C433.929 384.996 435.216 385.531 436.835 385.531C437.587 385.531 438.209 385.43 438.701 385.228C439.193 385.025 439.597 384.765 439.916 384.447C440.234 384.1 440.465 383.709 440.61 383.275C440.783 382.842 440.899 382.393 440.957 381.93L447.161 382.928C447.045 383.941 446.77 384.91 446.337 385.835C445.932 386.761 445.31 387.585 444.471 388.308C443.661 389.002 442.634 389.566 441.391 390C440.147 390.405 438.629 390.607 436.835 390.607ZM448.489 390V376.507V367.093H454.215L454.259 374.772H454.953C455.271 372.921 455.748 371.388 456.385 370.173C457.05 368.93 457.917 368.004 458.988 367.397C460.058 366.789 461.345 366.486 462.849 366.486C465.481 366.486 467.462 367.382 468.793 369.175C470.152 370.969 470.832 373.774 470.832 377.592V390H463.803V378.416C463.803 376.334 463.5 374.815 462.892 373.861C462.285 372.878 461.374 372.386 460.159 372.386C459.147 372.386 458.293 372.704 457.599 373.34C456.905 373.977 456.37 374.902 455.994 376.117C455.647 377.303 455.473 378.734 455.473 380.412V390H448.489ZM483.827 390.607C481.832 390.607 480.082 390.333 478.578 389.783C477.103 389.234 475.859 388.453 474.847 387.44C473.863 386.399 473.111 385.17 472.591 383.753C472.099 382.335 471.853 380.745 471.853 378.98C471.853 377.245 472.099 375.611 472.591 374.078C473.082 372.545 473.806 371.214 474.76 370.086C475.743 368.958 476.944 368.076 478.361 367.44C479.807 366.804 481.47 366.486 483.35 366.486C485.23 366.486 486.864 366.804 488.253 367.44C489.67 368.047 490.827 368.944 491.723 370.13C492.62 371.316 493.242 372.733 493.589 374.382C493.965 376.001 494.052 377.823 493.849 379.848L476.365 380.022V376.334L489.337 376.16L487.428 378.026C487.631 376.638 487.573 375.495 487.255 374.598C486.937 373.673 486.445 372.993 485.78 372.559C485.114 372.097 484.334 371.865 483.437 371.865C482.396 371.865 481.514 372.14 480.79 372.69C480.067 373.239 479.518 374.034 479.142 375.076C478.766 376.088 478.578 377.332 478.578 378.807C478.578 381.15 479.041 382.856 479.966 383.926C480.921 384.996 482.208 385.531 483.827 385.531C484.579 385.531 485.201 385.43 485.693 385.228C486.185 385.025 486.59 384.765 486.908 384.447C487.226 384.1 487.457 383.709 487.602 383.275C487.775 382.842 487.891 382.393 487.949 381.93L494.153 382.928C494.037 383.941 493.762 384.91 493.329 385.835C492.924 386.761 492.302 387.585 491.463 388.308C490.653 389.002 489.626 389.566 488.383 390C487.139 390.405 485.621 390.607 483.827 390.607ZM495.481 390V378.72V367.093H501.294L501.381 375.336H502.075C502.278 373.167 502.639 371.446 503.16 370.173C503.709 368.901 504.461 367.99 505.416 367.44C506.37 366.862 507.527 366.572 508.887 366.572C509.205 366.572 509.552 366.601 509.928 366.659C510.333 366.717 510.752 366.833 511.186 367.006L510.882 374.555C510.362 374.295 509.812 374.107 509.234 373.991C508.684 373.875 508.178 373.818 507.715 373.818C506.674 373.818 505.777 374.049 505.025 374.512C504.273 374.974 503.68 375.669 503.247 376.594C502.842 377.52 502.596 378.691 502.509 380.108V390H495.481ZM517.011 390.607C515.767 390.607 514.639 390.376 513.627 389.913C512.643 389.45 511.848 388.742 511.241 387.787C510.662 386.833 510.373 385.633 510.373 384.186C510.373 382.856 510.633 381.757 511.154 380.889C511.674 380.022 512.412 379.327 513.366 378.807C514.321 378.286 515.434 377.881 516.707 377.592C517.98 377.274 519.353 376.985 520.829 376.724C521.928 376.551 522.795 376.392 523.432 376.247C524.068 376.102 524.516 375.9 524.777 375.64C525.066 375.35 525.21 374.96 525.21 374.468C525.21 373.687 524.936 373.066 524.386 372.603C523.837 372.111 523.012 371.865 521.913 371.865C521.161 371.865 520.453 371.995 519.787 372.256C519.151 372.516 518.601 372.935 518.139 373.514C517.705 374.063 517.416 374.786 517.271 375.683L511.11 374.382C511.342 372.935 511.776 371.721 512.412 370.737C513.077 369.725 513.901 368.901 514.885 368.264C515.868 367.628 516.982 367.18 518.225 366.919C519.469 366.63 520.756 366.486 522.087 366.486C524.401 366.486 526.281 366.876 527.727 367.657C529.202 368.438 530.286 369.609 530.981 371.171C531.704 372.733 532.065 374.714 532.065 377.115V380.802C532.065 381.815 532.08 382.842 532.109 383.883C532.137 384.895 532.166 385.907 532.195 386.92C532.253 387.932 532.325 388.959 532.412 390H526.295C526.208 389.19 526.121 388.294 526.035 387.31C525.977 386.327 525.933 385.314 525.905 384.273H525.254C524.965 385.43 524.429 386.5 523.649 387.484C522.897 388.438 521.957 389.205 520.829 389.783C519.729 390.333 518.457 390.607 517.011 390.607ZM520.091 385.618C520.583 385.618 521.103 385.531 521.653 385.358C522.202 385.155 522.723 384.866 523.215 384.49C523.706 384.114 524.14 383.637 524.516 383.058C524.892 382.451 525.153 381.757 525.297 380.976L525.254 378.416L526.252 378.503C525.818 378.879 525.297 379.168 524.69 379.371C524.082 379.573 523.432 379.747 522.737 379.891C522.072 380.007 521.407 380.137 520.742 380.282C520.077 380.398 519.469 380.557 518.92 380.759C518.399 380.962 517.98 381.236 517.661 381.583C517.372 381.93 517.228 382.422 517.228 383.058C517.228 383.839 517.488 384.461 518.009 384.924C518.558 385.387 519.252 385.618 520.091 385.618ZM543.235 390.564C540.516 390.564 538.521 389.855 537.248 388.438C535.975 387.021 535.339 384.779 535.339 381.714V372.559H532.302L532.389 367.483H533.951C535.194 367.397 536.106 367.093 536.684 366.572C537.262 366.052 537.61 365.213 537.725 364.056L538.116 361.974H542.107V367.093H547.53V372.776H542.107V381.28C542.107 382.321 542.353 383.073 542.845 383.536C543.336 383.998 544.045 384.23 544.97 384.23C545.491 384.23 545.983 384.172 546.446 384.056C546.908 383.941 547.313 383.782 547.66 383.579V389.913C546.735 390.202 545.896 390.376 545.144 390.434C544.421 390.521 543.785 390.564 543.235 390.564ZM549.001 390V367.093H555.985V390H549.001ZM552.515 364.446C551.184 364.446 550.157 364.172 549.434 363.622C548.74 363.044 548.393 362.219 548.393 361.149C548.393 360.05 548.74 359.226 549.434 358.676C550.157 358.098 551.184 357.809 552.515 357.809C553.874 357.809 554.901 358.098 555.595 358.676C556.318 359.255 556.68 360.079 556.68 361.149C556.68 362.19 556.318 363 555.595 363.579C554.901 364.157 553.874 364.446 552.515 364.446ZM558.367 390V376.507V367.093H564.094L564.137 374.772H564.831C565.149 372.921 565.627 371.388 566.263 370.173C566.928 368.93 567.796 368.004 568.866 367.397C569.936 366.789 571.223 366.486 572.727 366.486C575.359 366.486 577.34 367.382 578.671 369.175C580.03 370.969 580.71 373.774 580.71 377.592V390H573.682V378.416C573.682 376.334 573.378 374.815 572.771 373.861C572.163 372.878 571.252 372.386 570.037 372.386C569.025 372.386 568.172 372.704 567.478 373.34C566.784 373.977 566.248 374.902 565.872 376.117C565.525 377.303 565.352 378.734 565.352 380.412V390H558.367ZM591.97 397.636C589.425 397.636 587.357 397.433 585.766 397.028C584.176 396.623 583.019 396.045 582.296 395.293C581.602 394.57 581.254 393.673 581.254 392.603C581.254 391.302 581.775 390.246 582.816 389.436C583.858 388.626 585.376 388.134 587.372 387.961V387.31C585.839 387.31 584.638 387.122 583.771 386.746C582.932 386.341 582.513 385.69 582.513 384.794C582.513 383.984 582.918 383.246 583.727 382.581C584.537 381.916 585.882 381.468 587.762 381.236V380.542C586.056 380.311 584.696 379.674 583.684 378.633C582.701 377.592 582.209 376.233 582.209 374.555C582.209 373.109 582.599 371.807 583.38 370.65C584.19 369.494 585.376 368.582 586.938 367.917C588.529 367.252 590.481 366.919 592.795 366.919H604.509V372.212L597.003 371.214V371.995C599.086 372.285 600.532 372.762 601.342 373.427C602.18 374.092 602.6 374.974 602.6 376.074C602.6 377.202 602.224 378.199 601.472 379.067C600.749 379.935 599.678 380.629 598.261 381.15C596.844 381.641 595.123 381.887 593.098 381.887C592.636 381.887 592.144 381.873 591.623 381.844C591.132 381.786 590.452 381.699 589.584 381.583C589.122 381.902 588.746 382.191 588.456 382.451C588.196 382.711 588.066 382.957 588.066 383.189C588.066 383.333 588.138 383.463 588.283 383.579C588.427 383.666 588.615 383.738 588.847 383.796C589.107 383.825 589.396 383.839 589.714 383.839H596.656C597.263 383.839 598.03 383.883 598.955 383.97C599.881 384.027 600.806 384.244 601.732 384.62C602.658 384.996 603.438 385.604 604.075 386.442C604.711 387.281 605.029 388.482 605.029 390.043C605.029 391.75 604.552 393.167 603.598 394.295C602.672 395.423 601.24 396.262 599.302 396.811C597.394 397.361 594.95 397.636 591.97 397.636ZM592.578 391.822C594.342 391.822 595.687 391.735 596.613 391.562C597.538 391.417 598.16 391.186 598.478 390.868C598.825 390.55 598.999 390.159 598.999 389.696C598.999 389.205 598.883 388.829 598.652 388.568C598.449 388.279 598.189 388.091 597.871 388.004C597.553 387.889 597.22 387.816 596.873 387.787C596.555 387.758 596.28 387.744 596.049 387.744H590.365C589.353 387.86 588.615 388.134 588.153 388.568C587.719 388.973 587.502 389.465 587.502 390.043C587.502 390.535 587.675 390.911 588.022 391.171C588.398 391.432 588.962 391.605 589.714 391.692C590.466 391.779 591.421 391.822 592.578 391.822ZM592.665 378.286C593.764 378.286 594.602 377.968 595.181 377.332C595.759 376.695 596.049 375.871 596.049 374.859C596.049 373.789 595.745 372.921 595.138 372.256C594.559 371.562 593.735 371.214 592.665 371.214C591.566 371.214 590.698 371.562 590.062 372.256C589.454 372.921 589.15 373.789 589.15 374.859C589.15 375.524 589.281 376.117 589.541 376.638C589.83 377.158 590.235 377.563 590.756 377.852C591.276 378.142 591.913 378.286 592.665 378.286ZM618.623 382.061V376.594H624.61C626.433 376.594 627.792 376.218 628.689 375.466C629.614 374.685 630.077 373.413 630.077 371.648C630.077 370.058 629.657 368.857 628.819 368.047C627.98 367.238 626.678 366.833 624.914 366.833H618.623V361.366H625.218C626.982 361.366 628.587 361.583 630.033 362.017C631.509 362.422 632.781 363.058 633.851 363.926C634.921 364.765 635.746 365.835 636.324 367.136C636.903 368.409 637.192 369.942 637.192 371.735C637.192 373.991 636.671 375.886 635.63 377.418C634.618 378.951 633.114 380.108 631.118 380.889C629.151 381.67 626.693 382.061 623.743 382.061H618.623ZM613.461 390V361.366H620.445V390H613.461ZM643.416 390.607C642.172 390.607 641.044 390.376 640.032 389.913C639.048 389.45 638.253 388.742 637.645 387.787C637.067 386.833 636.778 385.633 636.778 384.186C636.778 382.856 637.038 381.757 637.559 380.889C638.079 380.022 638.817 379.327 639.771 378.807C640.726 378.286 641.839 377.881 643.112 377.592C644.385 377.274 645.758 376.985 647.233 376.724C648.333 376.551 649.2 376.392 649.837 376.247C650.473 376.102 650.921 375.9 651.181 375.64C651.471 375.35 651.615 374.96 651.615 374.468C651.615 373.687 651.341 373.066 650.791 372.603C650.241 372.111 649.417 371.865 648.318 371.865C647.566 371.865 646.857 371.995 646.192 372.256C645.556 372.516 645.006 372.935 644.544 373.514C644.11 374.063 643.821 374.786 643.676 375.683L637.515 374.382C637.747 372.935 638.181 371.721 638.817 370.737C639.482 369.725 640.306 368.901 641.29 368.264C642.273 367.628 643.387 367.18 644.63 366.919C645.874 366.63 647.161 366.486 648.492 366.486C650.805 366.486 652.685 366.876 654.132 367.657C655.607 368.438 656.691 369.609 657.385 371.171C658.109 372.733 658.47 374.714 658.47 377.115V380.802C658.47 381.815 658.485 382.842 658.513 383.883C658.542 384.895 658.571 385.907 658.6 386.92C658.658 387.932 658.73 388.959 658.817 390H652.7C652.613 389.19 652.526 388.294 652.44 387.31C652.382 386.327 652.338 385.314 652.309 384.273H651.659C651.369 385.43 650.834 386.5 650.053 387.484C649.301 388.438 648.361 389.205 647.233 389.783C646.134 390.333 644.862 390.607 643.416 390.607ZM646.496 385.618C646.988 385.618 647.508 385.531 648.058 385.358C648.607 385.155 649.128 384.866 649.62 384.49C650.111 384.114 650.545 383.637 650.921 383.058C651.297 382.451 651.557 381.757 651.702 380.976L651.659 378.416L652.657 378.503C652.223 378.879 651.702 379.168 651.095 379.371C650.487 379.573 649.837 379.747 649.142 379.891C648.477 380.007 647.812 380.137 647.147 380.282C646.481 380.398 645.874 380.557 645.325 380.759C644.804 380.962 644.385 381.236 644.066 381.583C643.777 381.93 643.633 382.422 643.633 383.058C643.633 383.839 643.893 384.461 644.413 384.924C644.963 385.387 645.657 385.618 646.496 385.618ZM660.616 390V376.507V367.093H666.343L666.386 374.772H667.08C667.398 372.921 667.876 371.388 668.512 370.173C669.177 368.93 670.045 368.004 671.115 367.397C672.185 366.789 673.472 366.486 674.976 366.486C677.608 366.486 679.59 367.382 680.92 369.175C682.279 370.969 682.959 373.774 682.959 377.592V390H675.931V378.416C675.931 376.334 675.627 374.815 675.02 373.861C674.412 372.878 673.501 372.386 672.286 372.386C671.274 372.386 670.421 372.704 669.727 373.34C669.033 373.977 668.498 374.902 668.122 376.117C667.774 377.303 667.601 378.734 667.601 380.412V390H660.616ZM693.437 390.607C691.614 390.607 689.995 390.145 688.578 389.219C687.189 388.265 686.105 386.876 685.324 385.054C684.543 383.232 684.152 381.019 684.152 378.416C684.152 375.987 684.499 373.89 685.194 372.126C685.888 370.332 686.9 368.958 688.23 368.004C689.561 367.021 691.181 366.529 693.09 366.529C694.507 366.529 695.722 366.804 696.734 367.353C697.746 367.874 698.585 368.684 699.25 369.783C699.915 370.882 700.422 372.27 700.769 373.948H701.593C701.419 372.993 701.246 372.068 701.072 371.171C700.899 370.246 700.769 369.378 700.682 368.568C700.595 367.758 700.552 367.021 700.552 366.355V359.067H707.58V379.935V390H701.723L701.636 383.102H700.942C700.624 384.837 700.132 386.254 699.467 387.354C698.802 388.453 697.963 389.277 696.951 389.826C695.938 390.347 694.767 390.607 693.437 390.607ZM695.91 384.967C696.69 384.967 697.37 384.808 697.949 384.49C698.527 384.143 699.004 383.68 699.38 383.102C699.785 382.523 700.089 381.873 700.291 381.15C700.494 380.426 700.595 379.674 700.595 378.894V378.199C700.595 377.534 700.508 376.912 700.335 376.334C700.19 375.726 699.973 375.177 699.684 374.685C699.424 374.165 699.091 373.731 698.686 373.384C698.281 373.008 697.833 372.718 697.341 372.516C696.85 372.314 696.329 372.212 695.779 372.212C694.854 372.212 694.058 372.487 693.393 373.037C692.757 373.586 692.265 374.338 691.918 375.293C691.571 376.247 691.398 377.346 691.398 378.59C691.398 379.834 691.571 380.947 691.918 381.93C692.294 382.885 692.815 383.637 693.48 384.186C694.174 384.707 694.984 384.967 695.91 384.967ZM715.577 390.607C714.334 390.607 713.206 390.376 712.193 389.913C711.21 389.45 710.415 388.742 709.807 387.787C709.229 386.833 708.94 385.633 708.94 384.186C708.94 382.856 709.2 381.757 709.72 380.889C710.241 380.022 710.979 379.327 711.933 378.807C712.888 378.286 714.001 377.881 715.274 377.592C716.546 377.274 717.92 376.985 719.395 376.724C720.494 376.551 721.362 376.392 721.998 376.247C722.635 376.102 723.083 375.9 723.343 375.64C723.632 375.35 723.777 374.96 723.777 374.468C723.777 373.687 723.502 373.066 722.953 372.603C722.403 372.111 721.579 371.865 720.48 371.865C719.728 371.865 719.019 371.995 718.354 372.256C717.718 372.516 717.168 372.935 716.705 373.514C716.272 374.063 715.982 374.786 715.838 375.683L709.677 374.382C709.908 372.935 710.342 371.721 710.979 370.737C711.644 369.725 712.468 368.901 713.452 368.264C714.435 367.628 715.548 367.18 716.792 366.919C718.036 366.63 719.323 366.486 720.653 366.486C722.967 366.486 724.847 366.876 726.293 367.657C727.768 368.438 728.853 369.609 729.547 371.171C730.27 372.733 730.632 374.714 730.632 377.115V380.802C730.632 381.815 730.646 382.842 730.675 383.883C730.704 384.895 730.733 385.907 730.762 386.92C730.82 387.932 730.892 388.959 730.979 390H724.862C724.775 389.19 724.688 388.294 724.601 387.31C724.544 386.327 724.5 385.314 724.471 384.273H723.82C723.531 385.43 722.996 386.5 722.215 387.484C721.463 388.438 720.523 389.205 719.395 389.783C718.296 390.333 717.024 390.607 715.577 390.607ZM718.658 385.618C719.149 385.618 719.67 385.531 720.22 385.358C720.769 385.155 721.29 384.866 721.781 384.49C722.273 384.114 722.707 383.637 723.083 383.058C723.459 382.451 723.719 381.757 723.864 380.976L723.82 378.416L724.818 378.503C724.384 378.879 723.864 379.168 723.256 379.371C722.649 379.573 721.998 379.747 721.304 379.891C720.639 380.007 719.974 380.137 719.308 380.282C718.643 380.398 718.036 380.557 717.486 380.759C716.966 380.962 716.546 381.236 716.228 381.583C715.939 381.93 715.794 382.422 715.794 383.058C715.794 383.839 716.055 384.461 716.575 384.924C717.125 385.387 717.819 385.618 718.658 385.618ZM742.366 390.607C740.833 390.607 739.43 390.463 738.157 390.174C736.885 389.884 735.771 389.465 734.817 388.915C733.891 388.337 733.139 387.614 732.561 386.746C732.011 385.85 731.679 384.823 731.563 383.666L737.116 382.017C737.261 382.682 737.565 383.29 738.027 383.839C738.49 384.389 739.112 384.823 739.893 385.141C740.674 385.43 741.628 385.575 742.756 385.575C743.826 385.575 744.68 385.416 745.316 385.098C745.981 384.779 746.314 384.288 746.314 383.622C746.314 383.189 746.155 382.842 745.837 382.581C745.518 382.321 745.012 382.09 744.318 381.887C743.624 381.656 742.727 381.424 741.628 381.193C740.413 380.904 739.228 380.6 738.071 380.282C736.914 379.935 735.873 379.501 734.947 378.98C734.021 378.431 733.284 377.737 732.734 376.898C732.185 376.059 731.91 375.003 731.91 373.731C731.91 372.256 732.301 370.983 733.081 369.913C733.891 368.843 735.034 368.004 736.509 367.397C738.013 366.789 739.806 366.486 741.889 366.486C743.74 366.486 745.403 366.746 746.878 367.266C748.353 367.758 749.553 368.525 750.479 369.566C751.433 370.578 751.997 371.88 752.171 373.47L746.444 374.902C746.386 374.208 746.155 373.615 745.75 373.123C745.345 372.603 744.81 372.212 744.145 371.952C743.479 371.663 742.698 371.518 741.802 371.518C740.732 371.518 739.893 371.706 739.285 372.082C738.707 372.429 738.418 372.878 738.418 373.427C738.418 373.89 738.606 374.28 738.982 374.598C739.387 374.888 739.965 375.134 740.717 375.336C741.469 375.538 742.395 375.77 743.494 376.03C744.564 376.233 745.649 376.493 746.748 376.811C747.847 377.129 748.859 377.549 749.785 378.069C750.71 378.561 751.448 379.241 751.997 380.108C752.547 380.947 752.821 382.017 752.821 383.319C752.821 384.794 752.417 386.081 751.607 387.18C750.797 388.279 749.611 389.132 748.049 389.74C746.516 390.318 744.622 390.607 742.366 390.607ZM771.672 390.607C769.387 390.607 767.362 390.159 765.598 389.262C763.862 388.366 762.488 387.035 761.476 385.271C760.493 383.478 760.001 381.236 760.001 378.546C760.001 375.799 760.507 373.543 761.52 371.778C762.532 369.985 763.92 368.655 765.684 367.787C767.449 366.919 769.459 366.486 771.715 366.486C774.029 366.486 776.053 366.934 777.789 367.83C779.553 368.727 780.927 370.072 781.91 371.865C782.923 373.63 783.429 375.857 783.429 378.546C783.429 381.323 782.908 383.608 781.867 385.401C780.855 387.166 779.452 388.482 777.659 389.349C775.894 390.188 773.899 390.607 771.672 390.607ZM771.888 385.488C772.872 385.488 773.696 385.257 774.361 384.794C775.027 384.302 775.518 383.565 775.836 382.581C776.184 381.598 776.357 380.398 776.357 378.98C776.357 377.447 776.169 376.16 775.793 375.119C775.446 374.078 774.911 373.282 774.188 372.733C773.494 372.154 772.612 371.865 771.541 371.865C770.587 371.865 769.763 372.111 769.068 372.603C768.403 373.094 767.897 373.832 767.55 374.815C767.232 375.799 767.073 377.014 767.073 378.46C767.073 380.774 767.492 382.523 768.331 383.709C769.17 384.895 770.356 385.488 771.888 385.488ZM784.73 390V376.507V367.093H790.457L790.5 374.772H791.194C791.513 372.921 791.99 371.388 792.626 370.173C793.291 368.93 794.159 368.004 795.229 367.397C796.299 366.789 797.586 366.486 799.09 366.486C801.722 366.486 803.704 367.382 805.034 369.175C806.393 370.969 807.073 373.774 807.073 377.592V390H800.045V378.416C800.045 376.334 799.741 374.815 799.134 373.861C798.526 372.878 797.615 372.386 796.401 372.386C795.388 372.386 794.535 372.704 793.841 373.34C793.147 373.977 792.612 374.902 792.236 376.117C791.889 377.303 791.715 378.734 791.715 380.412V390H784.73ZM203.502 407.584C203.069 408.668 202.755 409.657 202.562 410.548C202.394 411.416 202.285 412.212 202.237 412.935C202.213 413.658 202.201 414.345 202.201 414.995H199.598C199.598 413.863 199.67 412.838 199.815 411.922C199.983 411.006 200.188 410.199 200.429 409.5C200.695 408.777 200.96 408.138 201.225 407.584H203.502ZM198.26 407.584C197.826 408.668 197.513 409.657 197.32 410.548C197.151 411.416 197.043 412.212 196.995 412.935C196.971 413.658 196.959 414.345 196.959 414.995H194.356C194.356 413.863 194.428 412.838 194.572 411.922C194.741 411.006 194.946 410.199 195.187 409.5C195.452 408.777 195.705 408.138 195.946 407.584H198.26ZM205.134 433V409.138H207.81V433H205.134ZM206.074 422.335V419.948H219.668V422.335H206.074ZM206.074 411.561V409.138H221.331V411.561H206.074ZM230.37 433.434C228.61 433.434 227.056 433.048 225.706 432.277C224.38 431.482 223.344 430.361 222.597 428.915C221.874 427.444 221.512 425.673 221.512 423.6C221.512 421.431 221.898 419.635 222.669 418.213C223.464 416.791 224.525 415.731 225.851 415.032C227.176 414.308 228.647 413.947 230.261 413.947C231.924 413.947 233.419 414.333 234.744 415.104C236.094 415.851 237.155 416.96 237.926 418.43C238.721 419.876 239.119 421.66 239.119 423.781C239.119 425.902 238.733 427.685 237.962 429.132C237.191 430.554 236.142 431.626 234.817 432.349C233.491 433.072 232.009 433.434 230.37 433.434ZM230.478 431.12C231.708 431.12 232.768 430.819 233.66 430.216C234.552 429.614 235.239 428.77 235.721 427.685C236.203 426.577 236.444 425.287 236.444 423.817C236.444 422.298 236.191 420.985 235.684 419.876C235.178 418.743 234.455 417.876 233.515 417.273C232.599 416.646 231.491 416.333 230.189 416.333C228.984 416.333 227.936 416.622 227.044 417.201C226.152 417.755 225.453 418.575 224.947 419.659C224.441 420.72 224.188 422.009 224.188 423.528C224.188 425.866 224.754 427.722 225.887 429.095C227.02 430.445 228.55 431.12 230.478 431.12ZM241.931 433V407.873H244.607V433H241.931ZM248.417 433V407.873H251.092V433H248.417ZM262.784 433.434C261.024 433.434 259.469 433.048 258.12 432.277C256.794 431.482 255.758 430.361 255.01 428.915C254.287 427.444 253.926 425.673 253.926 423.6C253.926 421.431 254.312 419.635 255.083 418.213C255.878 416.791 256.939 415.731 258.264 415.032C259.59 414.308 261.06 413.947 262.675 413.947C264.338 413.947 265.833 414.333 267.158 415.104C268.508 415.851 269.568 416.96 270.34 418.43C271.135 419.876 271.533 421.66 271.533 423.781C271.533 425.902 271.147 427.685 270.376 429.132C269.605 430.554 268.556 431.626 267.23 432.349C265.905 433.072 264.423 433.434 262.784 433.434ZM262.892 431.12C264.121 431.12 265.182 430.819 266.074 430.216C266.965 429.614 267.652 428.77 268.134 427.685C268.616 426.577 268.857 425.287 268.857 423.817C268.857 422.298 268.604 420.985 268.098 419.876C267.592 418.743 266.869 417.876 265.929 417.273C265.013 416.646 263.904 416.333 262.603 416.333C261.398 416.333 260.349 416.622 259.457 417.201C258.566 417.755 257.867 418.575 257.36 419.659C256.854 420.72 256.601 422.009 256.601 423.528C256.601 425.866 257.168 427.722 258.3 429.095C259.433 430.445 260.964 431.12 262.892 431.12ZM277.241 433L272.18 414.381H274.928L278.941 430.65H279.483L283.677 414.381H287.292L291.486 430.65H291.992L296.005 414.381H298.717L293.619 433H289.859L285.665 416.767H285.304L281.11 433H277.241ZM313.217 433.362C311.602 433.362 310.397 432.916 309.601 432.024C308.83 431.132 308.444 429.806 308.444 428.047V416.695H305.624V414.381H307.323C307.878 414.381 308.275 414.284 308.517 414.092C308.782 413.875 308.938 413.525 308.987 413.043L309.312 410.187H311.011V414.381H316.579V416.731H311.011V428.047C311.011 429.035 311.24 429.758 311.698 430.216C312.156 430.65 312.807 430.867 313.65 430.867C314.108 430.867 314.59 430.807 315.097 430.686C315.603 430.542 316.133 430.264 316.687 429.855V432.638C316.012 432.879 315.386 433.06 314.807 433.181C314.229 433.301 313.699 433.362 313.217 433.362ZM318.727 433V421.865V407.873H321.511V413.658C321.511 414.188 321.499 414.73 321.475 415.285C321.451 415.839 321.403 416.405 321.331 416.984C321.282 417.538 321.222 418.093 321.15 418.647C321.077 419.201 320.993 419.768 320.897 420.346H321.475C321.837 418.9 322.295 417.707 322.849 416.767C323.427 415.803 324.138 415.092 324.982 414.634C325.826 414.176 326.802 413.947 327.911 413.947C330.007 413.947 331.562 414.682 332.574 416.152C333.611 417.598 334.129 419.744 334.129 422.588V433H331.454V422.768C331.454 420.527 331.104 418.912 330.405 417.924C329.706 416.912 328.682 416.405 327.332 416.405C326.151 416.405 325.151 416.743 324.331 417.418C323.536 418.093 322.897 419.008 322.415 420.165C321.933 421.322 321.596 422.648 321.403 424.142V433H318.727ZM345.414 433.434C343.968 433.434 342.702 433.217 341.618 432.783C340.533 432.325 339.617 431.674 338.87 430.831C338.123 429.987 337.568 428.987 337.207 427.83C336.845 426.673 336.665 425.396 336.665 423.998C336.665 422.552 336.845 421.226 337.207 420.021C337.593 418.792 338.147 417.719 338.87 416.803C339.593 415.887 340.473 415.188 341.509 414.706C342.57 414.2 343.787 413.947 345.161 413.947C346.318 413.947 347.378 414.152 348.342 414.562C349.306 414.947 350.138 415.55 350.837 416.369C351.536 417.189 352.066 418.237 352.428 419.515C352.789 420.768 352.946 422.262 352.898 423.998L338.291 424.106V422.045L351.235 421.937L350.331 423.492C350.427 421.901 350.258 420.575 349.825 419.515C349.415 418.454 348.8 417.659 347.981 417.128C347.185 416.598 346.233 416.333 345.125 416.333C343.944 416.333 342.907 416.634 342.015 417.237C341.148 417.839 340.473 418.719 339.991 419.876C339.509 421.009 339.268 422.371 339.268 423.962C339.268 426.251 339.774 428.023 340.786 429.276C341.823 430.505 343.389 431.12 345.486 431.12C346.281 431.12 346.98 431.036 347.583 430.867C348.186 430.674 348.692 430.409 349.101 430.072C349.535 429.734 349.897 429.336 350.186 428.878C350.475 428.421 350.692 427.914 350.837 427.36L353.187 427.938C352.946 428.806 352.596 429.589 352.138 430.288C351.705 430.963 351.162 431.542 350.511 432.024C349.861 432.482 349.114 432.831 348.27 433.072C347.426 433.313 346.474 433.434 345.414 433.434ZM362.643 433.434C361.342 433.434 360.185 433.289 359.172 433C358.184 432.711 357.353 432.301 356.678 431.771C356.027 431.241 355.533 430.602 355.195 429.855C354.882 429.107 354.737 428.288 354.762 427.396L357.148 426.962C357.051 427.854 357.22 428.613 357.654 429.24C358.112 429.867 358.775 430.349 359.642 430.686C360.51 430.999 361.558 431.156 362.788 431.156C364.33 431.156 365.523 430.891 366.367 430.361C367.211 429.831 367.632 429.095 367.632 428.155C367.632 427.432 367.391 426.866 366.909 426.456C366.451 426.046 365.813 425.721 364.993 425.48C364.198 425.239 363.27 425.022 362.209 424.829C361.342 424.636 360.486 424.419 359.642 424.178C358.799 423.913 358.027 423.588 357.328 423.202C356.654 422.817 356.111 422.323 355.702 421.72C355.292 421.093 355.087 420.31 355.087 419.37C355.087 418.237 355.376 417.273 355.955 416.478C356.533 415.682 357.365 415.068 358.449 414.634C359.534 414.176 360.823 413.947 362.318 413.947C363.836 413.947 365.114 414.188 366.15 414.67C367.211 415.152 368.03 415.827 368.608 416.695C369.187 417.562 369.5 418.575 369.548 419.732L367.126 420.238C367.126 419.346 366.921 418.611 366.512 418.032C366.102 417.43 365.523 416.984 364.776 416.695C364.029 416.405 363.149 416.261 362.137 416.261C360.763 416.261 359.666 416.526 358.847 417.056C358.052 417.586 357.654 418.309 357.654 419.225C357.654 419.924 357.883 420.491 358.341 420.925C358.823 421.334 359.462 421.66 360.257 421.901C361.052 422.118 361.932 422.323 362.896 422.515C363.86 422.708 364.776 422.925 365.644 423.166C366.512 423.407 367.283 423.721 367.958 424.106C368.657 424.492 369.199 424.998 369.585 425.625C369.994 426.251 370.199 427.047 370.199 428.011C370.199 429.24 369.874 430.264 369.223 431.084C368.596 431.879 367.717 432.47 366.584 432.855C365.451 433.241 364.137 433.434 362.643 433.434ZM380.522 433.434C379.076 433.434 377.81 433.217 376.726 432.783C375.641 432.325 374.725 431.674 373.978 430.831C373.231 429.987 372.676 428.987 372.315 427.83C371.953 426.673 371.773 425.396 371.773 423.998C371.773 422.552 371.953 421.226 372.315 420.021C372.7 418.792 373.255 417.719 373.978 416.803C374.701 415.887 375.581 415.188 376.617 414.706C377.678 414.2 378.895 413.947 380.269 413.947C381.426 413.947 382.486 414.152 383.45 414.562C384.414 414.947 385.246 415.55 385.945 416.369C386.644 417.189 387.174 418.237 387.536 419.515C387.897 420.768 388.054 422.262 388.006 423.998L373.399 424.106V422.045L386.343 421.937L385.439 423.492C385.535 421.901 385.366 420.575 384.933 419.515C384.523 418.454 383.908 417.659 383.089 417.128C382.293 416.598 381.341 416.333 380.233 416.333C379.052 416.333 378.015 416.634 377.123 417.237C376.256 417.839 375.581 418.719 375.099 419.876C374.617 421.009 374.376 422.371 374.376 423.962C374.376 426.251 374.882 428.023 375.894 429.276C376.93 430.505 378.497 431.12 380.594 431.12C381.389 431.12 382.088 431.036 382.691 430.867C383.294 430.674 383.8 430.409 384.209 430.072C384.643 429.734 385.005 429.336 385.294 428.878C385.583 428.421 385.8 427.914 385.945 427.36L388.295 427.938C388.054 428.806 387.704 429.589 387.246 430.288C386.813 430.963 386.27 431.542 385.619 432.024C384.969 432.482 384.222 432.831 383.378 433.072C382.534 433.313 381.582 433.434 380.522 433.434ZM405.744 433.434C404.298 433.434 403.032 433.217 401.948 432.783C400.863 432.325 399.947 431.674 399.2 430.831C398.453 429.987 397.899 428.987 397.537 427.83C397.175 426.673 396.995 425.396 396.995 423.998C396.995 422.552 397.175 421.226 397.537 420.021C397.923 418.792 398.477 417.719 399.2 416.803C399.923 415.887 400.803 415.188 401.839 414.706C402.9 414.2 404.117 413.947 405.491 413.947C406.648 413.947 407.708 414.152 408.672 414.562C409.637 414.947 410.468 415.55 411.167 416.369C411.866 417.189 412.396 418.237 412.758 419.515C413.119 420.768 413.276 422.262 413.228 423.998L398.622 424.106V422.045L411.565 421.937L410.661 423.492C410.757 421.901 410.589 420.575 410.155 419.515C409.745 418.454 409.13 417.659 408.311 417.128C407.515 416.598 406.563 416.333 405.455 416.333C404.274 416.333 403.237 416.634 402.345 417.237C401.478 417.839 400.803 418.719 400.321 419.876C399.839 421.009 399.598 422.371 399.598 423.962C399.598 426.251 400.104 428.023 401.116 429.276C402.153 430.505 403.719 431.12 405.816 431.12C406.612 431.12 407.311 431.036 407.913 430.867C408.516 430.674 409.022 430.409 409.432 430.072C409.865 429.734 410.227 429.336 410.516 428.878C410.805 428.421 411.022 427.914 411.167 427.36L413.517 427.938C413.276 428.806 412.927 429.589 412.469 430.288C412.035 430.963 411.492 431.542 410.842 432.024C410.191 432.482 409.444 432.831 408.6 433.072C407.757 433.313 406.804 433.434 405.744 433.434ZM420.374 433.434C419.361 433.434 418.445 433.253 417.626 432.892C416.806 432.506 416.156 431.915 415.674 431.12C415.192 430.325 414.95 429.336 414.95 428.155C414.95 427.312 415.095 426.553 415.384 425.878C415.698 425.203 416.18 424.624 416.83 424.142C417.481 423.636 418.349 423.214 419.434 422.877C420.518 422.539 421.844 422.274 423.41 422.082C424.375 421.961 425.146 421.841 425.724 421.72C426.303 421.575 426.725 421.371 426.99 421.105C427.279 420.816 427.424 420.382 427.424 419.804C427.424 418.816 427.086 417.984 426.411 417.309C425.736 416.61 424.676 416.261 423.23 416.261C422.531 416.261 421.796 416.381 421.024 416.622C420.253 416.863 419.578 417.285 419 417.888C418.421 418.49 418.06 419.346 417.915 420.455L415.42 419.551C415.589 418.707 415.878 417.948 416.288 417.273C416.698 416.598 417.24 416.008 417.915 415.502C418.59 414.995 419.373 414.61 420.265 414.345C421.181 414.079 422.193 413.947 423.302 413.947C424.82 413.947 426.074 414.2 427.062 414.706C428.074 415.212 428.822 415.996 429.304 417.056C429.81 418.093 430.063 419.43 430.063 421.069V425.516C430.063 426.239 430.075 427.047 430.099 427.938C430.147 428.806 430.207 429.686 430.28 430.578C430.352 431.445 430.424 432.253 430.497 433H428.002C427.93 432.181 427.869 431.385 427.821 430.614C427.773 429.843 427.737 429.071 427.713 428.3H427.279C426.942 429.192 426.472 430.035 425.869 430.831C425.266 431.602 424.507 432.229 423.591 432.711C422.699 433.193 421.627 433.434 420.374 433.434ZM420.952 431.156C421.482 431.156 422.037 431.072 422.615 430.903C423.194 430.71 423.772 430.421 424.35 430.035C424.929 429.626 425.471 429.095 425.977 428.445C426.508 427.77 427.002 426.962 427.46 426.022V422.226L428.472 422.407C428.086 422.817 427.556 423.13 426.881 423.347C426.23 423.54 425.495 423.696 424.676 423.817C423.856 423.937 423.025 424.07 422.181 424.215C421.362 424.359 420.603 424.576 419.904 424.865C419.229 425.131 418.674 425.516 418.24 426.022C417.831 426.504 417.626 427.179 417.626 428.047C417.626 429.083 417.927 429.867 418.53 430.397C419.156 430.903 419.964 431.156 420.952 431.156ZM440.368 433.434C439.067 433.434 437.91 433.289 436.898 433C435.909 432.711 435.078 432.301 434.403 431.771C433.752 431.241 433.258 430.602 432.921 429.855C432.607 429.107 432.463 428.288 432.487 427.396L434.873 426.962C434.777 427.854 434.945 428.613 435.379 429.24C435.837 429.867 436.5 430.349 437.368 430.686C438.235 430.999 439.284 431.156 440.513 431.156C442.056 431.156 443.249 430.891 444.092 430.361C444.936 429.831 445.358 429.095 445.358 428.155C445.358 427.432 445.117 426.866 444.634 426.456C444.177 426.046 443.538 425.721 442.718 425.48C441.923 425.239 440.995 425.022 439.934 424.829C439.067 424.636 438.211 424.419 437.368 424.178C436.524 423.913 435.753 423.588 435.054 423.202C434.379 422.817 433.837 422.323 433.427 421.72C433.017 421.093 432.812 420.31 432.812 419.37C432.812 418.237 433.101 417.273 433.68 416.478C434.258 415.682 435.09 415.068 436.174 414.634C437.259 414.176 438.549 413.947 440.043 413.947C441.561 413.947 442.839 414.188 443.875 414.67C444.936 415.152 445.755 415.827 446.334 416.695C446.912 417.562 447.226 418.575 447.274 419.732L444.851 420.238C444.851 419.346 444.647 418.611 444.237 418.032C443.827 417.43 443.249 416.984 442.501 416.695C441.754 416.405 440.874 416.261 439.862 416.261C438.488 416.261 437.392 416.526 436.572 417.056C435.777 417.586 435.379 418.309 435.379 419.225C435.379 419.924 435.608 420.491 436.066 420.925C436.548 421.334 437.187 421.66 437.982 421.901C438.778 422.118 439.657 422.323 440.621 422.515C441.586 422.708 442.501 422.925 443.369 423.166C444.237 423.407 445.008 423.721 445.683 424.106C446.382 424.492 446.924 424.998 447.31 425.625C447.72 426.251 447.924 427.047 447.924 428.011C447.924 429.24 447.599 430.264 446.948 431.084C446.322 431.879 445.442 432.47 444.309 432.855C443.176 433.241 441.863 433.434 440.368 433.434ZM456.666 439.182C455.677 439.182 454.713 439.062 453.773 438.821C452.833 438.58 451.978 438.218 451.206 437.736C450.459 437.254 449.845 436.627 449.362 435.856L451.062 434.157C451.568 434.976 452.303 435.603 453.267 436.037C454.231 436.495 455.316 436.724 456.521 436.724C457.919 436.724 459.076 436.411 459.992 435.784C460.908 435.157 461.595 434.205 462.052 432.928C462.535 431.65 462.776 430.035 462.776 428.083L463.209 424.178H462.595C462.306 425.986 461.872 427.42 461.293 428.481C460.715 429.541 460.016 430.301 459.196 430.758C458.377 431.216 457.425 431.445 456.34 431.445C454.99 431.445 453.846 431.108 452.906 430.433C451.99 429.758 451.291 428.758 450.809 427.432C450.351 426.083 450.122 424.468 450.122 422.588V414.381H452.725V422.082C452.725 424.419 453.086 426.155 453.809 427.288C454.557 428.421 455.629 428.987 457.027 428.987C457.798 428.987 458.497 428.806 459.124 428.445C459.751 428.083 460.293 427.529 460.751 426.782C461.209 426.01 461.57 425.058 461.836 423.925C462.125 422.793 462.306 421.443 462.378 419.876V414.381H465.053V428.264C465.053 429.71 464.945 431.024 464.728 432.205C464.535 433.362 464.21 434.374 463.752 435.242C463.294 436.109 462.727 436.832 462.052 437.411C461.402 438.013 460.618 438.459 459.702 438.748C458.811 439.038 457.798 439.182 456.666 439.182ZM482.774 433.434C481.472 433.434 480.315 433.289 479.303 433C478.315 432.711 477.483 432.301 476.808 431.771C476.158 431.241 475.663 430.602 475.326 429.855C475.013 429.107 474.868 428.288 474.892 427.396L477.278 426.962C477.182 427.854 477.351 428.613 477.785 429.24C478.242 429.867 478.905 430.349 479.773 430.686C480.641 430.999 481.689 431.156 482.918 431.156C484.461 431.156 485.654 430.891 486.498 430.361C487.341 429.831 487.763 429.095 487.763 428.155C487.763 427.432 487.522 426.866 487.04 426.456C486.582 426.046 485.943 425.721 485.124 425.48C484.328 425.239 483.4 425.022 482.34 424.829C481.472 424.636 480.617 424.419 479.773 424.178C478.929 423.913 478.158 423.588 477.459 423.202C476.784 422.817 476.242 422.323 475.832 421.72C475.422 421.093 475.218 420.31 475.218 419.37C475.218 418.237 475.507 417.273 476.085 416.478C476.664 415.682 477.495 415.068 478.58 414.634C479.665 414.176 480.954 413.947 482.448 413.947C483.967 413.947 485.244 414.188 486.281 414.67C487.341 415.152 488.161 415.827 488.739 416.695C489.318 417.562 489.631 418.575 489.679 419.732L487.257 420.238C487.257 419.346 487.052 418.611 486.642 418.032C486.232 417.43 485.654 416.984 484.907 416.695C484.16 416.405 483.28 416.261 482.268 416.261C480.894 416.261 479.797 416.526 478.978 417.056C478.182 417.586 477.785 418.309 477.785 419.225C477.785 419.924 478.013 420.491 478.471 420.925C478.953 421.334 479.592 421.66 480.388 421.901C481.183 422.118 482.063 422.323 483.027 422.515C483.991 422.708 484.907 422.925 485.775 423.166C486.642 423.407 487.413 423.721 488.088 424.106C488.787 424.492 489.33 424.998 489.715 425.625C490.125 426.251 490.33 427.047 490.33 428.011C490.33 429.24 490.005 430.264 489.354 431.084C488.727 431.879 487.847 432.47 486.715 432.855C485.582 433.241 484.268 433.434 482.774 433.434ZM498.267 433.362C496.652 433.362 495.447 432.916 494.652 432.024C493.88 431.132 493.495 429.806 493.495 428.047V416.695H490.675V414.381H492.374C492.928 414.381 493.326 414.284 493.567 414.092C493.832 413.875 493.989 413.525 494.037 413.043L494.362 410.187H496.062V414.381H501.629V416.731H496.062V428.047C496.062 429.035 496.291 429.758 496.749 430.216C497.207 430.65 497.857 430.867 498.701 430.867C499.159 430.867 499.641 430.807 500.147 430.686C500.653 430.542 501.184 430.264 501.738 429.855V432.638C501.063 432.879 500.436 433.06 499.858 433.181C499.279 433.301 498.749 433.362 498.267 433.362ZM511.304 433.434C509.858 433.434 508.592 433.217 507.508 432.783C506.423 432.325 505.507 431.674 504.76 430.831C504.013 429.987 503.459 428.987 503.097 427.83C502.736 426.673 502.555 425.396 502.555 423.998C502.555 422.552 502.736 421.226 503.097 420.021C503.483 418.792 504.037 417.719 504.76 416.803C505.483 415.887 506.363 415.188 507.399 414.706C508.46 414.2 509.677 413.947 511.051 413.947C512.208 413.947 513.268 414.152 514.232 414.562C515.197 414.947 516.028 415.55 516.727 416.369C517.426 417.189 517.956 418.237 518.318 419.515C518.679 420.768 518.836 422.262 518.788 423.998L504.182 424.106V422.045L517.125 421.937L516.221 423.492C516.317 421.901 516.149 420.575 515.715 419.515C515.305 418.454 514.69 417.659 513.871 417.128C513.076 416.598 512.123 416.333 511.015 416.333C509.834 416.333 508.797 416.634 507.906 417.237C507.038 417.839 506.363 418.719 505.881 419.876C505.399 421.009 505.158 422.371 505.158 423.962C505.158 426.251 505.664 428.023 506.676 429.276C507.713 430.505 509.279 431.12 511.376 431.12C512.172 431.12 512.871 431.036 513.473 430.867C514.076 430.674 514.582 430.409 514.992 430.072C515.426 429.734 515.787 429.336 516.076 428.878C516.366 428.421 516.582 427.914 516.727 427.36L519.077 427.938C518.836 428.806 518.487 429.589 518.029 430.288C517.595 430.963 517.052 431.542 516.402 432.024C515.751 432.482 515.004 432.831 514.16 433.072C513.317 433.313 512.364 433.434 511.304 433.434ZM521.526 438.785V423.672V414.381H524.021L523.804 419.045H524.31C524.623 418.056 525.033 417.189 525.539 416.442C526.045 415.67 526.696 415.068 527.492 414.634C528.287 414.176 529.275 413.947 530.456 413.947C532.167 413.947 533.59 414.381 534.722 415.248C535.855 416.116 536.699 417.285 537.253 418.755C537.807 420.226 538.085 421.865 538.085 423.672C538.085 425.552 537.795 427.227 537.217 428.698C536.638 430.168 535.795 431.325 534.686 432.168C533.577 433.012 532.228 433.434 530.637 433.434C529.287 433.434 528.178 433.157 527.311 432.602C526.467 432.024 525.792 431.289 525.286 430.397C524.804 429.481 524.431 428.565 524.165 427.649H523.623C523.744 428.324 523.84 429.023 523.912 429.746C524.009 430.445 524.081 431.144 524.129 431.843C524.177 432.518 524.202 433.181 524.202 433.832V438.785H521.526ZM530.131 431.012C531.264 431.012 532.216 430.686 532.987 430.035C533.758 429.385 534.337 428.505 534.722 427.396C535.108 426.263 535.301 424.986 535.301 423.564C535.301 422.094 535.096 420.828 534.686 419.768C534.301 418.707 533.722 417.876 532.951 417.273C532.18 416.671 531.252 416.369 530.167 416.369C529.251 416.369 528.432 416.586 527.708 417.02C526.985 417.43 526.359 417.984 525.828 418.683C525.298 419.382 524.888 420.141 524.599 420.961C524.334 421.78 524.202 422.612 524.202 423.455V423.817C524.202 424.299 524.274 424.853 524.418 425.48C524.563 426.107 524.792 426.745 525.105 427.396C525.419 428.047 525.804 428.649 526.262 429.204C526.72 429.758 527.275 430.204 527.925 430.542C528.576 430.855 529.311 431.012 530.131 431.012ZM547.694 433.434C546.392 433.434 545.235 433.289 544.223 433C543.235 432.711 542.403 432.301 541.728 431.771C541.078 431.241 540.583 430.602 540.246 429.855C539.933 429.107 539.788 428.288 539.812 427.396L542.198 426.962C542.102 427.854 542.271 428.613 542.704 429.24C543.162 429.867 543.825 430.349 544.693 430.686C545.561 430.999 546.609 431.156 547.838 431.156C549.381 431.156 550.574 430.891 551.418 430.361C552.261 429.831 552.683 429.095 552.683 428.155C552.683 427.432 552.442 426.866 551.96 426.456C551.502 426.046 550.863 425.721 550.044 425.48C549.248 425.239 548.32 425.022 547.26 424.829C546.392 424.636 545.537 424.419 544.693 424.178C543.849 423.913 543.078 423.588 542.379 423.202C541.704 422.817 541.162 422.323 540.752 421.72C540.342 421.093 540.138 420.31 540.138 419.37C540.138 418.237 540.427 417.273 541.005 416.478C541.584 415.682 542.415 415.068 543.5 414.634C544.584 414.176 545.874 413.947 547.368 413.947C548.887 413.947 550.164 414.188 551.201 414.67C552.261 415.152 553.081 415.827 553.659 416.695C554.238 417.562 554.551 418.575 554.599 419.732L552.177 420.238C552.177 419.346 551.972 418.611 551.562 418.032C551.152 417.43 550.574 416.984 549.827 416.695C549.08 416.405 548.2 416.261 547.188 416.261C545.814 416.261 544.717 416.526 543.898 417.056C543.102 417.586 542.704 418.309 542.704 419.225C542.704 419.924 542.933 420.491 543.391 420.925C543.873 421.334 544.512 421.66 545.308 421.901C546.103 422.118 546.983 422.323 547.947 422.515C548.911 422.708 549.827 422.925 550.694 423.166C551.562 423.407 552.333 423.721 553.008 424.106C553.707 424.492 554.25 424.998 554.635 425.625C555.045 426.251 555.25 427.047 555.25 428.011C555.25 429.24 554.924 430.264 554.274 431.084C553.647 431.879 552.767 432.47 551.634 432.855C550.502 433.241 549.188 433.434 547.694 433.434ZM570.414 433.362C568.799 433.362 567.594 432.916 566.799 432.024C566.027 431.132 565.642 429.806 565.642 428.047V416.695H562.822V414.381H564.521C565.075 414.381 565.473 414.284 565.714 414.092C565.979 413.875 566.136 413.525 566.184 413.043L566.509 410.187H568.209V414.381H573.776V416.731H568.209V428.047C568.209 429.035 568.437 429.758 568.895 430.216C569.353 430.65 570.004 430.867 570.848 430.867C571.306 430.867 571.788 430.807 572.294 430.686C572.8 430.542 573.33 430.264 573.885 429.855V432.638C573.21 432.879 572.583 433.06 572.005 433.181C571.426 433.301 570.896 433.362 570.414 433.362ZM583.453 433.434C581.694 433.434 580.139 433.048 578.789 432.277C577.464 431.482 576.427 430.361 575.68 428.915C574.957 427.444 574.596 425.673 574.596 423.6C574.596 421.431 574.981 419.635 575.753 418.213C576.548 416.791 577.608 415.731 578.934 415.032C580.26 414.308 581.73 413.947 583.345 413.947C585.008 413.947 586.502 414.333 587.828 415.104C589.178 415.851 590.238 416.96 591.009 418.43C591.805 419.876 592.203 421.66 592.203 423.781C592.203 425.902 591.817 427.685 591.046 429.132C590.274 430.554 589.226 431.626 587.9 432.349C586.575 433.072 585.092 433.434 583.453 433.434ZM583.562 431.12C584.791 431.12 585.851 430.819 586.743 430.216C587.635 429.614 588.322 428.77 588.804 427.685C589.286 426.577 589.527 425.287 589.527 423.817C589.527 422.298 589.274 420.985 588.768 419.876C588.262 418.743 587.539 417.876 586.599 417.273C585.683 416.646 584.574 416.333 583.273 416.333C582.067 416.333 581.019 416.622 580.127 417.201C579.235 417.755 578.536 418.575 578.03 419.659C577.524 420.72 577.271 422.009 577.271 423.528C577.271 425.866 577.837 427.722 578.97 429.095C580.103 430.445 581.634 431.12 583.562 431.12ZM608.966 433.434C607.665 433.434 606.508 433.289 605.495 433C604.507 432.711 603.676 432.301 603.001 431.771C602.35 431.241 601.856 430.602 601.518 429.855C601.205 429.107 601.06 428.288 601.085 427.396L603.471 426.962C603.374 427.854 603.543 428.613 603.977 429.24C604.435 429.867 605.098 430.349 605.965 430.686C606.833 430.999 607.881 431.156 609.111 431.156C610.653 431.156 611.846 430.891 612.69 430.361C613.534 429.831 613.955 429.095 613.955 428.155C613.955 427.432 613.714 426.866 613.232 426.456C612.774 426.046 612.136 425.721 611.316 425.48C610.521 425.239 609.593 425.022 608.532 424.829C607.665 424.636 606.809 424.419 605.965 424.178C605.122 423.913 604.35 423.588 603.651 423.202C602.977 422.817 602.434 422.323 602.025 421.72C601.615 421.093 601.41 420.31 601.41 419.37C601.41 418.237 601.699 417.273 602.278 416.478C602.856 415.682 603.688 415.068 604.772 414.634C605.857 414.176 607.146 413.947 608.641 413.947C610.159 413.947 611.437 414.188 612.473 414.67C613.534 415.152 614.353 415.827 614.931 416.695C615.51 417.562 615.823 418.575 615.871 419.732L613.449 420.238C613.449 419.346 613.244 418.611 612.835 418.032C612.425 417.43 611.846 416.984 611.099 416.695C610.352 416.405 609.472 416.261 608.46 416.261C607.086 416.261 605.989 416.526 605.17 417.056C604.375 417.586 603.977 418.309 603.977 419.225C603.977 419.924 604.206 420.491 604.664 420.925C605.146 421.334 605.785 421.66 606.58 421.901C607.375 422.118 608.255 422.323 609.219 422.515C610.183 422.708 611.099 422.925 611.967 423.166C612.835 423.407 613.606 423.721 614.281 424.106C614.98 424.492 615.522 424.998 615.908 425.625C616.317 426.251 616.522 427.047 616.522 428.011C616.522 429.24 616.197 430.264 615.546 431.084C614.919 431.879 614.04 432.47 612.907 432.855C611.774 433.241 610.46 433.434 608.966 433.434ZM624.459 433.362C622.845 433.362 621.639 432.916 620.844 432.024C620.073 431.132 619.687 429.806 619.687 428.047V416.695H616.867V414.381H618.566C619.121 414.381 619.518 414.284 619.759 414.092C620.025 413.875 620.181 413.525 620.229 413.043L620.555 410.187H622.254V414.381H627.822V416.731H622.254V428.047C622.254 429.035 622.483 429.758 622.941 430.216C623.399 430.65 624.05 430.867 624.893 430.867C625.351 430.867 625.833 430.807 626.339 430.686C626.846 430.542 627.376 430.264 627.93 429.855V432.638C627.255 432.879 626.629 433.06 626.05 433.181C625.472 433.301 624.941 433.362 624.459 433.362ZM634.237 433.434C633.224 433.434 632.308 433.253 631.489 432.892C630.669 432.506 630.019 431.915 629.537 431.12C629.054 430.325 628.813 429.336 628.813 428.155C628.813 427.312 628.958 426.553 629.247 425.878C629.561 425.203 630.043 424.624 630.693 424.142C631.344 423.636 632.212 423.214 633.297 422.877C634.381 422.539 635.707 422.274 637.273 422.082C638.238 421.961 639.009 421.841 639.587 421.72C640.166 421.575 640.588 421.371 640.853 421.105C641.142 420.816 641.287 420.382 641.287 419.804C641.287 418.816 640.949 417.984 640.274 417.309C639.599 416.61 638.539 416.261 637.093 416.261C636.394 416.261 635.659 416.381 634.887 416.622C634.116 416.863 633.441 417.285 632.863 417.888C632.284 418.49 631.923 419.346 631.778 420.455L629.283 419.551C629.452 418.707 629.741 417.948 630.151 417.273C630.561 416.598 631.103 416.008 631.778 415.502C632.453 414.995 633.236 414.61 634.128 414.345C635.044 414.079 636.056 413.947 637.165 413.947C638.683 413.947 639.937 414.2 640.925 414.706C641.937 415.212 642.684 415.996 643.167 417.056C643.673 418.093 643.926 419.43 643.926 421.069V425.516C643.926 426.239 643.938 427.047 643.962 427.938C644.01 428.806 644.07 429.686 644.143 430.578C644.215 431.445 644.287 432.253 644.36 433H641.865C641.793 432.181 641.732 431.385 641.684 430.614C641.636 429.843 641.6 429.071 641.576 428.3H641.142C640.804 429.192 640.334 430.035 639.732 430.831C639.129 431.602 638.37 432.229 637.454 432.711C636.562 433.193 635.49 433.434 634.237 433.434ZM634.815 431.156C635.345 431.156 635.9 431.072 636.478 430.903C637.057 430.71 637.635 430.421 638.213 430.035C638.792 429.626 639.334 429.095 639.84 428.445C640.371 427.77 640.865 426.962 641.323 426.022V422.226L642.335 422.407C641.949 422.817 641.419 423.13 640.744 423.347C640.093 423.54 639.358 423.696 638.539 423.817C637.719 423.937 636.888 424.07 636.044 424.215C635.225 424.359 634.466 424.576 633.767 424.865C633.092 425.131 632.537 425.516 632.103 426.022C631.694 426.504 631.489 427.179 631.489 428.047C631.489 429.083 631.79 429.867 632.393 430.397C633.019 430.903 633.827 431.156 634.815 431.156ZM647.577 433V422.552V414.381H650.108L649.71 420.925H650.289C650.53 419.575 650.867 418.382 651.301 417.345C651.759 416.285 652.362 415.453 653.109 414.851C653.856 414.248 654.76 413.947 655.82 413.947C656.086 413.947 656.387 413.971 656.724 414.019C657.062 414.043 657.435 414.128 657.845 414.272L657.664 417.056C657.327 416.936 656.977 416.839 656.616 416.767C656.278 416.695 655.953 416.658 655.64 416.658C654.676 416.658 653.856 416.996 653.181 417.671C652.506 418.322 651.928 419.201 651.446 420.31C650.988 421.395 650.59 422.6 650.253 423.925V433H647.577ZM665.912 433.362C664.297 433.362 663.092 432.916 662.296 432.024C661.525 431.132 661.139 429.806 661.139 428.047V416.695H658.319V414.381H660.019C660.573 414.381 660.971 414.284 661.212 414.092C661.477 413.875 661.633 413.525 661.682 413.043L662.007 410.187H663.706V414.381H669.274V416.731H663.706V428.047C663.706 429.035 663.935 429.758 664.393 430.216C664.851 430.65 665.502 430.867 666.345 430.867C666.803 430.867 667.285 430.807 667.792 430.686C668.298 430.542 668.828 430.264 669.382 429.855V432.638C668.707 432.879 668.081 433.06 667.502 433.181C666.924 433.301 666.394 433.362 665.912 433.362ZM686.422 433.434C684.976 433.434 683.711 433.217 682.626 432.783C681.542 432.325 680.626 431.674 679.879 430.831C679.131 429.987 678.577 428.987 678.215 427.83C677.854 426.673 677.673 425.396 677.673 423.998C677.673 422.552 677.854 421.226 678.215 420.021C678.601 418.792 679.155 417.719 679.879 416.803C680.602 415.887 681.481 415.188 682.518 414.706C683.578 414.2 684.795 413.947 686.169 413.947C687.326 413.947 688.387 414.152 689.351 414.562C690.315 414.947 691.147 415.55 691.845 416.369C692.544 417.189 693.075 418.237 693.436 419.515C693.798 420.768 693.954 422.262 693.906 423.998L679.3 424.106V422.045L692.243 421.937L691.339 423.492C691.436 421.901 691.267 420.575 690.833 419.515C690.423 418.454 689.809 417.659 688.989 417.128C688.194 416.598 687.242 416.333 686.133 416.333C684.952 416.333 683.916 416.634 683.024 417.237C682.156 417.839 681.481 418.719 680.999 419.876C680.517 421.009 680.276 422.371 680.276 423.962C680.276 426.251 680.782 428.023 681.795 429.276C682.831 430.505 684.398 431.12 686.495 431.12C687.29 431.12 687.989 431.036 688.592 430.867C689.194 430.674 689.7 430.409 690.11 430.072C690.544 429.734 690.905 429.336 691.195 428.878C691.484 428.421 691.701 427.914 691.845 427.36L694.195 427.938C693.954 428.806 693.605 429.589 693.147 430.288C692.713 430.963 692.171 431.542 691.52 432.024C690.869 432.482 690.122 432.831 689.279 433.072C688.435 433.313 687.483 433.434 686.422 433.434ZM701.052 433.434C700.04 433.434 699.124 433.253 698.304 432.892C697.485 432.506 696.834 431.915 696.352 431.12C695.87 430.325 695.629 429.336 695.629 428.155C695.629 427.312 695.774 426.553 696.063 425.878C696.376 425.203 696.858 424.624 697.509 424.142C698.16 423.636 699.027 423.214 700.112 422.877C701.197 422.539 702.522 422.274 704.089 422.082C705.053 421.961 705.824 421.841 706.403 421.72C706.981 421.575 707.403 421.371 707.668 421.105C707.957 420.816 708.102 420.382 708.102 419.804C708.102 418.816 707.765 417.984 707.09 417.309C706.415 416.61 705.354 416.261 703.908 416.261C703.209 416.261 702.474 416.381 701.703 416.622C700.932 416.863 700.257 417.285 699.678 417.888C699.1 418.49 698.738 419.346 698.594 420.455L696.099 419.551C696.268 418.707 696.557 417.948 696.967 417.273C697.376 416.598 697.919 416.008 698.594 415.502C699.268 414.995 700.052 414.61 700.944 414.345C701.86 414.079 702.872 413.947 703.981 413.947C705.499 413.947 706.752 414.2 707.741 414.706C708.753 415.212 709.5 415.996 709.982 417.056C710.488 418.093 710.741 419.43 710.741 421.069V425.516C710.741 426.239 710.753 427.047 710.777 427.938C710.826 428.806 710.886 429.686 710.958 430.578C711.031 431.445 711.103 432.253 711.175 433H708.681C708.608 432.181 708.548 431.385 708.5 430.614C708.452 429.843 708.415 429.071 708.391 428.3H707.957C707.62 429.192 707.15 430.035 706.547 430.831C705.945 431.602 705.186 432.229 704.27 432.711C703.378 433.193 702.305 433.434 701.052 433.434ZM701.631 431.156C702.161 431.156 702.715 431.072 703.294 430.903C703.872 430.71 704.451 430.421 705.029 430.035C705.607 429.626 706.15 429.095 706.656 428.445C707.186 427.77 707.68 426.962 708.138 426.022V422.226L709.151 422.407C708.765 422.817 708.235 423.13 707.56 423.347C706.909 423.54 706.174 423.696 705.354 423.817C704.535 423.937 703.703 424.07 702.86 424.215C702.04 424.359 701.281 424.576 700.582 424.865C699.907 425.131 699.353 425.516 698.919 426.022C698.509 426.504 698.304 427.179 698.304 428.047C698.304 429.083 698.606 429.867 699.208 430.397C699.835 430.903 700.642 431.156 701.631 431.156ZM714.393 433V422.552V414.381H716.924L716.526 420.925H717.104C717.345 419.575 717.683 418.382 718.117 417.345C718.575 416.285 719.177 415.453 719.924 414.851C720.672 414.248 721.575 413.947 722.636 413.947C722.901 413.947 723.202 413.971 723.54 414.019C723.877 414.043 724.251 414.128 724.66 414.272L724.48 417.056C724.142 416.936 723.793 416.839 723.431 416.767C723.094 416.695 722.768 416.658 722.455 416.658C721.491 416.658 720.672 416.996 719.997 417.671C719.322 418.322 718.743 419.201 718.261 420.31C717.803 421.395 717.406 422.6 717.068 423.925V433H714.393ZM726.174 433V421.358V414.381H728.741L728.307 420.382H728.85C729.211 418.912 729.669 417.707 730.223 416.767C730.802 415.803 731.525 415.092 732.393 414.634C733.26 414.176 734.261 413.947 735.393 413.947C737.418 413.947 738.949 414.682 739.985 416.152C741.045 417.598 741.576 419.732 741.576 422.552V433H738.9V422.732C738.9 420.587 738.551 418.996 737.852 417.96C737.177 416.924 736.165 416.405 734.815 416.405C733.634 416.405 732.598 416.791 731.706 417.562C730.838 418.334 730.163 419.346 729.681 420.599C729.199 421.828 728.922 423.154 728.85 424.576V433H726.174ZM745.124 433V414.381H747.799V433H745.124ZM746.461 410.982C745.786 410.982 745.28 410.85 744.943 410.585C744.605 410.295 744.437 409.874 744.437 409.319C744.437 408.789 744.605 408.379 744.943 408.09C745.28 407.801 745.774 407.656 746.425 407.656C747.1 407.656 747.606 407.801 747.944 408.09C748.305 408.355 748.486 408.765 748.486 409.319C748.486 409.874 748.305 410.295 747.944 410.585C747.606 410.85 747.112 410.982 746.461 410.982ZM751.608 433V421.358V414.381H754.175L753.741 420.382H754.284C754.645 418.912 755.103 417.707 755.657 416.767C756.236 415.803 756.959 415.092 757.827 414.634C758.694 414.176 759.695 413.947 760.827 413.947C762.852 413.947 764.383 414.682 765.419 416.152C766.479 417.598 767.01 419.732 767.01 422.552V433H764.334V422.732C764.334 420.587 763.985 418.996 763.286 417.96C762.611 416.924 761.599 416.405 760.249 416.405C759.068 416.405 758.032 416.791 757.14 417.562C756.272 418.334 755.597 419.346 755.115 420.599C754.633 421.828 754.356 423.154 754.284 424.576V433H751.608ZM777.318 439.255C775.39 439.255 773.799 439.098 772.546 438.785C771.317 438.495 770.401 438.037 769.798 437.411C769.196 436.808 768.895 436.049 768.895 435.133C768.895 434.024 769.328 433.121 770.196 432.422C771.064 431.698 772.389 431.192 774.173 430.903V430.252C772.871 430.276 771.907 430.132 771.281 429.818C770.678 429.481 770.377 429.011 770.377 428.408C770.377 427.758 770.69 427.215 771.317 426.782C771.968 426.348 772.992 425.938 774.39 425.552V424.902C772.944 424.902 771.847 424.468 771.1 423.6C770.353 422.732 769.979 421.624 769.979 420.274C769.979 419.021 770.305 417.948 770.955 417.056C771.63 416.164 772.582 415.489 773.811 415.032C775.065 414.549 776.535 414.308 778.222 414.308H786.755V416.695L781.078 415.791V416.442C782.428 416.755 783.477 417.285 784.224 418.032C784.995 418.755 785.381 419.719 785.381 420.925C785.381 421.961 785.079 422.877 784.477 423.672C783.898 424.444 783.019 425.046 781.838 425.48C780.681 425.89 779.247 426.095 777.535 426.095C777.198 426.095 776.836 426.083 776.451 426.058C776.089 426.01 775.643 425.938 775.113 425.842C774.39 426.275 773.811 426.673 773.378 427.035C772.944 427.372 772.727 427.697 772.727 428.011C772.727 428.3 772.932 428.529 773.341 428.698C773.775 428.866 774.294 428.987 774.896 429.059C775.523 429.107 776.089 429.132 776.595 429.132H780.428C780.91 429.132 781.512 429.18 782.235 429.276C782.958 429.373 783.681 429.577 784.405 429.891C785.128 430.204 785.73 430.686 786.212 431.337C786.718 431.964 786.971 432.831 786.971 433.94C786.971 435.217 786.586 436.242 785.815 437.013C785.043 437.808 783.947 438.375 782.525 438.712C781.102 439.074 779.367 439.255 777.318 439.255ZM777.246 437.013C778.885 437.013 780.235 436.905 781.295 436.688C782.356 436.471 783.139 436.121 783.645 435.639C784.176 435.181 784.441 434.591 784.441 433.868C784.441 433.193 784.26 432.675 783.898 432.313C783.537 431.927 783.091 431.662 782.561 431.518C782.03 431.349 781.488 431.253 780.934 431.228C780.404 431.18 779.946 431.156 779.56 431.156H775.475C773.932 431.542 772.884 432.024 772.329 432.602C771.799 433.181 771.534 433.795 771.534 434.446C771.534 435.169 771.787 435.712 772.293 436.073C772.823 436.435 773.522 436.676 774.39 436.796C775.282 436.941 776.234 437.013 777.246 437.013ZM777.825 424.178C779.464 424.178 780.705 423.853 781.548 423.202C782.392 422.552 782.814 421.66 782.814 420.527C782.814 419.346 782.38 418.37 781.512 417.598C780.669 416.827 779.391 416.442 777.68 416.442C776.041 416.442 774.788 416.815 773.92 417.562C773.052 418.285 772.618 419.225 772.618 420.382C772.618 421.154 772.811 421.828 773.197 422.407C773.607 422.961 774.197 423.395 774.968 423.708C775.74 424.022 776.692 424.178 777.825 424.178ZM789.695 427.324L788.827 409.102H792.225L791.358 427.324H789.695ZM790.49 433.398C789.839 433.398 789.345 433.253 789.008 432.964C788.694 432.675 788.538 432.217 788.538 431.59C788.538 430.939 788.694 430.469 789.008 430.18C789.345 429.891 789.839 429.746 790.49 429.746C791.165 429.746 791.671 429.891 792.008 430.18C792.346 430.469 792.515 430.939 792.515 431.59C792.515 432.795 791.84 433.398 790.49 433.398ZM793.498 415.285C793.932 414.176 794.233 413.188 794.402 412.32C794.595 411.452 794.703 410.657 794.727 409.934C794.775 409.187 794.799 408.5 794.799 407.873H797.402C797.402 408.982 797.318 409.994 797.149 410.91C797.005 411.826 796.8 412.645 796.535 413.368C796.294 414.092 796.041 414.73 795.776 415.285H793.498ZM798.74 415.285C799.174 414.176 799.475 413.188 799.644 412.32C799.837 411.452 799.945 410.657 799.969 409.934C800.018 409.187 800.042 408.5 800.042 407.873H802.645C802.645 408.982 802.56 409.994 802.392 410.91C802.247 411.826 802.042 412.645 801.777 413.368C801.536 414.092 801.283 414.73 801.018 415.285H798.74Z" fill="black"/>
<path d="M816.603 390V361.366H828.664C830.428 361.366 832.019 361.525 833.436 361.843C834.853 362.133 836.054 362.595 837.037 363.232C838.049 363.839 838.816 364.62 839.337 365.574C839.857 366.529 840.117 367.657 840.117 368.958C840.117 370.115 839.872 371.128 839.38 371.995C838.917 372.863 838.165 373.572 837.124 374.121C836.112 374.642 834.752 374.974 833.046 375.119V375.77C835.88 375.914 837.963 376.58 839.293 377.766C840.624 378.951 841.289 380.528 841.289 382.494C841.289 384.172 840.841 385.56 839.944 386.659C839.076 387.758 837.789 388.597 836.083 389.176C834.376 389.725 832.265 390 829.749 390H816.603ZM823.371 384.403H829.445C831.122 384.403 832.366 384.158 833.176 383.666C834.015 383.145 834.434 382.35 834.434 381.28C834.434 380.094 833.942 379.212 832.959 378.633C831.976 378.055 830.501 377.766 828.534 377.766H823.371V384.403ZM823.371 373.34H827.666C829.575 373.34 830.992 373.066 831.918 372.516C832.843 371.938 833.306 371.099 833.306 370C833.306 368.93 832.872 368.149 832.005 367.657C831.166 367.136 829.893 366.876 828.187 366.876H823.371V373.34ZM850.46 390.607C847.828 390.607 845.847 389.711 844.517 387.918C843.215 386.124 842.564 383.377 842.564 379.674V367.093H849.593V379.024C849.593 381.019 849.882 382.48 850.46 383.406C851.039 384.302 851.907 384.75 853.063 384.75C853.787 384.75 854.423 384.562 854.972 384.186C855.522 383.81 855.985 383.275 856.361 382.581C856.766 381.887 857.069 381.048 857.272 380.065C857.474 379.082 857.575 377.982 857.575 376.768V367.093H864.604V380.369V390H858.877L858.79 382.278H858.139C857.792 384.215 857.301 385.806 856.664 387.05C856.028 388.265 855.204 389.161 854.191 389.74C853.179 390.318 851.935 390.607 850.46 390.607ZM876.566 390.607C875.033 390.607 873.631 390.463 872.358 390.174C871.085 389.884 869.972 389.465 869.017 388.915C868.092 388.337 867.34 387.614 866.761 386.746C866.212 385.85 865.879 384.823 865.764 383.666L871.317 382.017C871.461 382.682 871.765 383.29 872.228 383.839C872.691 384.389 873.313 384.823 874.093 385.141C874.874 385.43 875.829 385.575 876.957 385.575C878.027 385.575 878.88 385.416 879.517 385.098C880.182 384.779 880.514 384.288 880.514 383.622C880.514 383.189 880.355 382.842 880.037 382.581C879.719 382.321 879.213 382.09 878.519 381.887C877.825 381.656 876.928 381.424 875.829 381.193C874.614 380.904 873.428 380.6 872.271 380.282C871.114 379.935 870.073 379.501 869.148 378.98C868.222 378.431 867.485 377.737 866.935 376.898C866.385 376.059 866.111 375.003 866.111 373.731C866.111 372.256 866.501 370.983 867.282 369.913C868.092 368.843 869.234 368.004 870.709 367.397C872.213 366.789 874.007 366.486 876.089 366.486C877.94 366.486 879.603 366.746 881.078 367.266C882.553 367.758 883.754 368.525 884.679 369.566C885.634 370.578 886.198 371.88 886.371 373.47L880.645 374.902C880.587 374.208 880.355 373.615 879.95 373.123C879.545 372.603 879.01 372.212 878.345 371.952C877.68 371.663 876.899 371.518 876.002 371.518C874.932 371.518 874.093 371.706 873.486 372.082C872.908 372.429 872.618 372.878 872.618 373.427C872.618 373.89 872.806 374.28 873.182 374.598C873.587 374.888 874.166 375.134 874.918 375.336C875.67 375.538 876.595 375.77 877.694 376.03C878.765 376.233 879.849 376.493 880.948 376.811C882.047 377.129 883.06 377.549 883.985 378.069C884.911 378.561 885.648 379.241 886.198 380.108C886.747 380.947 887.022 382.017 887.022 383.319C887.022 384.794 886.617 386.081 885.807 387.18C884.997 388.279 883.812 389.132 882.25 389.74C880.717 390.318 878.822 390.607 876.566 390.607ZM886.003 390L895.678 361.366H905.526L915.201 390H907.565L900.884 366.919H900.32L893.596 390H886.003ZM891.643 384.75V379.935H910.516V384.75H891.643ZM916.01 390V361.366H923.082V390H916.01Z" fill="#FF66C8"/>
<rect x="351" y="289" width="73" height="50" rx="25" fill="#111111"/>
<rect x="560" y="289" width="73" height="50" rx="25" fill="#111111"/>
<path d="M345.759 259.744L345.757 259.745C337.97 261.503 332.818 263.554 329.183 267.187C325.549 270.82 323.499 275.97 321.745 283.757C321.463 284.997 319.71 284.984 319.438 283.759L319.438 283.757C317.679 275.97 315.629 270.818 311.996 267.183C308.363 263.549 303.213 261.499 295.426 259.745C294.185 259.463 294.198 257.71 295.424 257.438L295.426 257.438C303.213 255.679 308.365 253.629 311.999 249.996C315.634 246.363 317.684 241.213 319.438 233.426C319.72 232.185 321.473 232.198 321.744 233.424L321.745 233.426C323.503 241.213 325.554 246.365 329.187 249.999C332.82 253.634 337.97 255.684 345.757 257.438C346.997 257.72 346.984 259.473 345.759 259.744Z" fill="#FFF746" stroke="black"/>
<path d="M304.499 216.819L304.501 216.819C304.737 216.766 304.75 216.421 304.499 216.364C301.093 215.597 298.781 214.689 297.139 213.045C295.496 211.402 294.588 209.089 293.819 205.684L293.819 205.682C293.766 205.446 293.421 205.433 293.364 205.684C292.596 209.09 291.689 211.401 290.045 213.044C288.402 214.687 286.089 215.595 282.684 216.364L282.682 216.364C282.446 216.417 282.433 216.762 282.684 216.819C282.684 216.819 282.684 216.819 282.684 216.819L282.573 217.307C289.345 218.832 291.347 220.838 292.876 227.609L304.499 216.819ZM304.499 216.819C301.093 217.588 298.781 218.496 297.137 220.139C295.494 221.781 294.586 224.093 293.819 227.499L304.499 216.819Z" fill="#FFF746" stroke="black"/>
<path d="M694.907 150.559L694.905 150.56C687.995 152.12 683.41 153.942 680.174 157.177C676.938 160.412 675.116 164.995 673.559 171.906C673.322 172.948 671.851 172.935 671.624 171.907L671.623 171.905C670.062 164.995 668.241 160.41 665.006 157.174C661.771 153.938 657.188 152.116 650.277 150.56C649.235 150.323 649.248 148.851 650.275 148.624L650.277 148.623C657.188 147.062 661.772 145.241 665.009 142.006C668.245 138.771 670.066 134.188 671.623 127.277C671.86 126.235 673.331 126.248 673.559 127.275L673.56 127.277C675.12 134.188 676.942 138.772 680.177 142.009C683.412 145.245 687.995 147.066 694.906 148.623C695.948 148.86 695.935 150.331 694.907 150.559Z" fill="#FFF746" stroke="black"/>
</g>
<path d="M0 0H996H0ZM996 476C996 494.778 980.778 510 962 510H34C15.2223 510 0 494.778 0 476C0 483.732 10.7452 490 24 490H972C985.255 490 996 483.732 996 476ZM0 500V0V500ZM996 0V500V0Z" fill="black" mask="url(#path-1-inside-1_927_3771)"/>
<defs>
<radialGradient id="paint0_radial_927_3771" cx="0" cy="0" r="1" gradientUnits="userSpaceOnUse" gradientTransform="translate(483.386 237.043) scale(895.076 846.146)">
<stop stop-color="white"/>
<stop offset="1" stop-color="white" stop-opacity="0"/>
</radialGradient>
<clipPath id="clip0_927_3771">
<path d="M0 24C0 10.7452 10.7452 0 24 0H972C985.255 0 996 10.7452 996 24V476C996 489.255 985.255 500 972 500H24C10.7452 500 0 489.255 0 476V24Z" fill="white"/>
</clipPath>
</defs>
</svg>
