<svg width="996" height="500" viewBox="0 0 996 500" fill="none" xmlns="http://www.w3.org/2000/svg">
<g clip-path="url(#clip0_935_13693)">
<mask id="path-1-inside-1_935_13693" fill="white">
<path d="M0 24C0 10.7452 10.7452 0 24 0H972C985.255 0 996 10.7452 996 24V476C996 489.255 985.255 500 972 500H24C10.7452 500 0 489.255 0 476V24Z"/>
</mask>
<path d="M0 24C0 10.7452 10.7452 0 24 0H972C985.255 0 996 10.7452 996 24V476C996 489.255 985.255 500 972 500H24C10.7452 500 0 489.255 0 476V24Z" fill="#FFD600"/>
<path d="M773 400.979L619.319 357.78L677.338 458.604L617.295 406.235L634.597 495.268L545.029 389.216L491.077 528.009L458 479.564L316.026 693L391.33 493.963L287.532 560.75L359.798 437.662L288.407 452.355L322.138 400.997L175.571 406.244L294.656 337.776L244.791 327.484L295.668 280.537L143 267.442L278.366 218.997L182.704 84.1188L394.394 131.268V43.5304L444.02 106.393L451.392 52.7012L488.022 127.345L535.862 -3.60063L547.053 57.9482L622.357 -18L610.153 19.9695L660.027 -10.1525L610.153 52.7104L737.373 35.6921L610.153 109.021L682.925 132.592L592.859 192.817L772.991 208.531L639.668 258.299L679.354 288.412L629.489 294.964L772.991 401.015L773 400.979Z" fill="#FFF746"/>
<path d="M590.771 153.789C615.773 160.563 641.533 145.785 648.308 120.781C655.083 95.7771 640.307 70.0156 615.305 63.2412C590.303 56.4668 564.543 71.2449 557.768 96.249C550.993 121.253 565.769 147.015 590.771 153.789Z" fill="black"/>
<path d="M343.2 161.354C368.535 155.954 384.697 131.037 379.299 105.701C373.901 80.3644 348.987 64.2023 323.652 69.602C298.317 75.0016 282.155 99.9182 287.553 125.255C292.952 150.591 317.865 166.753 343.2 161.354Z" fill="black"/>
<path d="M674.623 272.335C675.363 362.68 575.482 409.927 466.961 410.834C358.436 411.756 282.164 365.911 281.448 275.689C280.708 185.344 367.997 90.746 476.509 89.8211C585.034 88.8997 673.894 182.11 674.613 272.318L674.623 272.335Z" fill="white" stroke="black" stroke-width="2" stroke-linecap="round" stroke-linejoin="round"/>
<path d="M472.316 277.77C495.31 278.513 514.521 261.457 515.225 239.676C515.929 217.894 497.86 199.635 474.866 198.892C451.872 198.15 432.662 215.205 431.957 236.987C431.253 258.768 449.322 277.028 472.316 277.77Z" fill="white"/>
<path d="M474.546 394.728C551.635 393.234 613.397 354.259 612.496 307.676C611.595 261.094 548.372 224.542 471.283 226.037C394.194 227.532 332.432 266.506 333.333 313.089C334.234 359.672 397.457 396.223 474.546 394.728Z" fill="white"/>
<path d="M543.054 156.449L519.966 163.908C514.118 165.856 507.756 162.618 505.967 156.769C504.019 150.92 507.257 144.558 513.106 142.768L536.194 135.31C542.042 133.362 548.403 136.599 550.193 142.449C552.141 148.298 548.903 154.66 543.054 156.449Z" fill="black"/>
<path d="M391.764 164.068L412.671 171.045C417.971 172.77 423.75 169.909 425.475 164.608C427.2 159.307 424.339 153.528 419.038 151.803L398.132 144.826C392.831 143.101 387.052 145.963 385.328 151.264C383.568 156.425 386.426 162.218 391.764 164.068Z" fill="black"/>
<path d="M537.952 319.448C574.454 329.338 612.062 307.763 621.953 271.258C631.844 234.754 610.272 197.144 573.771 187.253C537.27 177.363 499.661 198.938 489.77 235.443C479.879 271.947 501.451 309.558 537.952 319.448Z" fill="black"/>
<path d="M374.35 318.007C408.181 327.174 443.037 307.177 452.205 273.344C461.372 239.51 441.379 204.652 407.548 195.486C373.718 186.319 338.861 206.316 329.694 240.149C320.527 273.982 340.52 308.841 374.35 318.007Z" fill="black"/>
<path d="M476.587 365.855C506.789 363.616 529.675 340.236 527.704 313.634C525.733 287.033 499.651 267.284 469.449 269.524C439.247 271.764 416.362 295.144 418.333 321.745C420.304 348.346 446.385 368.095 476.587 365.855Z" fill="white" stroke="black" stroke-width="2" stroke-linecap="round" stroke-linejoin="round"/>
<path d="M487.49 289.567C488.635 296.568 481.842 307.75 471.645 309.515C461.452 311.267 451.475 302.535 450.316 295.53C449.157 288.525 456.606 281.415 466.851 279.793C477.096 278.17 486.341 282.579 487.486 289.58L487.49 289.567Z" fill="black"/>
<path d="M315.643 353.292L302.565 358.216C282.948 365.602 273.031 387.493 280.416 407.112L285.339 420.19C292.723 439.808 314.613 449.725 334.23 442.338L347.307 437.415C366.925 430.029 376.841 408.137 369.457 388.519L364.534 375.44C357.149 355.822 335.26 345.906 315.643 353.292Z" fill="black"/>
<path d="M635.684 354.779L647.827 361.693C666.044 372.064 672.404 395.24 662.034 413.457L655.121 425.602C644.751 443.819 621.577 450.18 603.361 439.808L591.217 432.894C573.001 422.523 566.641 399.347 577.011 381.13L583.924 368.985C594.294 350.768 617.468 344.407 635.684 354.779Z" fill="black"/>
<path d="M569.233 229.825C567.297 219.161 557.083 212.085 546.42 214.021C535.756 215.958 528.68 226.173 530.616 236.837L536.89 271.403C538.826 282.067 549.039 289.143 559.703 287.207C570.367 285.27 577.442 275.055 575.507 264.391L569.233 229.825Z" fill="white"/>
<path d="M563.651 236.089C562.381 229.093 555.68 224.451 548.684 225.721C541.689 226.992 537.047 233.693 538.317 240.689L542.433 263.368C543.703 270.364 550.403 275.006 557.399 273.736C564.395 272.465 569.037 265.764 567.767 258.768L563.651 236.089Z" fill="black"/>
<path d="M408.075 242.943C406.139 232.278 395.925 225.203 385.262 227.139C374.598 229.075 367.522 239.29 369.458 249.955L375.732 284.52C377.667 295.185 387.881 302.261 398.545 300.324C409.209 298.388 416.284 288.173 414.349 277.509L408.075 242.943Z" fill="white"/>
<path d="M402.588 249.24C401.318 242.244 394.618 237.602 387.622 238.872C380.626 240.143 375.984 246.844 377.254 253.84L381.371 276.519C382.64 283.515 389.341 288.157 396.337 286.886C403.332 285.616 407.974 278.915 406.704 271.919L402.588 249.24Z" fill="black"/>
<path d="M440.993 324.24L441.974 325.356C450.226 334.759 464.985 334.36 472.72 324.544L475.137 321.479C484.375 330.543 499.64 328.594 506.31 317.494L507.276 315.896" stroke="black" stroke-width="2" stroke-linecap="round" stroke-linejoin="round"/>
<path d="M365.565 377.814C362.278 369.08 352.536 364.664 343.806 367.951C335.077 371.238 330.665 380.982 333.952 389.716L350.089 432.585C353.376 441.319 363.118 445.734 371.848 442.448C380.577 439.161 384.989 429.416 381.701 420.683L365.565 377.814Z" fill="black"/>
<path d="M582.019 372.684C586.635 364.574 596.949 361.741 605.055 366.356C613.161 370.972 615.99 381.287 611.373 389.397L588.713 429.205C584.097 437.315 573.783 440.148 565.677 435.533C557.571 430.918 554.742 420.602 559.359 412.492L582.019 372.684Z" fill="black"/>
<path d="M260.228 268.959C245.601 274.037 241.091 279.824 239.738 295.248C239.496 297.951 235.706 298.424 234.814 295.86C229.737 281.232 223.951 276.722 208.528 275.37C205.825 275.128 205.352 271.337 207.916 270.445C222.543 265.367 227.053 259.58 228.406 244.156C228.648 241.453 232.438 240.98 233.33 243.544C238.407 258.172 244.193 262.682 259.616 264.034C262.319 264.276 262.791 268.067 260.228 268.959Z" fill="black"/>
<g filter="url(#filter0_d_935_13693)">
<mask id="path-25-inside-2_935_13693" fill="white">
<path fill-rule="evenodd" clip-rule="evenodd" d="M631.267 34C611.789 34 596 49.7894 596 69.2666V145.933C596 165.411 611.789 181.2 631.267 181.2H671V211.309L701.109 181.2H928.733C948.211 181.2 964 165.411 964 145.933V69.2667C964 49.7894 948.211 34 928.733 34H631.267Z"/>
</mask>
<path fill-rule="evenodd" clip-rule="evenodd" d="M631.267 34C611.789 34 596 49.7894 596 69.2666V145.933C596 165.411 611.789 181.2 631.267 181.2H671V211.309L701.109 181.2H928.733C948.211 181.2 964 165.411 964 145.933V69.2667C964 49.7894 948.211 34 928.733 34H631.267Z" fill="white"/>
<path d="M671 181.2H671.767V180.433H671V181.2ZM671 211.309H670.233V213.16L671.542 211.851L671 211.309ZM701.109 181.2V180.433H700.791L700.567 180.658L701.109 181.2ZM596.767 69.2666C596.767 50.2128 612.213 34.7667 631.267 34.7667V33.2333C611.366 33.2333 595.233 49.366 595.233 69.2666H596.767ZM596.767 145.933V69.2666H595.233V145.933H596.767ZM631.267 180.433C612.213 180.433 596.767 164.987 596.767 145.933H595.233C595.233 165.834 611.366 181.967 631.267 181.967V180.433ZM671 180.433H631.267V181.967H671V180.433ZM671.767 211.309V181.2H670.233V211.309H671.767ZM700.567 180.658L670.458 210.767L671.542 211.851L701.651 181.742L700.567 180.658ZM928.733 180.433H701.109V181.967H928.733V180.433ZM963.233 145.933C963.233 164.987 947.787 180.433 928.733 180.433V181.967C948.634 181.967 964.767 165.834 964.767 145.933H963.233ZM963.233 69.2667V145.933H964.767V69.2667H963.233ZM928.733 34.7667C947.787 34.7667 963.233 50.2128 963.233 69.2667H964.767C964.767 49.366 948.634 33.2333 928.733 33.2333V34.7667ZM631.267 34.7667H928.733V33.2333H631.267V34.7667Z" fill="black" mask="url(#path-25-inside-2_935_13693)"/>
</g>
<path d="M645.073 54.9143C644.778 55.6503 644.566 56.3373 644.435 56.9751C644.32 57.5967 644.247 58.1936 644.214 58.7661C644.198 59.3385 644.19 59.9355 644.19 60.557H641.687C641.687 59.6084 641.744 58.7824 641.859 58.0791C641.99 57.3759 642.145 56.7707 642.325 56.2637C642.521 55.7403 642.726 55.2905 642.938 54.9143H645.073ZM640.927 54.9143C640.632 55.6503 640.42 56.3373 640.289 56.9751C640.174 57.5967 640.101 58.1936 640.068 58.7661C640.052 59.3385 640.043 59.9355 640.043 60.557H637.541C637.541 59.6084 637.598 58.7824 637.713 58.0791C637.844 57.3759 637.999 56.7707 638.179 56.2637C638.375 55.7403 638.571 55.2905 638.768 54.9143H640.927ZM650.646 72.333V67.1565L644.88 56.141H648.021L651.921 64.6295H652.044L655.945 56.141H659.085L653.32 67.1319V72.333H650.646ZM660.885 72.6519C660.182 72.6519 659.552 72.5211 658.996 72.2594C658.44 71.9814 657.998 71.5725 657.671 71.0327C657.36 70.493 657.205 69.8224 657.205 69.021C657.205 68.3831 657.319 67.8352 657.548 67.3773C657.794 66.903 658.153 66.5104 658.628 66.1997C659.118 65.8726 659.74 65.6109 660.492 65.4146C661.245 65.202 662.136 65.0221 663.166 64.8749C663.739 64.7931 664.205 64.7113 664.565 64.6295C664.941 64.5478 665.211 64.4169 665.374 64.237C665.554 64.0571 665.644 63.7872 665.644 63.4274C665.644 62.8713 665.448 62.397 665.056 62.0045C664.679 61.5956 664.066 61.3911 663.216 61.3911C662.741 61.3911 662.267 61.4729 661.793 61.6365C661.335 61.8 660.934 62.0699 660.59 62.4461C660.263 62.8059 660.043 63.2966 659.928 63.9181L657.524 63.1575C657.671 62.536 657.908 61.9881 658.235 61.5138C658.562 61.0231 658.971 60.6143 659.462 60.2871C659.953 59.9437 660.517 59.6902 661.155 59.5266C661.809 59.3467 662.52 59.2567 663.289 59.2567C664.418 59.2567 665.35 59.4448 666.086 59.821C666.822 60.1972 667.37 60.7778 667.73 61.5629C668.106 62.3316 668.294 63.3211 668.294 64.5314V67.1319C668.294 67.6717 668.302 68.2441 668.318 68.8493C668.351 69.4381 668.384 70.0351 668.417 70.6402C668.466 71.229 668.523 71.7933 668.588 72.333H666.16C666.11 71.8423 666.061 71.3353 666.012 70.8119C665.98 70.2886 665.947 69.757 665.914 69.2173H665.546C665.317 69.8388 664.99 70.4112 664.565 70.9346C664.156 71.458 663.641 71.8751 663.019 72.1858C662.414 72.4966 661.703 72.6519 660.885 72.6519ZM661.817 70.5911C662.161 70.5911 662.504 70.5339 662.848 70.4194C663.207 70.3049 663.559 70.1332 663.902 69.9042C664.262 69.6589 664.589 69.3481 664.884 68.9719C665.195 68.5958 665.464 68.146 665.693 67.6226L665.669 65.3165L666.307 65.4391C666.029 65.6845 665.677 65.8726 665.252 66.0034C664.843 66.1343 664.393 66.2406 663.902 66.3223C663.412 66.3878 662.921 66.4695 662.43 66.5677C661.956 66.6495 661.515 66.7721 661.106 66.9357C660.713 67.0829 660.394 67.2955 660.149 67.5735C659.92 67.8516 659.805 68.2359 659.805 68.7266C659.805 69.3318 659.993 69.7979 660.37 70.125C660.746 70.4358 661.228 70.5911 661.817 70.5911ZM670.174 72.333V64.5069V55.037H672.873V59.0114C672.873 59.3549 672.864 59.7147 672.848 60.0909C672.832 60.4507 672.799 60.8187 672.75 61.1949C672.701 61.5711 672.652 61.9472 672.603 62.3234C672.554 62.6996 672.496 63.0839 672.431 63.4765H672.873C673.118 62.5606 673.421 61.7919 673.78 61.1703C674.157 60.5325 674.623 60.0582 675.179 59.7474C675.751 59.4203 676.438 59.2567 677.24 59.2567C678.712 59.2567 679.807 59.7719 680.527 60.8023C681.247 61.8164 681.607 63.3456 681.607 65.3901V72.333H678.908V65.7335C678.908 64.2943 678.687 63.2393 678.245 62.5687C677.82 61.8982 677.174 61.5629 676.307 61.5629C675.588 61.5629 674.983 61.7755 674.492 62.2007C674.018 62.626 673.641 63.1984 673.363 63.9181C673.085 64.6377 672.905 65.4555 672.824 66.3714V72.333H670.174ZM688.982 72.6519C687.756 72.6519 686.668 72.3903 685.719 71.8669C684.771 71.3435 684.027 70.583 683.487 69.5853C682.964 68.5876 682.702 67.3609 682.702 65.9053C682.702 64.4169 682.98 63.1821 683.536 62.2007C684.092 61.2194 684.836 60.4834 685.769 59.9927C686.717 59.5021 687.78 59.2567 688.958 59.2567C690.168 59.2567 691.248 59.5103 692.196 60.0173C693.145 60.5243 693.889 61.2767 694.429 62.2743C694.985 63.272 695.263 64.5151 695.263 66.0034C695.263 67.4754 694.985 68.7103 694.429 69.7079C693.889 70.6893 693.145 71.4253 692.196 71.9159C691.248 72.4066 690.176 72.6519 688.982 72.6519ZM689.081 70.5421C689.817 70.5421 690.446 70.3703 690.97 70.0269C691.493 69.6834 691.894 69.1764 692.172 68.5058C692.45 67.8352 692.589 67.0338 692.589 66.1015C692.589 65.1366 692.442 64.3106 692.147 63.6237C691.853 62.9204 691.428 62.3807 690.871 62.0045C690.332 61.6283 689.669 61.4402 688.884 61.4402C688.181 61.4402 687.559 61.6119 687.02 61.9554C686.496 62.2825 686.096 62.7814 685.818 63.4519C685.54 64.1062 685.401 64.9076 685.401 65.8562C685.401 67.3446 685.728 68.4976 686.382 69.3154C687.036 70.1332 687.936 70.5421 689.081 70.5421ZM702.102 72.6519C700.875 72.6519 699.788 72.3903 698.839 71.8669C697.89 71.3435 697.146 70.583 696.607 69.5853C696.083 68.5876 695.821 67.3609 695.821 65.9053C695.821 64.4169 696.1 63.1821 696.656 62.2007C697.212 61.2194 697.956 60.4834 698.888 59.9927C699.837 59.5021 700.9 59.2567 702.077 59.2567C703.288 59.2567 704.367 59.5103 705.316 60.0173C706.264 60.5243 707.009 61.2767 707.548 62.2743C708.104 63.272 708.383 64.5151 708.383 66.0034C708.383 67.4754 708.104 68.7103 707.548 69.7079C707.009 70.6893 706.264 71.4253 705.316 71.9159C704.367 72.4066 703.296 72.6519 702.102 72.6519ZM702.2 70.5421C702.936 70.5421 703.566 70.3703 704.089 70.0269C704.613 69.6834 705.013 69.1764 705.291 68.5058C705.569 67.8352 705.708 67.0338 705.708 66.1015C705.708 65.1366 705.561 64.3106 705.267 63.6237C704.972 62.9204 704.547 62.3807 703.991 62.0045C703.451 61.6283 702.789 61.4402 702.004 61.4402C701.301 61.4402 700.679 61.6119 700.139 61.9554C699.616 62.2825 699.215 62.7814 698.937 63.4519C698.659 64.1062 698.52 64.9076 698.52 65.8562C698.52 67.3446 698.847 68.4976 699.501 69.3154C700.156 70.1332 701.055 70.5421 702.2 70.5421ZM715.222 72.6519C713.995 72.6519 712.907 72.3903 711.959 71.8669C711.01 71.3435 710.266 70.583 709.726 69.5853C709.203 68.5876 708.941 67.3609 708.941 65.9053C708.941 64.4169 709.219 63.1821 709.775 62.2007C710.331 61.2194 711.075 60.4834 712.008 59.9927C712.956 59.5021 714.019 59.2567 715.197 59.2567C716.407 59.2567 717.487 59.5103 718.435 60.0173C719.384 60.5243 720.128 61.2767 720.668 62.2743C721.224 63.272 721.502 64.5151 721.502 66.0034C721.502 67.4754 721.224 68.7103 720.668 69.7079C720.128 70.6893 719.384 71.4253 718.435 71.9159C717.487 72.4066 716.416 72.6519 715.222 72.6519ZM715.32 70.5421C716.056 70.5421 716.685 70.3703 717.209 70.0269C717.732 69.6834 718.133 69.1764 718.411 68.5058C718.689 67.8352 718.828 67.0338 718.828 66.1015C718.828 65.1366 718.681 64.3106 718.386 63.6237C718.092 62.9204 717.667 62.3807 717.111 62.0045C716.571 61.6283 715.909 61.4402 715.123 61.4402C714.42 61.4402 713.799 61.6119 713.259 61.9554C712.736 62.2825 712.335 62.7814 712.057 63.4519C711.779 64.1062 711.64 64.9076 711.64 65.8562C711.64 67.3446 711.967 68.4976 712.621 69.3154C713.275 70.1332 714.175 70.5421 715.32 70.5421ZM728.341 72.6519C727.115 72.6519 726.027 72.3903 725.078 71.8669C724.13 71.3435 723.385 70.583 722.846 69.5853C722.322 68.5876 722.061 67.3609 722.061 65.9053C722.061 64.4169 722.339 63.1821 722.895 62.2007C723.451 61.2194 724.195 60.4834 725.127 59.9927C726.076 59.5021 727.139 59.2567 728.317 59.2567C729.527 59.2567 730.606 59.5103 731.555 60.0173C732.504 60.5243 733.248 61.2767 733.788 62.2743C734.344 63.272 734.622 64.5151 734.622 66.0034C734.622 67.4754 734.344 68.7103 733.788 69.7079C733.248 70.6893 732.504 71.4253 731.555 71.9159C730.606 72.4066 729.535 72.6519 728.341 72.6519ZM728.439 70.5421C729.175 70.5421 729.805 70.3703 730.328 70.0269C730.852 69.6834 731.252 69.1764 731.531 68.5058C731.809 67.8352 731.948 67.0338 731.948 66.1015C731.948 65.1366 731.8 64.3106 731.506 63.6237C731.212 62.9204 730.786 62.3807 730.23 62.0045C729.691 61.6283 729.028 61.4402 728.243 61.4402C727.54 61.4402 726.918 61.6119 726.379 61.9554C725.855 62.2825 725.454 62.7814 725.176 63.4519C724.898 64.1062 724.759 64.9076 724.759 65.8562C724.759 67.3446 725.086 68.4976 725.741 69.3154C726.395 70.1332 727.294 70.5421 728.439 70.5421ZM741.461 72.6519C740.234 72.6519 739.146 72.3903 738.198 71.8669C737.249 71.3435 736.505 70.583 735.965 69.5853C735.442 68.5876 735.18 67.3609 735.18 65.9053C735.18 64.4169 735.458 63.1821 736.014 62.2007C736.57 61.2194 737.315 60.4834 738.247 59.9927C739.196 59.5021 740.259 59.2567 741.436 59.2567C742.647 59.2567 743.726 59.5103 744.675 60.0173C745.623 60.5243 746.367 61.2767 746.907 62.2743C747.463 63.272 747.741 64.5151 747.741 66.0034C747.741 67.4754 747.463 68.7103 746.907 69.7079C746.367 70.6893 745.623 71.4253 744.675 71.9159C743.726 72.4066 742.655 72.6519 741.461 72.6519ZM741.559 70.5421C742.295 70.5421 742.925 70.3703 743.448 70.0269C743.971 69.6834 744.372 69.1764 744.65 68.5058C744.928 67.8352 745.067 67.0338 745.067 66.1015C745.067 65.1366 744.92 64.3106 744.626 63.6237C744.331 62.9204 743.906 62.3807 743.35 62.0045C742.81 61.6283 742.148 61.4402 741.363 61.4402C740.659 61.4402 740.038 61.6119 739.498 61.9554C738.975 62.2825 738.574 62.7814 738.296 63.4519C738.018 64.1062 737.879 64.9076 737.879 65.8562C737.879 67.3446 738.206 68.4976 738.86 69.3154C739.514 70.1332 740.414 70.5421 741.559 70.5421ZM754.58 72.6519C753.354 72.6519 752.266 72.3903 751.317 71.8669C750.369 71.3435 749.625 70.583 749.085 69.5853C748.561 68.5876 748.3 67.3609 748.3 65.9053C748.3 64.4169 748.578 63.1821 749.134 62.2007C749.69 61.2194 750.434 60.4834 751.366 59.9927C752.315 59.5021 753.378 59.2567 754.556 59.2567C755.766 59.2567 756.846 59.5103 757.794 60.0173C758.743 60.5243 759.487 61.2767 760.027 62.2743C760.583 63.272 760.861 64.5151 760.861 66.0034C760.861 67.4754 760.583 68.7103 760.027 69.7079C759.487 70.6893 758.743 71.4253 757.794 71.9159C756.846 72.4066 755.774 72.6519 754.58 72.6519ZM754.678 70.5421C755.414 70.5421 756.044 70.3703 756.568 70.0269C757.091 69.6834 757.492 69.1764 757.77 68.5058C758.048 67.8352 758.187 67.0338 758.187 66.1015C758.187 65.1366 758.04 64.3106 757.745 63.6237C757.451 62.9204 757.025 62.3807 756.469 62.0045C755.93 61.6283 755.267 61.4402 754.482 61.4402C753.779 61.4402 753.157 61.6119 752.618 61.9554C752.094 62.2825 751.694 62.7814 751.416 63.4519C751.137 64.1062 750.998 64.9076 750.998 65.8562C750.998 67.3446 751.326 68.4976 751.98 69.3154C752.634 70.1332 753.534 70.5421 754.678 70.5421ZM762.624 67.7943L761.863 56.141H765.028L764.292 67.7943H762.624ZM763.433 72.6274C762.828 72.6274 762.378 72.4966 762.084 72.2349C761.79 71.9732 761.642 71.5643 761.642 71.0082C761.642 70.4358 761.79 70.0187 762.084 69.757C762.378 69.4953 762.828 69.3645 763.433 69.3645C764.055 69.3645 764.521 69.4953 764.832 69.757C765.143 70.0187 765.298 70.4358 765.298 71.0082C765.298 72.0877 764.676 72.6274 763.433 72.6274ZM775.411 72.333V67.1565L769.646 56.141H772.786L776.687 64.6295H776.809L780.71 56.141H783.851L778.085 67.1319V72.333H775.411ZM788.299 72.6519C787.073 72.6519 785.985 72.3903 785.036 71.8669C784.088 71.3435 783.344 70.583 782.804 69.5853C782.28 68.5876 782.019 67.3609 782.019 65.9053C782.019 64.4169 782.297 63.1821 782.853 62.2007C783.409 61.2194 784.153 60.4834 785.085 59.9927C786.034 59.5021 787.097 59.2567 788.275 59.2567C789.485 59.2567 790.565 59.5103 791.513 60.0173C792.462 60.5243 793.206 61.2767 793.746 62.2743C794.302 63.272 794.58 64.5151 794.58 66.0034C794.58 67.4754 794.302 68.7103 793.746 69.7079C793.206 70.6893 792.462 71.4253 791.513 71.9159C790.565 72.4066 789.493 72.6519 788.299 72.6519ZM788.397 70.5421C789.133 70.5421 789.763 70.3703 790.286 70.0269C790.81 69.6834 791.211 69.1764 791.489 68.5058C791.767 67.8352 791.906 67.0338 791.906 66.1015C791.906 65.1366 791.758 64.3106 791.464 63.6237C791.17 62.9204 790.744 62.3807 790.188 62.0045C789.649 61.6283 788.986 61.4402 788.201 61.4402C787.498 61.4402 786.876 61.6119 786.337 61.9554C785.813 62.2825 785.413 62.7814 785.134 63.4519C784.856 64.1062 784.717 64.9076 784.717 65.8562C784.717 67.3446 785.045 68.4976 785.699 69.3154C786.353 70.1332 787.253 70.5421 788.397 70.5421ZM800.02 72.6519C798.581 72.6519 797.494 72.1613 796.758 71.1799C796.022 70.1823 795.654 68.6857 795.654 66.6903V59.5757H798.328V66.3959C798.328 67.7371 798.532 68.7348 798.941 69.389C799.35 70.0432 799.996 70.3703 800.879 70.3703C801.37 70.3703 801.803 70.2477 802.179 70.0023C802.556 69.757 802.883 69.4135 803.161 68.9719C803.455 68.5303 803.684 68.0151 803.848 67.4263C804.028 66.8212 804.15 66.1588 804.216 65.4391V59.5757H806.865V67.0338V72.333H804.608L804.731 68.285H804.314C804.101 69.2991 803.799 70.1332 803.406 70.7874C803.03 71.4253 802.556 71.8996 801.983 72.2103C801.427 72.5047 800.773 72.6519 800.02 72.6519ZM807.8 60.9986L807.457 55.037H809.959L809.591 60.9986H807.8ZM814.206 72.333L809.74 59.6002H812.709L815.898 70.1495H816.266L819.48 59.6002H822.351L817.886 72.333H814.206ZM828.249 72.6519C827.235 72.6519 826.335 72.5047 825.55 72.2103C824.765 71.8996 824.102 71.4662 823.563 70.9101C823.023 70.3376 822.614 69.6589 822.336 68.8738C822.058 68.0724 821.919 67.1728 821.919 66.1751C821.919 65.1775 822.058 64.2615 822.336 63.4274C822.614 62.5769 823.007 61.8409 823.514 61.2194C824.037 60.5979 824.675 60.1154 825.427 59.7719C826.196 59.4285 827.063 59.2567 828.028 59.2567C828.927 59.2567 829.729 59.4039 830.432 59.6983C831.152 59.9927 831.757 60.4425 832.248 61.0477C832.738 61.6365 833.106 62.3807 833.352 63.2802C833.597 64.1634 833.687 65.202 833.621 66.3959L823.636 66.4695V64.8013L832.051 64.7277L831.119 65.7581C831.217 64.7767 831.135 63.9671 830.874 63.3293C830.612 62.6914 830.236 62.2171 829.745 61.9063C829.254 61.5956 828.69 61.4402 828.052 61.4402C827.333 61.4402 826.703 61.6283 826.163 62.0045C825.64 62.3643 825.231 62.8959 824.937 63.5991C824.642 64.3024 824.495 65.1447 824.495 66.1261C824.495 67.5981 824.822 68.7103 825.476 69.4626C826.131 70.1986 827.063 70.5666 828.273 70.5666C828.78 70.5666 829.214 70.5094 829.573 70.3949C829.933 70.264 830.236 70.1005 830.481 69.9042C830.726 69.6916 830.923 69.4463 831.07 69.1682C831.233 68.8738 831.364 68.5712 831.462 68.2605L833.793 68.8002C833.646 69.4054 833.417 69.9451 833.106 70.4194C832.812 70.8774 832.436 71.2781 831.978 71.6215C831.52 71.9487 830.98 72.2022 830.358 72.3821C829.753 72.562 829.05 72.6519 828.249 72.6519ZM839.286 72.333V64.3351V59.5757H841.543L841.396 63.5501H841.838C842.05 62.5851 842.337 61.7919 842.696 61.1703C843.073 60.5325 843.522 60.0582 844.046 59.7474C844.585 59.4203 845.207 59.2567 845.91 59.2567C846.695 59.2567 847.341 59.4448 847.848 59.821C848.372 60.1972 848.764 60.7042 849.026 61.3421C849.304 61.9799 849.451 62.6996 849.468 63.501H849.86C850.073 62.5687 850.367 61.7919 850.743 61.1703C851.136 60.5325 851.618 60.0582 852.191 59.7474C852.763 59.4203 853.401 59.2567 854.104 59.2567C854.775 59.2567 855.364 59.3958 855.871 59.6738C856.378 59.9355 856.803 60.328 857.147 60.8514C857.49 61.3748 857.744 62.029 857.907 62.8141C858.087 63.5828 858.177 64.4742 858.177 65.4882V72.333H855.503V65.8317C855.503 64.8831 855.421 64.098 855.257 63.4765C855.094 62.855 854.84 62.3888 854.497 62.0781C854.153 61.7673 853.72 61.6119 853.197 61.6119C852.608 61.6119 852.084 61.8164 851.627 62.2253C851.185 62.6178 850.825 63.1657 850.547 63.869C850.269 64.5723 850.097 65.3819 850.032 66.2978V72.333H847.407V66.0034C847.407 65.0221 847.325 64.2125 847.161 63.5746C846.998 62.9204 846.744 62.4297 846.401 62.1026C846.057 61.7755 845.624 61.6119 845.101 61.6119C844.479 61.6119 843.939 61.8246 843.481 62.2498C843.04 62.6587 842.688 63.223 842.427 63.9426C842.165 64.6623 842.001 65.4719 841.936 66.3714V72.333H839.286ZM862.921 72.6519C862.217 72.6519 861.588 72.5211 861.032 72.2594C860.476 71.9814 860.034 71.5725 859.707 71.0327C859.396 70.493 859.241 69.8224 859.241 69.021C859.241 68.3831 859.355 67.8352 859.584 67.3773C859.829 66.903 860.189 66.5104 860.664 66.1997C861.154 65.8726 861.776 65.6109 862.528 65.4146C863.281 65.202 864.172 65.0221 865.202 64.8749C865.775 64.7931 866.241 64.7113 866.601 64.6295C866.977 64.5478 867.247 64.4169 867.41 64.237C867.59 64.0571 867.68 63.7872 867.68 63.4274C867.68 62.8713 867.484 62.397 867.091 62.0045C866.715 61.5956 866.102 61.3911 865.251 61.3911C864.777 61.3911 864.303 61.4729 863.828 61.6365C863.37 61.8 862.97 62.0699 862.626 62.4461C862.299 62.8059 862.078 63.2966 861.964 63.9181L859.56 63.1575C859.707 62.536 859.944 61.9881 860.271 61.5138C860.598 61.0231 861.007 60.6143 861.498 60.2871C861.988 59.9437 862.553 59.6902 863.191 59.5266C863.845 59.3467 864.556 59.2567 865.325 59.2567C866.453 59.2567 867.386 59.4448 868.122 59.821C868.858 60.1972 869.406 60.7778 869.765 61.5629C870.142 62.3316 870.33 63.3211 870.33 64.5314V67.1319C870.33 67.6717 870.338 68.2441 870.354 68.8493C870.387 69.4381 870.42 70.0351 870.452 70.6402C870.501 71.229 870.559 71.7933 870.624 72.333H868.195C868.146 71.8423 868.097 71.3353 868.048 70.8119C868.015 70.2886 867.983 69.757 867.95 69.2173H867.582C867.353 69.8388 867.026 70.4112 866.601 70.9346C866.192 71.458 865.677 71.8751 865.055 72.1858C864.45 72.4966 863.738 72.6519 862.921 72.6519ZM863.853 70.5911C864.196 70.5911 864.54 70.5339 864.883 70.4194C865.243 70.3049 865.595 70.1332 865.938 69.9042C866.298 69.6589 866.625 69.3481 866.92 68.9719C867.23 68.5958 867.5 68.146 867.729 67.6226L867.705 65.3165L868.343 65.4391C868.065 65.6845 867.713 65.8726 867.288 66.0034C866.879 66.1343 866.429 66.2406 865.938 66.3223C865.448 66.3878 864.957 66.4695 864.466 66.5677C863.992 66.6495 863.55 66.7721 863.141 66.9357C862.749 67.0829 862.43 67.2955 862.185 67.5735C861.956 67.8516 861.841 68.2359 861.841 68.7266C861.841 69.3318 862.029 69.7979 862.405 70.125C862.782 70.4358 863.264 70.5911 863.853 70.5911ZM876.796 72.6519C875.717 72.6519 874.785 72.3739 874 71.8178C873.215 71.2454 872.618 70.4603 872.209 69.4626C871.8 68.4486 871.595 67.2791 871.595 65.9543C871.595 64.6623 871.783 63.5174 872.16 62.5197C872.552 61.5056 873.125 60.7124 873.877 60.1399C874.646 59.5675 875.586 59.2813 876.698 59.2813C877.581 59.2813 878.309 59.4612 878.882 59.821C879.454 60.1645 879.912 60.6388 880.256 61.2439C880.615 61.8491 880.885 62.5197 881.065 63.2557H881.556C881.474 62.7814 881.392 62.2907 881.311 61.7837C881.229 61.2603 881.163 60.7615 881.114 60.2871C881.065 59.7965 881.041 59.3631 881.041 58.9869V55.037H883.739V66.0525V72.333H881.409L881.507 68.8002H881.065C880.869 69.6016 880.591 70.2886 880.231 70.861C879.871 71.4335 879.405 71.8751 878.833 72.1858C878.277 72.4966 877.598 72.6519 876.796 72.6519ZM877.532 70.3949C878.105 70.3949 878.612 70.264 879.053 70.0023C879.495 69.7407 879.863 69.3972 880.157 68.9719C880.452 68.5467 880.673 68.0887 880.82 67.5981C880.983 67.0911 881.065 66.6167 881.065 66.1751V65.8317C881.065 65.5046 881.016 65.1529 880.918 64.7767C880.836 64.3842 880.697 63.9999 880.501 63.6237C880.321 63.2311 880.092 62.8795 879.814 62.5687C879.536 62.258 879.201 62.0127 878.808 61.8327C878.432 61.6365 878.007 61.5383 877.532 61.5383C876.845 61.5383 876.265 61.7346 875.791 62.1271C875.333 62.5033 874.981 63.0267 874.736 63.6973C874.49 64.3679 874.368 65.1366 874.368 66.0034C874.368 66.8866 874.49 67.6635 874.736 68.3341C874.997 68.9883 875.365 69.4953 875.84 69.8551C876.314 70.215 876.878 70.3949 877.532 70.3949ZM891.331 72.6519C890.317 72.6519 889.417 72.5047 888.632 72.2103C887.847 71.8996 887.185 71.4662 886.645 70.9101C886.105 70.3376 885.696 69.6589 885.418 68.8738C885.14 68.0724 885.001 67.1728 885.001 66.1751C885.001 65.1775 885.14 64.2615 885.418 63.4274C885.696 62.5769 886.089 61.8409 886.596 61.2194C887.119 60.5979 887.757 60.1154 888.51 59.7719C889.278 59.4285 890.145 59.2567 891.11 59.2567C892.01 59.2567 892.811 59.4039 893.514 59.6983C894.234 59.9927 894.839 60.4425 895.33 61.0477C895.82 61.6365 896.188 62.3807 896.434 63.2802C896.679 64.1634 896.769 65.202 896.704 66.3959L886.719 66.4695V64.8013L895.134 64.7277L894.201 65.7581C894.299 64.7767 894.218 63.9671 893.956 63.3293C893.694 62.6914 893.318 62.2171 892.827 61.9063C892.337 61.5956 891.772 61.4402 891.135 61.4402C890.415 61.4402 889.785 61.6283 889.246 62.0045C888.722 62.3643 888.313 62.8959 888.019 63.5991C887.724 64.3024 887.577 65.1447 887.577 66.1261C887.577 67.5981 887.904 68.7103 888.559 69.4626C889.213 70.1986 890.145 70.5666 891.355 70.5666C891.862 70.5666 892.296 70.5094 892.656 70.3949C893.015 70.264 893.318 70.1005 893.563 69.9042C893.809 69.6916 894.005 69.4463 894.152 69.1682C894.316 68.8738 894.447 68.5712 894.545 68.2605L896.875 68.8002C896.728 69.4054 896.499 69.9451 896.188 70.4194C895.894 70.8774 895.518 71.2781 895.06 71.6215C894.602 71.9487 894.062 72.2022 893.441 72.3821C892.836 72.562 892.132 72.6519 891.331 72.6519ZM902.369 72.333V59.5757H905.018V72.333H902.369ZM903.693 57.4413C903.121 57.4413 902.687 57.3268 902.393 57.0978C902.099 56.8525 901.951 56.4927 901.951 56.0183C901.951 55.5604 902.099 55.2087 902.393 54.9634C902.687 54.7181 903.121 54.5954 903.693 54.5954C904.282 54.5954 904.724 54.7181 905.018 54.9634C905.313 55.2087 905.46 55.5604 905.46 56.0183C905.46 56.4927 905.313 56.8525 905.018 57.0978C904.724 57.3268 904.282 57.4413 903.693 57.4413ZM911.251 72.6029C909.991 72.6029 909.051 72.2594 908.429 71.5725C907.824 70.8855 907.522 69.8306 907.522 68.4077V61.7591H905.632L905.682 59.5757H906.908C907.333 59.5757 907.652 59.5103 907.865 59.3794C908.078 59.2322 908.208 58.9787 908.258 58.6189L908.503 56.7298H910.098V59.5757H913.606V61.8082H910.098V68.3341C910.098 68.9719 910.245 69.4299 910.539 69.7079C910.834 69.986 911.267 70.125 911.839 70.125C912.15 70.125 912.461 70.0923 912.772 70.0269C913.099 69.9451 913.41 69.7979 913.704 69.5853V72.1613C913.213 72.3248 912.763 72.4393 912.355 72.5047C911.946 72.5702 911.578 72.6029 911.251 72.6029ZM915.325 67.7943L914.564 56.141H917.729L916.993 67.7943H915.325ZM916.134 72.6274C915.529 72.6274 915.079 72.4966 914.785 72.2349C914.491 71.9732 914.343 71.5643 914.343 71.0082C914.343 70.4358 914.491 70.0187 914.785 69.757C915.079 69.4953 915.529 69.3645 916.134 69.3645C916.756 69.3645 917.222 69.4953 917.533 69.757C917.843 70.0187 917.999 70.4358 917.999 71.0082C917.999 72.0877 917.377 72.6274 916.134 72.6274ZM653.383 101.333V85.141H656.916L665.037 97.7757H665.257L665.086 85.141H667.686V101.333H664.472L656.033 88.3058H655.812L655.984 101.333H653.383ZM675.398 101.652C674.171 101.652 673.084 101.39 672.135 100.867C671.186 100.343 670.442 99.583 669.903 98.5853C669.379 97.5876 669.118 96.3609 669.118 94.9053C669.118 93.4169 669.396 92.1821 669.952 91.2007C670.508 90.2194 671.252 89.4834 672.184 88.9927C673.133 88.5021 674.196 88.2567 675.374 88.2567C676.584 88.2567 677.663 88.5103 678.612 89.0173C679.561 89.5243 680.305 90.2767 680.844 91.2743C681.401 92.272 681.679 93.5151 681.679 95.0034C681.679 96.4754 681.401 97.7103 680.844 98.7079C680.305 99.6893 679.561 100.425 678.612 100.916C677.663 101.407 676.592 101.652 675.398 101.652ZM675.496 99.5421C676.232 99.5421 676.862 99.3703 677.385 99.0269C677.909 98.6834 678.309 98.1764 678.587 97.5058C678.865 96.8352 679.004 96.0338 679.004 95.1015C679.004 94.1366 678.857 93.3106 678.563 92.6237C678.268 91.9204 677.843 91.3807 677.287 91.0045C676.747 90.6283 676.085 90.4402 675.3 90.4402C674.597 90.4402 673.975 90.6119 673.435 90.9554C672.912 91.2825 672.511 91.7814 672.233 92.4519C671.955 93.1062 671.816 93.9076 671.816 94.8562C671.816 96.3446 672.143 97.4976 672.798 98.3154C673.452 99.1332 674.351 99.5421 675.496 99.5421ZM684.864 101.333L681.552 88.5757H684.3L686.582 99.125H686.999L689.501 88.5757H692.838L695.389 99.125H695.782L698.039 88.5757H700.762L697.426 101.333H693.721L691.292 90.8082H690.973L688.569 101.333H684.864ZM698.997 104.645C699.291 103.893 699.496 103.206 699.61 102.584C699.741 101.963 699.815 101.366 699.831 100.793C699.864 100.204 699.88 99.6075 699.88 99.0023H702.383C702.383 99.9346 702.325 100.752 702.211 101.456C702.096 102.159 701.941 102.772 701.745 103.296C701.548 103.819 701.352 104.269 701.156 104.645H698.997ZM712.04 101.652C710.96 101.652 710.028 101.374 709.243 100.818C708.458 100.245 707.861 99.4603 707.452 98.4626C707.043 97.4486 706.839 96.2791 706.839 94.9543C706.839 93.6623 707.027 92.5174 707.403 91.5197C707.795 90.5056 708.368 89.7124 709.12 89.1399C709.889 88.5675 710.829 88.2813 711.942 88.2813C712.825 88.2813 713.553 88.4612 714.125 88.821C714.698 89.1645 715.155 89.6388 715.499 90.2439C715.859 90.8491 716.129 91.5197 716.309 92.2557H716.799C716.717 91.7814 716.636 91.2907 716.554 90.7837C716.472 90.2603 716.407 89.7615 716.358 89.2871C716.309 88.7965 716.284 88.3631 716.284 87.9869V84.037H718.983V95.0525V101.333H716.652L716.75 97.8002H716.309C716.112 98.6016 715.834 99.2886 715.474 99.861C715.115 100.433 714.648 100.875 714.076 101.186C713.52 101.497 712.841 101.652 712.04 101.652ZM712.776 99.3949C713.348 99.3949 713.855 99.264 714.297 99.0023C714.738 98.7407 715.106 98.3972 715.401 97.9719C715.695 97.5467 715.916 97.0887 716.063 96.5981C716.227 96.0911 716.309 95.6167 716.309 95.1751V94.8317C716.309 94.5046 716.259 94.1529 716.161 93.7767C716.08 93.3842 715.941 92.9999 715.744 92.6237C715.564 92.2311 715.335 91.8795 715.057 91.5687C714.779 91.258 714.444 91.0127 714.051 90.8327C713.675 90.6365 713.25 90.5383 712.776 90.5383C712.089 90.5383 711.508 90.7346 711.034 91.1271C710.576 91.5033 710.224 92.0267 709.979 92.6973C709.734 93.3679 709.611 94.1366 709.611 95.0034C709.611 95.8866 709.734 96.6635 709.979 97.3341C710.241 97.9883 710.609 98.4953 711.083 98.8551C711.557 99.215 712.122 99.3949 712.776 99.3949ZM720.956 101.333V88.5757H723.606V101.333H720.956ZM722.281 86.4413C721.708 86.4413 721.275 86.3268 720.981 86.0978C720.686 85.8525 720.539 85.4927 720.539 85.0183C720.539 84.5604 720.686 84.2087 720.981 83.9634C721.275 83.7181 721.708 83.5954 722.281 83.5954C722.87 83.5954 723.311 83.7181 723.606 83.9634C723.9 84.2087 724.047 84.5604 724.047 85.0183C724.047 85.4927 723.9 85.8525 723.606 86.0978C723.311 86.3268 722.87 86.4413 722.281 86.4413ZM728.636 101.333L724.171 88.6002H727.139L730.329 99.1495H730.697L733.911 88.6002H736.781L732.316 101.333H728.636ZM742.679 101.652C741.665 101.652 740.765 101.505 739.98 101.21C739.195 100.9 738.533 100.466 737.993 99.9101C737.453 99.3376 737.045 98.6589 736.766 97.8738C736.488 97.0724 736.349 96.1728 736.349 95.1751C736.349 94.1775 736.488 93.2615 736.766 92.4274C737.045 91.5769 737.437 90.8409 737.944 90.2194C738.467 89.5979 739.105 89.1154 739.858 88.7719C740.626 88.4285 741.493 88.2567 742.458 88.2567C743.358 88.2567 744.159 88.4039 744.862 88.6983C745.582 88.9927 746.187 89.4425 746.678 90.0477C747.169 90.6365 747.537 91.3807 747.782 92.2802C748.027 93.1634 748.117 94.202 748.052 95.3959L738.067 95.4695V93.8013L746.482 93.7277L745.549 94.7581C745.648 93.7767 745.566 92.9671 745.304 92.3293C745.042 91.6914 744.666 91.2171 744.176 90.9063C743.685 90.5956 743.121 90.4402 742.483 90.4402C741.763 90.4402 741.133 90.6283 740.594 91.0045C740.07 91.3643 739.661 91.8959 739.367 92.5991C739.073 93.3024 738.925 94.1447 738.925 95.1261C738.925 96.5981 739.253 97.7103 739.907 98.4626C740.561 99.1986 741.493 99.5666 742.704 99.5666C743.211 99.5666 743.644 99.5094 744.004 99.3949C744.364 99.264 744.666 99.1005 744.912 98.9042C745.157 98.6916 745.353 98.4463 745.5 98.1682C745.664 97.8738 745.795 97.5712 745.893 97.2605L748.224 97.8002C748.076 98.4054 747.847 98.9451 747.537 99.4194C747.242 99.8774 746.866 100.278 746.408 100.622C745.95 100.949 745.41 101.202 744.789 101.382C744.184 101.562 743.48 101.652 742.679 101.652ZM753.717 101.333V88.5757H756.366V101.333H753.717ZM755.041 86.4413C754.469 86.4413 754.036 86.3268 753.741 86.0978C753.447 85.8525 753.3 85.4927 753.3 85.0183C753.3 84.5604 753.447 84.2087 753.741 83.9634C754.036 83.7181 754.469 83.5954 755.041 83.5954C755.63 83.5954 756.072 83.7181 756.366 83.9634C756.661 84.2087 756.808 84.5604 756.808 85.0183C756.808 85.4927 756.661 85.8525 756.366 86.0978C756.072 86.3268 755.63 86.4413 755.041 86.4413ZM758.379 101.333V93.4823V88.5757H760.685L760.538 92.5501H760.955C761.184 91.5687 761.487 90.7673 761.863 90.1458C762.255 89.5079 762.746 89.0336 763.335 88.7229C763.94 88.4121 764.643 88.2567 765.445 88.2567C766.868 88.2567 767.947 88.7638 768.683 89.7778C769.435 90.7919 769.812 92.3375 769.812 94.4146V101.333H767.113V94.6845C767.113 93.2615 766.9 92.223 766.475 91.5687C766.05 90.8982 765.412 90.5629 764.561 90.5629C763.825 90.5629 763.196 90.8 762.672 91.2743C762.165 91.7323 761.773 92.3375 761.495 93.0898C761.217 93.8422 761.061 94.6599 761.029 95.5431V101.333H758.379ZM775.814 101.603C774.555 101.603 773.614 101.259 772.993 100.572C772.388 99.8855 772.085 98.8306 772.085 97.4077V90.7591H770.196L770.245 88.5757H771.472C771.897 88.5757 772.216 88.5103 772.429 88.3794C772.641 88.2322 772.772 87.9787 772.821 87.6189L773.066 85.7298H774.661V88.5757H778.169V90.8082H774.661V97.3341C774.661 97.9719 774.808 98.4299 775.103 98.7079C775.397 98.986 775.83 99.125 776.403 99.125C776.714 99.125 777.024 99.0923 777.335 99.0269C777.662 98.9451 777.973 98.7979 778.267 98.5853V101.161C777.777 101.325 777.327 101.439 776.918 101.505C776.509 101.57 776.141 101.603 775.814 101.603ZM784.629 101.652C783.402 101.652 782.315 101.39 781.366 100.867C780.417 100.343 779.673 99.583 779.133 98.5853C778.61 97.5876 778.348 96.3609 778.348 94.9053C778.348 93.4169 778.626 92.1821 779.182 91.2007C779.739 90.2194 780.483 89.4834 781.415 88.9927C782.364 88.5021 783.427 88.2567 784.604 88.2567C785.815 88.2567 786.894 88.5103 787.843 89.0173C788.791 89.5243 789.536 90.2767 790.075 91.2743C790.631 92.272 790.909 93.5151 790.909 95.0034C790.909 96.4754 790.631 97.7103 790.075 98.7079C789.536 99.6893 788.791 100.425 787.843 100.916C786.894 101.407 785.823 101.652 784.629 101.652ZM784.727 99.5421C785.463 99.5421 786.093 99.3703 786.616 99.0269C787.139 98.6834 787.54 98.1764 787.818 97.5058C788.096 96.8352 788.235 96.0338 788.235 95.1015C788.235 94.1366 788.088 93.3106 787.794 92.6237C787.499 91.9204 787.074 91.3807 786.518 91.0045C785.978 90.6283 785.316 90.4402 784.531 90.4402C783.827 90.4402 783.206 90.6119 782.666 90.9554C782.143 91.2825 781.742 91.7814 781.464 92.4519C781.186 93.1062 781.047 93.9076 781.047 94.8562C781.047 96.3446 781.374 97.4976 782.028 98.3154C782.683 99.1332 783.582 99.5421 784.727 99.5421ZM800.75 101.603C799.491 101.603 798.55 101.259 797.929 100.572C797.323 99.8855 797.021 98.8306 797.021 97.4077V90.7591H795.132L795.181 88.5757H796.408C796.833 88.5757 797.152 88.5103 797.364 88.3794C797.577 88.2322 797.708 87.9787 797.757 87.6189L798.002 85.7298H799.597V88.5757H803.105V90.8082H799.597V97.3341C799.597 97.9719 799.744 98.4299 800.038 98.7079C800.333 98.986 800.766 99.125 801.339 99.125C801.65 99.125 801.96 99.0923 802.271 99.0269C802.598 98.9451 802.909 98.7979 803.203 98.5853V101.161C802.713 101.325 802.263 101.439 801.854 101.505C801.445 101.57 801.077 101.603 800.75 101.603ZM804.163 101.333V93.5069V84.037H806.862V88.0114C806.862 88.3549 806.854 88.7147 806.837 89.0909C806.821 89.4507 806.788 89.8187 806.739 90.1949C806.69 90.5711 806.641 90.9472 806.592 91.3234C806.543 91.6996 806.486 92.0839 806.42 92.4765H806.862C807.107 91.5606 807.41 90.7919 807.77 90.1703C808.146 89.5325 808.612 89.0582 809.168 88.7474C809.741 88.4203 810.428 88.2567 811.229 88.2567C812.701 88.2567 813.797 88.7719 814.516 89.8023C815.236 90.8164 815.596 92.3456 815.596 94.3901V101.333H812.897V94.7335C812.897 93.2943 812.676 92.2393 812.235 91.5687C811.81 90.8982 811.164 90.5629 810.297 90.5629C809.577 90.5629 808.972 90.7755 808.481 91.2007C808.007 91.626 807.631 92.1984 807.353 92.9181C807.075 93.6377 806.895 94.4555 806.813 95.3714V101.333H804.163ZM823.021 101.652C822.007 101.652 821.107 101.505 820.322 101.21C819.537 100.9 818.875 100.466 818.335 99.9101C817.795 99.3376 817.386 98.6589 817.108 97.8738C816.83 97.0724 816.691 96.1728 816.691 95.1751C816.691 94.1775 816.83 93.2615 817.108 92.4274C817.386 91.5769 817.779 90.8409 818.286 90.2194C818.809 89.5979 819.447 89.1154 820.2 88.7719C820.968 88.4285 821.835 88.2567 822.8 88.2567C823.7 88.2567 824.501 88.4039 825.204 88.6983C825.924 88.9927 826.529 89.4425 827.02 90.0477C827.51 90.6365 827.878 91.3807 828.124 92.2802C828.369 93.1634 828.459 94.202 828.394 95.3959L818.409 95.4695V93.8013L826.824 93.7277L825.891 94.7581C825.989 93.7767 825.908 92.9671 825.646 92.3293C825.384 91.6914 825.008 91.2171 824.517 90.9063C824.027 90.5956 823.462 90.4402 822.825 90.4402C822.105 90.4402 821.475 90.6283 820.936 91.0045C820.412 91.3643 820.003 91.8959 819.709 92.5991C819.414 93.3024 819.267 94.1447 819.267 95.1261C819.267 96.5981 819.594 97.7103 820.249 98.4626C820.903 99.1986 821.835 99.5666 823.045 99.5666C823.552 99.5666 823.986 99.5094 824.346 99.3949C824.705 99.264 825.008 99.1005 825.253 98.9042C825.499 98.6916 825.695 98.4463 825.842 98.1682C826.006 97.8738 826.137 97.5712 826.235 97.2605L828.565 97.8002C828.418 98.4054 828.189 98.9451 827.878 99.4194C827.584 99.8774 827.208 100.278 826.75 100.622C826.292 100.949 825.752 101.202 825.131 101.382C824.526 101.562 823.822 101.652 823.021 101.652ZM835.064 101.333V92.6237H832.856V90.5629L836.119 90.7346V90.293C835.661 90.1458 835.277 89.9332 834.966 89.6551C834.672 89.3607 834.443 89.0255 834.279 88.6493C834.132 88.2567 834.059 87.8397 834.059 87.3981C834.059 86.7111 834.222 86.1142 834.549 85.6071C834.876 85.0838 835.334 84.6831 835.923 84.405C836.528 84.1106 837.232 83.9634 838.033 83.9634C838.704 83.9634 839.309 84.0534 839.848 84.2333C840.388 84.3968 840.83 84.6176 841.173 84.8957L840.928 87.349C840.584 87.071 840.184 86.842 839.726 86.6621C839.268 86.4822 838.818 86.3922 838.376 86.3922C837.853 86.3922 837.42 86.5558 837.076 86.8829C836.749 87.1936 836.586 87.6843 836.586 88.3549C836.586 88.7638 836.651 89.1072 836.782 89.3853C836.913 89.6633 837.084 89.8923 837.297 90.0722C837.51 90.2358 837.722 90.3666 837.935 90.4647H841.002V92.6237H837.665V101.333H835.064ZM845.862 101.652C844.423 101.652 843.335 101.161 842.599 100.18C841.863 99.1823 841.495 97.6857 841.495 95.6903V88.5757H844.17V95.3959C844.17 96.7371 844.374 97.7348 844.783 98.389C845.192 99.0432 845.838 99.3703 846.721 99.3703C847.212 99.3703 847.645 99.2477 848.021 99.0023C848.397 98.757 848.725 98.4135 849.003 97.9719C849.297 97.5303 849.526 97.0151 849.69 96.4263C849.869 95.8212 849.992 95.1588 850.058 94.4391V88.5757H852.707V96.0338V101.333H850.45L850.573 97.285H850.156C849.943 98.2991 849.64 99.1332 849.248 99.7874C848.872 100.425 848.397 100.9 847.825 101.21C847.269 101.505 846.615 101.652 845.862 101.652ZM854.691 101.333V93.4823V88.5757H856.998L856.85 92.5501H857.267C857.496 91.5687 857.799 90.7673 858.175 90.1458C858.568 89.5079 859.058 89.0336 859.647 88.7229C860.252 88.4121 860.956 88.2567 861.757 88.2567C863.18 88.2567 864.259 88.7638 864.995 89.7778C865.748 90.7919 866.124 92.3375 866.124 94.4146V101.333H863.425V94.6845C863.425 93.2615 863.213 92.223 862.787 91.5687C862.362 90.8982 861.724 90.5629 860.874 90.5629C860.138 90.5629 859.508 90.8 858.985 91.2743C858.478 91.7323 858.085 92.3375 857.807 93.0898C857.529 93.8422 857.374 94.6599 857.341 95.5431V101.333H854.691ZM875.226 101.652C874.522 101.652 873.893 101.521 873.337 101.259C872.781 100.981 872.339 100.572 872.012 100.033C871.701 99.493 871.546 98.8224 871.546 98.021C871.546 97.3831 871.66 96.8352 871.889 96.3773C872.134 95.903 872.494 95.5104 872.969 95.1997C873.459 94.8726 874.081 94.6109 874.833 94.4146C875.586 94.202 876.477 94.0221 877.507 93.8749C878.08 93.7931 878.546 93.7113 878.906 93.6295C879.282 93.5478 879.552 93.4169 879.715 93.237C879.895 93.0571 879.985 92.7872 879.985 92.4274C879.985 91.8713 879.789 91.397 879.396 91.0045C879.02 90.5956 878.407 90.3911 877.556 90.3911C877.082 90.3911 876.608 90.4729 876.133 90.6365C875.675 90.8 875.275 91.0699 874.931 91.4461C874.604 91.8059 874.383 92.2966 874.269 92.9181L871.865 92.1575C872.012 91.536 872.249 90.9881 872.576 90.5138C872.903 90.0231 873.312 89.6143 873.803 89.2871C874.293 88.9437 874.858 88.6902 875.496 88.5266C876.15 88.3467 876.861 88.2567 877.63 88.2567C878.758 88.2567 879.691 88.4448 880.427 88.821C881.163 89.1972 881.711 89.7778 882.07 90.5629C882.447 91.3316 882.635 92.3211 882.635 93.5314V96.1319C882.635 96.6717 882.643 97.2441 882.659 97.8493C882.692 98.4381 882.725 99.0351 882.757 99.6402C882.806 100.229 882.864 100.793 882.929 101.333H880.5C880.451 100.842 880.402 100.335 880.353 99.8119C880.32 99.2886 880.288 98.757 880.255 98.2173H879.887C879.658 98.8388 879.331 99.4112 878.906 99.9346C878.497 100.458 877.982 100.875 877.36 101.186C876.755 101.497 876.043 101.652 875.226 101.652ZM876.158 99.5911C876.501 99.5911 876.845 99.5339 877.188 99.4194C877.548 99.3049 877.9 99.1332 878.243 98.9042C878.603 98.6589 878.93 98.3481 879.225 97.9719C879.535 97.5958 879.805 97.146 880.034 96.6226L880.01 94.3165L880.648 94.4391C880.37 94.6845 880.018 94.8726 879.593 95.0034C879.184 95.1343 878.734 95.2406 878.243 95.3223C877.753 95.3878 877.262 95.4695 876.771 95.5677C876.297 95.6495 875.855 95.7721 875.446 95.9357C875.054 96.0829 874.735 96.2955 874.49 96.5735C874.261 96.8516 874.146 97.2359 874.146 97.7266C874.146 98.3318 874.334 98.7979 874.71 99.125C875.087 99.4358 875.569 99.5911 876.158 99.5911ZM884.515 101.333V93.4823V88.5757H886.821L886.674 92.5501H887.091C887.32 91.5687 887.622 90.7673 887.999 90.1458C888.391 89.5079 888.882 89.0336 889.471 88.7229C890.076 88.4121 890.779 88.2567 891.58 88.2567C893.003 88.2567 894.083 88.7638 894.819 89.7778C895.571 90.7919 895.947 92.3375 895.947 94.4146V101.333H893.249V94.6845C893.249 93.2615 893.036 92.223 892.611 91.5687C892.186 90.8982 891.548 90.5629 890.697 90.5629C889.961 90.5629 889.332 90.8 888.808 91.2743C888.301 91.7323 887.909 92.3375 887.631 93.0898C887.352 93.8422 887.197 94.6599 887.164 95.5431V101.333H884.515ZM902.317 101.652C901.237 101.652 900.305 101.374 899.52 100.818C898.735 100.245 898.138 99.4603 897.729 98.4626C897.32 97.4486 897.116 96.2791 897.116 94.9543C897.116 93.6623 897.304 92.5174 897.68 91.5197C898.073 90.5056 898.645 89.7124 899.397 89.1399C900.166 88.5675 901.107 88.2813 902.219 88.2813C903.102 88.2813 903.83 88.4612 904.402 88.821C904.975 89.1645 905.433 89.6388 905.776 90.2439C906.136 90.8491 906.406 91.5197 906.586 92.2557H907.076C906.995 91.7814 906.913 91.2907 906.831 90.7837C906.749 90.2603 906.684 89.7615 906.635 89.2871C906.586 88.7965 906.561 88.3631 906.561 87.9869V84.037H909.26V95.0525V101.333H906.929L907.027 97.8002H906.586C906.389 98.6016 906.111 99.2886 905.752 99.861C905.392 100.433 904.926 100.875 904.353 101.186C903.797 101.497 903.118 101.652 902.317 101.652ZM903.053 99.3949C903.625 99.3949 904.132 99.264 904.574 99.0023C905.016 98.7407 905.384 98.3972 905.678 97.9719C905.972 97.5467 906.193 97.0887 906.34 96.5981C906.504 96.0911 906.586 95.6167 906.586 95.1751V94.8317C906.586 94.5046 906.537 94.1529 906.438 93.7767C906.357 93.3842 906.218 92.9999 906.021 92.6237C905.841 92.2311 905.612 91.8795 905.334 91.5687C905.056 91.258 904.721 91.0127 904.329 90.8327C903.952 90.6365 903.527 90.5383 903.053 90.5383C902.366 90.5383 901.785 90.7346 901.311 91.1271C900.853 91.5033 900.501 92.0267 900.256 92.6973C900.011 93.3679 899.888 94.1366 899.888 95.0034C899.888 95.8866 900.011 96.6635 900.256 97.3341C900.518 97.9883 900.886 98.4953 901.36 98.8551C901.834 99.215 902.399 99.3949 903.053 99.3949ZM629.135 130.652C628.039 130.652 627.091 130.48 626.289 130.137C625.504 129.793 624.858 129.319 624.351 128.714C623.844 128.109 623.468 127.414 623.223 126.628C622.977 125.843 622.855 125.001 622.855 124.102C622.855 123.137 622.985 122.245 623.247 121.427C623.509 120.593 623.893 119.865 624.4 119.244C624.924 118.606 625.57 118.115 626.338 117.772C627.107 117.428 627.998 117.257 629.012 117.257C630.01 117.257 630.877 117.428 631.613 117.772C632.365 118.099 632.979 118.573 633.453 119.195C633.927 119.8 634.238 120.511 634.385 121.329L631.883 122.09C631.834 121.615 631.695 121.174 631.466 120.765C631.237 120.356 630.91 120.037 630.484 119.808C630.059 119.563 629.544 119.44 628.939 119.44C628.366 119.44 627.868 119.555 627.442 119.784C627.017 119.996 626.665 120.315 626.387 120.74C626.109 121.149 625.897 121.632 625.749 122.188C625.619 122.744 625.553 123.357 625.553 124.028C625.553 124.944 625.676 125.745 625.921 126.432C626.183 127.103 626.584 127.626 627.123 128.002C627.663 128.362 628.342 128.542 629.16 128.542C629.847 128.542 630.411 128.419 630.852 128.174C631.294 127.929 631.637 127.602 631.883 127.193C632.128 126.767 632.292 126.277 632.373 125.721L634.753 126.285C634.655 126.956 634.459 127.569 634.164 128.125C633.87 128.665 633.486 129.123 633.011 129.499C632.537 129.875 631.973 130.161 631.319 130.358C630.681 130.554 629.953 130.652 629.135 130.652ZM635.463 130.333V122.507V113.037H638.162V117.011C638.162 117.355 638.154 117.715 638.137 118.091C638.121 118.451 638.088 118.819 638.039 119.195C637.99 119.571 637.941 119.947 637.892 120.323C637.843 120.7 637.786 121.084 637.72 121.476H638.162C638.407 120.561 638.71 119.792 639.07 119.17C639.446 118.532 639.912 118.058 640.468 117.747C641.04 117.42 641.727 117.257 642.529 117.257C644.001 117.257 645.097 117.772 645.816 118.802C646.536 119.816 646.896 121.346 646.896 123.39V130.333H644.197V123.734C644.197 122.294 643.976 121.239 643.535 120.569C643.109 119.898 642.463 119.563 641.596 119.563C640.877 119.563 640.272 119.775 639.781 120.201C639.307 120.626 638.931 121.198 638.652 121.918C638.374 122.638 638.195 123.455 638.113 124.371V130.333H635.463ZM654.321 130.652C653.307 130.652 652.407 130.505 651.622 130.21C650.837 129.9 650.175 129.466 649.635 128.91C649.095 128.338 648.686 127.659 648.408 126.874C648.13 126.072 647.991 125.173 647.991 124.175C647.991 123.177 648.13 122.262 648.408 121.427C648.686 120.577 649.079 119.841 649.586 119.219C650.109 118.598 650.747 118.115 651.499 117.772C652.268 117.428 653.135 117.257 654.1 117.257C654.999 117.257 655.801 117.404 656.504 117.698C657.224 117.993 657.829 118.443 658.32 119.048C658.81 119.636 659.178 120.381 659.424 121.28C659.669 122.163 659.759 123.202 659.693 124.396L649.708 124.47V122.801L658.123 122.728L657.191 123.758C657.289 122.777 657.207 121.967 656.946 121.329C656.684 120.691 656.308 120.217 655.817 119.906C655.327 119.596 654.762 119.44 654.124 119.44C653.405 119.44 652.775 119.628 652.235 120.004C651.712 120.364 651.303 120.896 651.009 121.599C650.714 122.302 650.567 123.145 650.567 124.126C650.567 125.598 650.894 126.71 651.548 127.463C652.203 128.199 653.135 128.567 654.345 128.567C654.852 128.567 655.286 128.509 655.645 128.395C656.005 128.264 656.308 128.1 656.553 127.904C656.799 127.692 656.995 127.446 657.142 127.168C657.306 126.874 657.436 126.571 657.535 126.26L659.865 126.8C659.718 127.405 659.489 127.945 659.178 128.419C658.884 128.877 658.508 129.278 658.05 129.622C657.592 129.949 657.052 130.202 656.431 130.382C655.825 130.562 655.122 130.652 654.321 130.652ZM666.673 130.652C665.577 130.652 664.629 130.48 663.827 130.137C663.042 129.793 662.396 129.319 661.889 128.714C661.382 128.109 661.006 127.414 660.76 126.628C660.515 125.843 660.392 125.001 660.392 124.102C660.392 123.137 660.523 122.245 660.785 121.427C661.047 120.593 661.431 119.865 661.938 119.244C662.461 118.606 663.107 118.115 663.876 117.772C664.645 117.428 665.536 117.257 666.55 117.257C667.548 117.257 668.415 117.428 669.151 117.772C669.903 118.099 670.517 118.573 670.991 119.195C671.465 119.8 671.776 120.511 671.923 121.329L669.421 122.09C669.372 121.615 669.233 121.174 669.004 120.765C668.775 120.356 668.448 120.037 668.022 119.808C667.597 119.563 667.082 119.44 666.477 119.44C665.904 119.44 665.405 119.555 664.98 119.784C664.555 119.996 664.203 120.315 663.925 120.74C663.647 121.149 663.435 121.632 663.287 122.188C663.157 122.744 663.091 123.357 663.091 124.028C663.091 124.944 663.214 125.745 663.459 126.432C663.721 127.103 664.122 127.626 664.661 128.002C665.201 128.362 665.88 128.542 666.698 128.542C667.384 128.542 667.949 128.419 668.39 128.174C668.832 127.929 669.175 127.602 669.421 127.193C669.666 126.767 669.83 126.277 669.911 125.721L672.291 126.285C672.193 126.956 671.997 127.569 671.702 128.125C671.408 128.665 671.024 129.123 670.549 129.499C670.075 129.875 669.511 130.161 668.856 130.358C668.219 130.554 667.491 130.652 666.673 130.652ZM673.001 130.333V113.012H675.626V122.801C676.231 122.474 676.804 122.098 677.343 121.673C677.9 121.231 678.407 120.773 678.865 120.299C679.339 119.825 679.748 119.358 680.091 118.9C680.451 118.426 680.729 117.985 680.925 117.576H684.017C683.722 118.197 683.346 118.819 682.888 119.44C682.446 120.045 681.939 120.618 681.367 121.158C680.794 121.681 680.165 122.139 679.478 122.531C678.807 122.908 678.104 123.169 677.368 123.316V123.635C678.284 123.537 679.069 123.611 679.723 123.856C680.377 124.102 680.942 124.47 681.416 124.96C681.89 125.451 682.307 126.023 682.667 126.678C683.043 127.315 683.395 127.97 683.722 128.64L684.409 130.333H681.465L680.974 129.18C680.615 128.346 680.23 127.61 679.821 126.972C679.429 126.318 678.954 125.803 678.398 125.426C677.859 125.05 677.188 124.862 676.387 124.862H675.626V130.333H673.001ZM694.986 130.652C693.76 130.652 692.672 130.39 691.723 129.867C690.775 129.343 690.031 128.583 689.491 127.585C688.968 126.588 688.706 125.361 688.706 123.905C688.706 122.417 688.984 121.182 689.54 120.201C690.096 119.219 690.84 118.483 691.773 117.993C692.721 117.502 693.784 117.257 694.962 117.257C696.172 117.257 697.252 117.51 698.2 118.017C699.149 118.524 699.893 119.277 700.433 120.274C700.989 121.272 701.267 122.515 701.267 124.003C701.267 125.475 700.989 126.71 700.433 127.708C699.893 128.689 699.149 129.425 698.2 129.916C697.252 130.407 696.18 130.652 694.986 130.652ZM695.085 128.542C695.821 128.542 696.45 128.37 696.974 128.027C697.497 127.683 697.898 127.176 698.176 126.506C698.454 125.835 698.593 125.034 698.593 124.102C698.593 123.137 698.446 122.311 698.151 121.624C697.857 120.92 697.432 120.381 696.875 120.004C696.336 119.628 695.673 119.44 694.888 119.44C694.185 119.44 693.563 119.612 693.024 119.955C692.5 120.283 692.1 120.781 691.822 121.452C691.544 122.106 691.405 122.908 691.405 123.856C691.405 125.345 691.732 126.498 692.386 127.315C693.04 128.133 693.94 128.542 695.085 128.542ZM706.708 130.652C705.268 130.652 704.181 130.161 703.445 129.18C702.709 128.182 702.341 126.686 702.341 124.69V117.576H705.015V124.396C705.015 125.737 705.219 126.735 705.628 127.389C706.037 128.043 706.683 128.37 707.566 128.37C708.057 128.37 708.49 128.248 708.866 128.002C709.243 127.757 709.57 127.414 709.848 126.972C710.142 126.53 710.371 126.015 710.535 125.426C710.715 124.821 710.837 124.159 710.903 123.439V117.576H713.552V125.034V130.333H711.295L711.418 126.285H711.001C710.788 127.299 710.486 128.133 710.093 128.787C709.717 129.425 709.243 129.9 708.67 130.21C708.114 130.505 707.46 130.652 706.708 130.652ZM719.78 130.603C718.521 130.603 717.581 130.259 716.959 129.572C716.354 128.886 716.051 127.831 716.051 126.408V119.759H714.162L714.211 117.576H715.438C715.863 117.576 716.182 117.51 716.395 117.379C716.607 117.232 716.738 116.979 716.787 116.619L717.033 114.73H718.627V117.576H722.136V119.808H718.627V126.334C718.627 126.972 718.775 127.43 719.069 127.708C719.363 127.986 719.797 128.125 720.369 128.125C720.68 128.125 720.991 128.092 721.301 128.027C721.629 127.945 721.939 127.798 722.234 127.585V130.161C721.743 130.325 721.293 130.439 720.884 130.505C720.475 130.57 720.107 130.603 719.78 130.603ZM732.206 134.651C731.552 134.651 730.889 134.577 730.219 134.43C729.565 134.299 728.959 134.087 728.403 133.792C727.847 133.514 727.381 133.146 727.005 132.688L728.084 130.578C728.51 131.134 729.082 131.551 729.802 131.83C730.521 132.124 731.282 132.271 732.083 132.271C732.999 132.271 733.752 132.075 734.34 131.682C734.945 131.306 735.403 130.717 735.714 129.916C736.025 129.115 736.189 128.109 736.205 126.898L736.426 124.445H735.96C735.78 125.606 735.493 126.539 735.101 127.242C734.725 127.945 734.259 128.452 733.702 128.763C733.146 129.074 732.492 129.229 731.74 129.229C730.808 129.229 730.022 129 729.385 128.542C728.763 128.068 728.289 127.373 727.962 126.457C727.651 125.524 727.496 124.388 727.496 123.047V117.576H730.145V122.458C730.145 124.012 730.35 125.148 730.758 125.868C731.184 126.588 731.813 126.947 732.648 126.947C733.105 126.947 733.514 126.833 733.874 126.604C734.234 126.375 734.545 126.04 734.806 125.598C735.085 125.14 735.297 124.576 735.444 123.905C735.608 123.235 735.706 122.458 735.739 121.575V117.576H738.413V127.021C738.413 128.035 738.331 128.951 738.168 129.769C738.004 130.57 737.75 131.273 737.407 131.879C737.08 132.5 736.671 133.015 736.18 133.424C735.69 133.849 735.109 134.16 734.438 134.356C733.784 134.553 733.04 134.651 732.206 134.651ZM745.922 130.652C744.695 130.652 743.607 130.39 742.659 129.867C741.71 129.343 740.966 128.583 740.426 127.585C739.903 126.588 739.641 125.361 739.641 123.905C739.641 122.417 739.919 121.182 740.475 120.201C741.031 119.219 741.776 118.483 742.708 117.993C743.657 117.502 744.72 117.257 745.897 117.257C747.108 117.257 748.187 117.51 749.136 118.017C750.084 118.524 750.828 119.277 751.368 120.274C751.924 121.272 752.202 122.515 752.202 124.003C752.202 125.475 751.924 126.71 751.368 127.708C750.828 128.689 750.084 129.425 749.136 129.916C748.187 130.407 747.116 130.652 745.922 130.652ZM746.02 128.542C746.756 128.542 747.386 128.37 747.909 128.027C748.432 127.683 748.833 127.176 749.111 126.506C749.389 125.835 749.528 125.034 749.528 124.102C749.528 123.137 749.381 122.311 749.087 121.624C748.792 120.92 748.367 120.381 747.811 120.004C747.271 119.628 746.609 119.44 745.824 119.44C745.12 119.44 744.499 119.612 743.959 119.955C743.436 120.283 743.035 120.781 742.757 121.452C742.479 122.106 742.34 122.908 742.34 123.856C742.34 125.345 742.667 126.498 743.321 127.315C743.975 128.133 744.875 128.542 746.02 128.542ZM757.643 130.652C756.204 130.652 755.116 130.161 754.38 129.18C753.644 128.182 753.276 126.686 753.276 124.69V117.576H755.95V124.396C755.95 125.737 756.155 126.735 756.564 127.389C756.972 128.043 757.618 128.37 758.502 128.37C758.992 128.37 759.426 128.248 759.802 128.002C760.178 127.757 760.505 127.414 760.783 126.972C761.078 126.53 761.307 126.015 761.47 125.426C761.65 124.821 761.773 124.159 761.838 123.439V117.576H764.488V125.034V130.333H762.231L762.353 126.285H761.936C761.724 127.299 761.421 128.133 761.029 128.787C760.652 129.425 760.178 129.9 759.606 130.21C759.05 130.505 758.395 130.652 757.643 130.652ZM766.472 130.333V123.684V117.576H768.778L768.656 121.992H769.073C769.22 120.994 769.449 120.143 769.76 119.44C770.07 118.737 770.496 118.205 771.035 117.846C771.575 117.469 772.246 117.281 773.047 117.281C773.211 117.281 773.39 117.289 773.587 117.306C773.783 117.322 774.004 117.371 774.249 117.453L774.126 120.25C773.881 120.152 773.628 120.086 773.366 120.054C773.104 120.004 772.867 119.98 772.654 119.98C772 119.98 771.444 120.168 770.986 120.544C770.528 120.904 770.144 121.411 769.833 122.065C769.539 122.703 769.31 123.447 769.146 124.298V130.333H766.472ZM779.223 130.333V123.684V117.576H781.529L781.406 121.992H781.823C781.97 120.994 782.199 120.143 782.51 119.44C782.821 118.737 783.246 118.205 783.786 117.846C784.326 117.469 784.996 117.281 785.798 117.281C785.961 117.281 786.141 117.289 786.337 117.306C786.534 117.322 786.754 117.371 787 117.453L786.877 120.25C786.632 120.152 786.378 120.086 786.117 120.054C785.855 120.004 785.618 119.98 785.405 119.98C784.751 119.98 784.195 120.168 783.737 120.544C783.279 120.904 782.895 121.411 782.584 122.065C782.289 122.703 782.06 123.447 781.897 124.298V130.333H779.223ZM793.073 130.652C792.059 130.652 791.159 130.505 790.374 130.21C789.589 129.9 788.927 129.466 788.387 128.91C787.847 128.338 787.438 127.659 787.16 126.874C786.882 126.072 786.743 125.173 786.743 124.175C786.743 123.177 786.882 122.262 787.16 121.427C787.438 120.577 787.831 119.841 788.338 119.219C788.861 118.598 789.499 118.115 790.252 117.772C791.02 117.428 791.887 117.257 792.852 117.257C793.752 117.257 794.553 117.404 795.256 117.698C795.976 117.993 796.581 118.443 797.072 119.048C797.563 119.636 797.931 120.381 798.176 121.28C798.421 122.163 798.511 123.202 798.446 124.396L788.461 124.47V122.801L796.876 122.728L795.943 123.758C796.041 122.777 795.96 121.967 795.698 121.329C795.436 120.691 795.06 120.217 794.569 119.906C794.079 119.596 793.515 119.44 792.877 119.44C792.157 119.44 791.527 119.628 790.988 120.004C790.464 120.364 790.055 120.896 789.761 121.599C789.467 122.302 789.319 123.145 789.319 124.126C789.319 125.598 789.646 126.71 790.301 127.463C790.955 128.199 791.887 128.567 793.097 128.567C793.604 128.567 794.038 128.509 794.398 128.395C794.758 128.264 795.06 128.1 795.305 127.904C795.551 127.692 795.747 127.446 795.894 127.168C796.058 126.874 796.189 126.571 796.287 126.26L798.617 126.8C798.47 127.405 798.241 127.945 797.931 128.419C797.636 128.877 797.26 129.278 796.802 129.622C796.344 129.949 795.804 130.202 795.183 130.382C794.578 130.562 793.874 130.652 793.073 130.652ZM801.772 130.333L798.46 117.576H801.207L803.489 128.125H803.906L806.408 117.576H809.745L812.296 128.125H812.689L814.946 117.576H817.669L814.333 130.333H810.628L808.199 119.808H807.88L805.476 130.333H801.772ZM821.19 130.652C820.487 130.652 819.857 130.521 819.301 130.259C818.745 129.981 818.303 129.572 817.976 129.033C817.665 128.493 817.51 127.822 817.51 127.021C817.51 126.383 817.625 125.835 817.854 125.377C818.099 124.903 818.459 124.51 818.933 124.2C819.424 123.873 820.045 123.611 820.798 123.415C821.55 123.202 822.441 123.022 823.472 122.875C824.044 122.793 824.51 122.711 824.87 122.63C825.246 122.548 825.516 122.417 825.68 122.237C825.86 122.057 825.95 121.787 825.95 121.427C825.95 120.871 825.753 120.397 825.361 120.004C824.985 119.596 824.371 119.391 823.521 119.391C823.046 119.391 822.572 119.473 822.098 119.636C821.64 119.8 821.239 120.07 820.896 120.446C820.569 120.806 820.348 121.297 820.233 121.918L817.829 121.158C817.976 120.536 818.213 119.988 818.54 119.514C818.868 119.023 819.276 118.614 819.767 118.287C820.258 117.944 820.822 117.69 821.46 117.527C822.114 117.347 822.826 117.257 823.594 117.257C824.723 117.257 825.655 117.445 826.391 117.821C827.127 118.197 827.675 118.778 828.035 119.563C828.411 120.332 828.599 121.321 828.599 122.531V125.132C828.599 125.672 828.607 126.244 828.624 126.849C828.656 127.438 828.689 128.035 828.722 128.64C828.771 129.229 828.828 129.793 828.894 130.333H826.465C826.416 129.842 826.367 129.335 826.318 128.812C826.285 128.289 826.252 127.757 826.219 127.217H825.851C825.622 127.839 825.295 128.411 824.87 128.935C824.461 129.458 823.946 129.875 823.324 130.186C822.719 130.497 822.008 130.652 821.19 130.652ZM822.122 128.591C822.466 128.591 822.809 128.534 823.153 128.419C823.513 128.305 823.864 128.133 824.208 127.904C824.567 127.659 824.895 127.348 825.189 126.972C825.5 126.596 825.77 126.146 825.999 125.623L825.974 123.316L826.612 123.439C826.334 123.684 825.982 123.873 825.557 124.003C825.148 124.134 824.698 124.241 824.208 124.322C823.717 124.388 823.226 124.47 822.736 124.568C822.261 124.649 821.82 124.772 821.411 124.936C821.018 125.083 820.699 125.295 820.454 125.574C820.225 125.852 820.111 126.236 820.111 126.727C820.111 127.332 820.299 127.798 820.675 128.125C821.051 128.436 821.534 128.591 822.122 128.591ZM830.479 130.333V123.684V117.576H832.785L832.663 121.992H833.08C833.227 120.994 833.456 120.143 833.767 119.44C834.077 118.737 834.503 118.205 835.042 117.846C835.582 117.469 836.253 117.281 837.054 117.281C837.218 117.281 837.398 117.289 837.594 117.306C837.79 117.322 838.011 117.371 838.256 117.453L838.134 120.25C837.888 120.152 837.635 120.086 837.373 120.054C837.111 120.004 836.874 119.98 836.662 119.98C836.007 119.98 835.451 120.168 834.993 120.544C834.535 120.904 834.151 121.411 833.84 122.065C833.546 122.703 833.317 123.447 833.153 124.298V130.333H830.479ZM843.274 130.652C842.194 130.652 841.262 130.374 840.477 129.818C839.692 129.245 839.095 128.46 838.686 127.463C838.277 126.449 838.073 125.279 838.073 123.954C838.073 122.662 838.261 121.517 838.637 120.52C839.03 119.506 839.602 118.712 840.354 118.14C841.123 117.567 842.064 117.281 843.176 117.281C844.059 117.281 844.787 117.461 845.359 117.821C845.932 118.164 846.39 118.639 846.733 119.244C847.093 119.849 847.363 120.52 847.543 121.256H848.033C847.952 120.781 847.87 120.291 847.788 119.784C847.706 119.26 847.641 118.761 847.592 118.287C847.543 117.796 847.518 117.363 847.518 116.987V113.037H850.217V124.052V130.333H847.886L847.984 126.8H847.543C847.346 127.602 847.068 128.289 846.709 128.861C846.349 129.433 845.883 129.875 845.31 130.186C844.754 130.497 844.075 130.652 843.274 130.652ZM844.01 128.395C844.582 128.395 845.089 128.264 845.531 128.002C845.973 127.741 846.341 127.397 846.635 126.972C846.929 126.547 847.15 126.089 847.297 125.598C847.461 125.091 847.543 124.617 847.543 124.175V123.832C847.543 123.505 847.494 123.153 847.395 122.777C847.314 122.384 847.175 122 846.978 121.624C846.799 121.231 846.57 120.879 846.291 120.569C846.013 120.258 845.678 120.013 845.286 119.833C844.909 119.636 844.484 119.538 844.01 119.538C843.323 119.538 842.742 119.735 842.268 120.127C841.81 120.503 841.458 121.027 841.213 121.697C840.968 122.368 840.845 123.137 840.845 124.003C840.845 124.887 840.968 125.663 841.213 126.334C841.475 126.988 841.843 127.495 842.317 127.855C842.791 128.215 843.356 128.395 844.01 128.395ZM857.048 130.652C856.165 130.652 855.38 130.562 854.693 130.382C854.006 130.202 853.417 129.949 852.926 129.622C852.452 129.278 852.084 128.869 851.822 128.395C851.561 127.921 851.405 127.405 851.356 126.849L853.515 126.138C853.515 126.612 853.662 127.037 853.957 127.414C854.251 127.79 854.668 128.084 855.208 128.297C855.764 128.493 856.426 128.591 857.195 128.591C858.095 128.591 858.79 128.444 859.28 128.15C859.771 127.855 860.016 127.446 860.016 126.923C860.016 126.53 859.877 126.22 859.599 125.991C859.338 125.762 858.953 125.574 858.446 125.426C857.956 125.279 857.375 125.14 856.704 125.009C856.099 124.878 855.494 124.731 854.889 124.568C854.3 124.388 853.752 124.159 853.245 123.881C852.754 123.603 852.354 123.243 852.043 122.801C851.749 122.343 851.601 121.771 851.601 121.084C851.601 120.299 851.806 119.628 852.215 119.072C852.624 118.5 853.212 118.058 853.981 117.747C854.766 117.42 855.698 117.257 856.778 117.257C857.825 117.257 858.724 117.412 859.477 117.723C860.245 118.034 860.859 118.467 861.317 119.023C861.775 119.579 862.053 120.233 862.151 120.986L859.894 121.648C859.861 121.141 859.706 120.716 859.428 120.372C859.166 120.029 858.806 119.775 858.348 119.612C857.89 119.432 857.35 119.342 856.729 119.342C855.911 119.342 855.265 119.489 854.791 119.784C854.333 120.078 854.104 120.479 854.104 120.986C854.104 121.378 854.243 121.697 854.521 121.943C854.815 122.172 855.208 122.36 855.698 122.507C856.206 122.638 856.778 122.769 857.416 122.899C858.07 123.03 858.7 123.177 859.305 123.341C859.91 123.505 860.45 123.725 860.924 124.003C861.415 124.265 861.799 124.625 862.077 125.083C862.372 125.524 862.519 126.089 862.519 126.776C862.519 127.61 862.29 128.321 861.832 128.91C861.39 129.483 860.761 129.916 859.943 130.21C859.125 130.505 858.16 130.652 857.048 130.652ZM874.951 130.652C874.133 130.652 873.43 130.488 872.841 130.161C872.269 129.834 871.803 129.384 871.443 128.812C871.083 128.239 870.813 127.569 870.633 126.8H870.216L870.29 130.333H867.984V124.052V113.037H870.658V117.085C870.658 117.494 870.633 117.935 870.584 118.41C870.535 118.868 870.47 119.342 870.388 119.833C870.322 120.307 870.249 120.781 870.167 121.256H870.633C870.829 120.52 871.099 119.857 871.443 119.268C871.803 118.663 872.269 118.181 872.841 117.821C873.414 117.461 874.125 117.281 874.976 117.281C876.039 117.281 876.955 117.567 877.723 118.14C878.492 118.696 879.081 119.481 879.49 120.495C879.915 121.493 880.128 122.662 880.128 124.003C880.128 125.312 879.923 126.465 879.514 127.463C879.122 128.46 878.541 129.245 877.772 129.818C877.004 130.374 876.063 130.652 874.951 130.652ZM874.19 128.395C874.845 128.395 875.409 128.215 875.883 127.855C876.358 127.495 876.717 126.988 876.963 126.334C877.224 125.663 877.355 124.887 877.355 124.003C877.355 123.137 877.233 122.368 876.987 121.697C876.742 121.027 876.382 120.503 875.908 120.127C875.45 119.735 874.886 119.538 874.215 119.538C873.741 119.538 873.307 119.636 872.915 119.833C872.539 120.013 872.203 120.258 871.909 120.569C871.631 120.879 871.394 121.223 871.197 121.599C871.018 121.975 870.878 122.36 870.78 122.752C870.682 123.145 870.633 123.505 870.633 123.832V124.175C870.633 124.617 870.707 125.091 870.854 125.598C871.018 126.089 871.246 126.547 871.541 126.972C871.852 127.397 872.228 127.741 872.669 128.002C873.111 128.264 873.618 128.395 874.19 128.395ZM887.081 130.652C886.067 130.652 885.167 130.505 884.382 130.21C883.597 129.9 882.934 129.466 882.395 128.91C881.855 128.338 881.446 127.659 881.168 126.874C880.89 126.072 880.751 125.173 880.751 124.175C880.751 123.177 880.89 122.262 881.168 121.427C881.446 120.577 881.839 119.841 882.346 119.219C882.869 118.598 883.507 118.115 884.259 117.772C885.028 117.428 885.895 117.257 886.86 117.257C887.759 117.257 888.561 117.404 889.264 117.698C889.984 117.993 890.589 118.443 891.08 119.048C891.57 119.636 891.938 120.381 892.184 121.28C892.429 122.163 892.519 123.202 892.453 124.396L882.468 124.47V122.801L890.883 122.728L889.951 123.758C890.049 122.777 889.967 121.967 889.706 121.329C889.444 120.691 889.068 120.217 888.577 119.906C888.086 119.596 887.522 119.44 886.884 119.44C886.165 119.44 885.535 119.628 884.995 120.004C884.472 120.364 884.063 120.896 883.769 121.599C883.474 122.302 883.327 123.145 883.327 124.126C883.327 125.598 883.654 126.71 884.308 127.463C884.963 128.199 885.895 128.567 887.105 128.567C887.612 128.567 888.046 128.509 888.405 128.395C888.765 128.264 889.068 128.1 889.313 127.904C889.558 127.692 889.755 127.446 889.902 127.168C890.066 126.874 890.196 126.571 890.294 126.26L892.625 126.8C892.478 127.405 892.249 127.945 891.938 128.419C891.644 128.877 891.268 129.278 890.81 129.622C890.352 129.949 889.812 130.202 889.19 130.382C888.585 130.562 887.882 130.652 887.081 130.652ZM893.767 130.333V113.037H896.393V130.333H893.767ZM903.951 130.652C902.724 130.652 901.637 130.39 900.688 129.867C899.739 129.343 898.995 128.583 898.455 127.585C897.932 126.588 897.67 125.361 897.67 123.905C897.67 122.417 897.948 121.182 898.505 120.201C899.061 119.219 899.805 118.483 900.737 117.993C901.686 117.502 902.749 117.257 903.926 117.257C905.137 117.257 906.216 117.51 907.165 118.017C908.113 118.524 908.858 119.277 909.397 120.274C909.953 121.272 910.231 122.515 910.231 124.003C910.231 125.475 909.953 126.71 909.397 127.708C908.858 128.689 908.113 129.425 907.165 129.916C906.216 130.407 905.145 130.652 903.951 130.652ZM904.049 128.542C904.785 128.542 905.415 128.37 905.938 128.027C906.462 127.683 906.862 127.176 907.14 126.506C907.418 125.835 907.557 125.034 907.557 124.102C907.557 123.137 907.41 122.311 907.116 121.624C906.821 120.92 906.396 120.381 905.84 120.004C905.3 119.628 904.638 119.44 903.853 119.44C903.15 119.44 902.528 119.612 901.988 119.955C901.465 120.283 901.064 120.781 900.786 121.452C900.508 122.106 900.369 122.908 900.369 123.856C900.369 125.345 900.696 126.498 901.35 127.315C902.005 128.133 902.904 128.542 904.049 128.542ZM913.417 130.333L910.105 117.576H912.853L915.135 128.125H915.552L918.054 117.576H921.391L923.942 128.125H924.335L926.592 117.576H929.315L925.978 130.333H922.274L919.845 119.808H919.526L917.122 130.333H913.417ZM930.624 125.794L929.864 114.141H933.029L932.293 125.794H930.624ZM931.434 130.627C930.829 130.627 930.379 130.497 930.085 130.235C929.79 129.973 929.643 129.564 929.643 129.008C929.643 128.436 929.79 128.019 930.085 127.757C930.379 127.495 930.829 127.364 931.434 127.364C932.056 127.364 932.522 127.495 932.832 127.757C933.143 128.019 933.299 128.436 933.299 129.008C933.299 130.088 932.677 130.627 931.434 130.627ZM685.598 159.333V143.141H688.272V159.333H685.598ZM686.309 159.333V157.027H695.583V159.333H686.309ZM701.6 159.652C700.586 159.652 699.686 159.505 698.901 159.21C698.116 158.9 697.454 158.466 696.914 157.91C696.374 157.338 695.966 156.659 695.687 155.874C695.409 155.072 695.27 154.173 695.27 153.175C695.27 152.177 695.409 151.262 695.687 150.427C695.966 149.577 696.358 148.841 696.865 148.219C697.388 147.598 698.026 147.115 698.779 146.772C699.547 146.428 700.414 146.257 701.379 146.257C702.279 146.257 703.08 146.404 703.783 146.698C704.503 146.993 705.108 147.443 705.599 148.048C706.09 148.636 706.458 149.381 706.703 150.28C706.948 151.163 707.038 152.202 706.973 153.396L696.988 153.47V151.801L705.403 151.728L704.47 152.758C704.569 151.777 704.487 150.967 704.225 150.329C703.963 149.691 703.587 149.217 703.097 148.906C702.606 148.596 702.042 148.44 701.404 148.44C700.684 148.44 700.054 148.628 699.515 149.004C698.991 149.364 698.582 149.896 698.288 150.599C697.994 151.302 697.846 152.145 697.846 153.126C697.846 154.598 698.174 155.71 698.828 156.463C699.482 157.199 700.414 157.567 701.625 157.567C702.132 157.567 702.565 157.509 702.925 157.395C703.285 157.264 703.587 157.1 703.833 156.904C704.078 156.692 704.274 156.446 704.421 156.168C704.585 155.874 704.716 155.571 704.814 155.26L707.145 155.8C706.997 156.405 706.768 156.945 706.458 157.419C706.163 157.877 705.787 158.278 705.329 158.622C704.871 158.949 704.331 159.202 703.71 159.382C703.105 159.562 702.401 159.652 701.6 159.652ZM712.507 159.603C711.247 159.603 710.307 159.259 709.685 158.572C709.08 157.886 708.778 156.831 708.778 155.408V148.759H706.888L706.938 146.576H708.164C708.589 146.576 708.908 146.51 709.121 146.379C709.334 146.232 709.464 145.979 709.514 145.619L709.759 143.73H711.354V146.576H714.862V148.808H711.354V155.334C711.354 155.972 711.501 156.43 711.795 156.708C712.09 156.986 712.523 157.125 713.095 157.125C713.406 157.125 713.717 157.092 714.028 157.027C714.355 156.945 714.666 156.798 714.96 156.585V159.161C714.469 159.325 714.02 159.439 713.611 159.505C713.202 159.57 712.834 159.603 712.507 159.603ZM715.134 147.999L714.791 142.037H717.293L716.925 147.999H715.134ZM722.709 159.652C721.825 159.652 721.04 159.562 720.353 159.382C719.667 159.202 719.078 158.949 718.587 158.622C718.113 158.278 717.745 157.869 717.483 157.395C717.221 156.921 717.066 156.405 717.017 155.849L719.176 155.138C719.176 155.612 719.323 156.037 719.617 156.414C719.912 156.79 720.329 157.084 720.869 157.297C721.425 157.493 722.087 157.591 722.856 157.591C723.755 157.591 724.451 157.444 724.941 157.15C725.432 156.855 725.677 156.446 725.677 155.923C725.677 155.53 725.538 155.22 725.26 154.991C724.998 154.762 724.614 154.574 724.107 154.426C723.616 154.279 723.036 154.14 722.365 154.009C721.76 153.878 721.155 153.731 720.55 153.568C719.961 153.388 719.413 153.159 718.906 152.881C718.415 152.603 718.015 152.243 717.704 151.801C717.409 151.343 717.262 150.771 717.262 150.084C717.262 149.299 717.467 148.628 717.876 148.072C718.284 147.5 718.873 147.058 719.642 146.747C720.427 146.42 721.359 146.257 722.439 146.257C723.486 146.257 724.385 146.412 725.137 146.723C725.906 147.034 726.52 147.467 726.977 148.023C727.435 148.579 727.713 149.233 727.812 149.986L725.555 150.648C725.522 150.141 725.366 149.716 725.088 149.372C724.827 149.029 724.467 148.775 724.009 148.612C723.551 148.432 723.011 148.342 722.39 148.342C721.572 148.342 720.926 148.489 720.452 148.784C719.994 149.078 719.765 149.479 719.765 149.986C719.765 150.378 719.904 150.697 720.182 150.943C720.476 151.172 720.869 151.36 721.359 151.507C721.866 151.638 722.439 151.769 723.077 151.899C723.731 152.03 724.361 152.177 724.966 152.341C725.571 152.505 726.111 152.725 726.585 153.003C727.076 153.265 727.46 153.625 727.738 154.083C728.032 154.524 728.18 155.089 728.18 155.776C728.18 156.61 727.951 157.321 727.493 157.91C727.051 158.483 726.421 158.916 725.604 159.21C724.786 159.505 723.821 159.652 722.709 159.652ZM739.238 159.652C738.142 159.652 737.194 159.48 736.392 159.137C735.607 158.793 734.961 158.319 734.454 157.714C733.947 157.109 733.571 156.414 733.325 155.628C733.08 154.843 732.957 154.001 732.957 153.102C732.957 152.137 733.088 151.245 733.35 150.427C733.612 149.593 733.996 148.865 734.503 148.244C735.026 147.606 735.672 147.115 736.441 146.772C737.21 146.428 738.101 146.257 739.115 146.257C740.113 146.257 740.98 146.428 741.716 146.772C742.468 147.099 743.082 147.573 743.556 148.195C744.03 148.8 744.341 149.511 744.488 150.329L741.986 151.09C741.937 150.615 741.798 150.174 741.569 149.765C741.34 149.356 741.013 149.037 740.587 148.808C740.162 148.563 739.647 148.44 739.042 148.44C738.469 148.44 737.97 148.555 737.545 148.784C737.12 148.996 736.768 149.315 736.49 149.74C736.212 150.149 736 150.632 735.852 151.188C735.722 151.744 735.656 152.357 735.656 153.028C735.656 153.944 735.779 154.745 736.024 155.432C736.286 156.103 736.687 156.626 737.226 157.002C737.766 157.362 738.445 157.542 739.263 157.542C739.949 157.542 740.514 157.419 740.955 157.174C741.397 156.929 741.74 156.602 741.986 156.193C742.231 155.767 742.395 155.277 742.476 154.721L744.856 155.285C744.758 155.956 744.562 156.569 744.267 157.125C743.973 157.665 743.589 158.123 743.114 158.499C742.64 158.875 742.076 159.161 741.421 159.358C740.784 159.554 740.056 159.652 739.238 159.652ZM751.184 159.652C750.17 159.652 749.271 159.505 748.486 159.21C747.7 158.9 747.038 158.466 746.498 157.91C745.959 157.338 745.55 156.659 745.272 155.874C744.994 155.072 744.855 154.173 744.855 153.175C744.855 152.177 744.994 151.262 745.272 150.427C745.55 149.577 745.942 148.841 746.449 148.219C746.973 147.598 747.611 147.115 748.363 146.772C749.132 146.428 749.998 146.257 750.963 146.257C751.863 146.257 752.664 146.404 753.368 146.698C754.087 146.993 754.692 147.443 755.183 148.048C755.674 148.636 756.042 149.381 756.287 150.28C756.532 151.163 756.622 152.202 756.557 153.396L746.572 153.47V151.801L754.987 151.728L754.055 152.758C754.153 151.777 754.071 150.967 753.809 150.329C753.548 149.691 753.171 149.217 752.681 148.906C752.19 148.596 751.626 148.44 750.988 148.44C750.268 148.44 749.639 148.628 749.099 149.004C748.575 149.364 748.167 149.896 747.872 150.599C747.578 151.302 747.431 152.145 747.431 153.126C747.431 154.598 747.758 155.71 748.412 156.463C749.066 157.199 749.998 157.567 751.209 157.567C751.716 157.567 752.149 157.509 752.509 157.395C752.869 157.264 753.171 157.1 753.417 156.904C753.662 156.692 753.858 156.446 754.006 156.168C754.169 155.874 754.3 155.571 754.398 155.26L756.729 155.8C756.582 156.405 756.353 156.945 756.042 157.419C755.747 157.877 755.371 158.278 754.913 158.622C754.455 158.949 753.916 159.202 753.294 159.382C752.689 159.562 751.986 159.652 751.184 159.652ZM757.871 159.333V142.037H760.496V159.333H757.871ZM768.104 159.652C767.09 159.652 766.19 159.505 765.405 159.21C764.62 158.9 763.957 158.466 763.418 157.91C762.878 157.338 762.469 156.659 762.191 155.874C761.913 155.072 761.774 154.173 761.774 153.175C761.774 152.177 761.913 151.262 762.191 150.427C762.469 149.577 762.862 148.841 763.369 148.219C763.892 147.598 764.53 147.115 765.282 146.772C766.051 146.428 766.918 146.257 767.883 146.257C768.782 146.257 769.584 146.404 770.287 146.698C771.007 146.993 771.612 147.443 772.102 148.048C772.593 148.636 772.961 149.381 773.206 150.28C773.452 151.163 773.542 152.202 773.476 153.396L763.491 153.47V151.801L771.906 151.728L770.974 152.758C771.072 151.777 770.99 150.967 770.729 150.329C770.467 149.691 770.091 149.217 769.6 148.906C769.109 148.596 768.545 148.44 767.907 148.44C767.188 148.44 766.558 148.628 766.018 149.004C765.495 149.364 765.086 149.896 764.792 150.599C764.497 151.302 764.35 152.145 764.35 153.126C764.35 154.598 764.677 155.71 765.331 156.463C765.986 157.199 766.918 157.567 768.128 157.567C768.635 157.567 769.069 157.509 769.428 157.395C769.788 157.264 770.091 157.1 770.336 156.904C770.581 156.692 770.778 156.446 770.925 156.168C771.088 155.874 771.219 155.571 771.317 155.26L773.648 155.8C773.501 156.405 773.272 156.945 772.961 157.419C772.667 157.877 772.291 158.278 771.833 158.622C771.375 158.949 770.835 159.202 770.213 159.382C769.608 159.562 768.905 159.652 768.104 159.652ZM781.758 159.652C780.94 159.652 780.237 159.488 779.648 159.161C779.076 158.834 778.609 158.384 778.25 157.812C777.89 157.239 777.62 156.569 777.44 155.8H777.023L777.097 159.333H774.79V153.052V142.037H777.465V146.085C777.465 146.494 777.44 146.935 777.391 147.41C777.342 147.868 777.276 148.342 777.195 148.833C777.129 149.307 777.056 149.781 776.974 150.256H777.44C777.636 149.52 777.906 148.857 778.25 148.268C778.609 147.663 779.076 147.181 779.648 146.821C780.22 146.461 780.932 146.281 781.782 146.281C782.846 146.281 783.761 146.567 784.53 147.14C785.299 147.696 785.888 148.481 786.297 149.495C786.722 150.493 786.934 151.662 786.934 153.003C786.934 154.312 786.73 155.465 786.321 156.463C785.929 157.46 785.348 158.245 784.579 158.818C783.811 159.374 782.87 159.652 781.758 159.652ZM780.997 157.395C781.652 157.395 782.216 157.215 782.69 156.855C783.164 156.495 783.524 155.988 783.77 155.334C784.031 154.663 784.162 153.887 784.162 153.003C784.162 152.137 784.04 151.368 783.794 150.697C783.549 150.027 783.189 149.503 782.715 149.127C782.257 148.735 781.692 148.538 781.022 148.538C780.548 148.538 780.114 148.636 779.722 148.833C779.345 149.013 779.01 149.258 778.716 149.569C778.438 149.879 778.201 150.223 778.004 150.599C777.824 150.975 777.685 151.36 777.587 151.752C777.489 152.145 777.44 152.505 777.44 152.832V153.175C777.44 153.617 777.514 154.091 777.661 154.598C777.824 155.089 778.053 155.547 778.348 155.972C778.659 156.397 779.035 156.741 779.476 157.002C779.918 157.264 780.425 157.395 780.997 157.395ZM788.269 159.333V152.684V146.576H790.576L790.453 150.992H790.87C791.017 149.994 791.246 149.143 791.557 148.44C791.868 147.737 792.293 147.205 792.833 146.846C793.372 146.469 794.043 146.281 794.844 146.281C795.008 146.281 795.188 146.289 795.384 146.306C795.58 146.322 795.801 146.371 796.046 146.453L795.924 149.25C795.678 149.152 795.425 149.086 795.163 149.054C794.902 149.004 794.664 148.98 794.452 148.98C793.798 148.98 793.241 149.168 792.784 149.544C792.326 149.904 791.941 150.411 791.63 151.065C791.336 151.703 791.107 152.447 790.944 153.298V159.333H788.269ZM799.422 159.652C798.718 159.652 798.089 159.521 797.532 159.259C796.976 158.981 796.535 158.572 796.208 158.033C795.897 157.493 795.742 156.822 795.742 156.021C795.742 155.383 795.856 154.835 796.085 154.377C796.33 153.903 796.69 153.51 797.164 153.2C797.655 152.873 798.277 152.611 799.029 152.415C799.781 152.202 800.673 152.022 801.703 151.875C802.276 151.793 802.742 151.711 803.102 151.63C803.478 151.548 803.748 151.417 803.911 151.237C804.091 151.057 804.181 150.787 804.181 150.427C804.181 149.871 803.985 149.397 803.592 149.004C803.216 148.596 802.603 148.391 801.752 148.391C801.278 148.391 800.804 148.473 800.329 148.636C799.871 148.8 799.471 149.07 799.127 149.446C798.8 149.806 798.579 150.297 798.465 150.918L796.06 150.158C796.208 149.536 796.445 148.988 796.772 148.514C797.099 148.023 797.508 147.614 797.999 147.287C798.489 146.944 799.054 146.69 799.691 146.527C800.346 146.347 801.057 146.257 801.826 146.257C802.954 146.257 803.887 146.445 804.623 146.821C805.359 147.197 805.906 147.778 806.266 148.563C806.642 149.332 806.831 150.321 806.831 151.531V154.132C806.831 154.672 806.839 155.244 806.855 155.849C806.888 156.438 806.921 157.035 806.953 157.64C807.002 158.229 807.06 158.793 807.125 159.333H804.696C804.647 158.842 804.598 158.335 804.549 157.812C804.516 157.289 804.484 156.757 804.451 156.217H804.083C803.854 156.839 803.527 157.411 803.102 157.935C802.693 158.458 802.177 158.875 801.556 159.186C800.951 159.497 800.239 159.652 799.422 159.652ZM800.354 157.591C800.697 157.591 801.041 157.534 801.384 157.419C801.744 157.305 802.096 157.133 802.439 156.904C802.799 156.659 803.126 156.348 803.42 155.972C803.731 155.596 804.001 155.146 804.23 154.623L804.206 152.316L804.843 152.439C804.565 152.684 804.214 152.873 803.788 153.003C803.38 153.134 802.93 153.241 802.439 153.322C801.948 153.388 801.458 153.47 800.967 153.568C800.493 153.649 800.051 153.772 799.642 153.936C799.25 154.083 798.931 154.295 798.686 154.574C798.457 154.852 798.342 155.236 798.342 155.727C798.342 156.332 798.53 156.798 798.906 157.125C799.282 157.436 799.765 157.591 800.354 157.591ZM812.93 159.603C811.671 159.603 810.731 159.259 810.109 158.572C809.504 157.886 809.201 156.831 809.201 155.408V148.759H807.312L807.361 146.576H808.588C809.013 146.576 809.332 146.51 809.545 146.379C809.757 146.232 809.888 145.979 809.937 145.619L810.183 143.73H811.777V146.576H815.286V148.808H811.777V155.334C811.777 155.972 811.925 156.43 812.219 156.708C812.513 156.986 812.947 157.125 813.519 157.125C813.83 157.125 814.141 157.092 814.451 157.027C814.779 156.945 815.089 156.798 815.384 156.585V159.161C814.893 159.325 814.443 159.439 814.034 159.505C813.625 159.57 813.257 159.603 812.93 159.603ZM821.842 159.652C820.828 159.652 819.929 159.505 819.143 159.21C818.358 158.9 817.696 158.466 817.156 157.91C816.617 157.338 816.208 156.659 815.93 155.874C815.652 155.072 815.513 154.173 815.513 153.175C815.513 152.177 815.652 151.262 815.93 150.427C816.208 149.577 816.6 148.841 817.107 148.219C817.631 147.598 818.268 147.115 819.021 146.772C819.789 146.428 820.656 146.257 821.621 146.257C822.521 146.257 823.322 146.404 824.026 146.698C824.745 146.993 825.35 147.443 825.841 148.048C826.332 148.636 826.7 149.381 826.945 150.28C827.19 151.163 827.28 152.202 827.215 153.396L817.23 153.47V151.801L825.645 151.728L824.713 152.758C824.811 151.777 824.729 150.967 824.467 150.329C824.205 149.691 823.829 149.217 823.339 148.906C822.848 148.596 822.284 148.44 821.646 148.44C820.926 148.44 820.297 148.628 819.757 149.004C819.233 149.364 818.825 149.896 818.53 150.599C818.236 151.302 818.089 152.145 818.089 153.126C818.089 154.598 818.416 155.71 819.07 156.463C819.724 157.199 820.656 157.567 821.867 157.567C822.374 157.567 822.807 157.509 823.167 157.395C823.527 157.264 823.829 157.1 824.075 156.904C824.32 156.692 824.516 156.446 824.663 156.168C824.827 155.874 824.958 155.571 825.056 155.26L827.387 155.8C827.239 156.405 827.01 156.945 826.7 157.419C826.405 157.877 826.029 158.278 825.571 158.622C825.113 158.949 824.573 159.202 823.952 159.382C823.347 159.562 822.644 159.652 821.842 159.652ZM834.219 159.652C833.205 159.652 832.305 159.505 831.52 159.21C830.735 158.9 830.073 158.466 829.533 157.91C828.993 157.338 828.584 156.659 828.306 155.874C828.028 155.072 827.889 154.173 827.889 153.175C827.889 152.177 828.028 151.262 828.306 150.427C828.584 149.577 828.977 148.841 829.484 148.219C830.007 147.598 830.645 147.115 831.398 146.772C832.166 146.428 833.033 146.257 833.998 146.257C834.898 146.257 835.699 146.404 836.402 146.698C837.122 146.993 837.727 147.443 838.218 148.048C838.709 148.636 839.077 149.381 839.322 150.28C839.567 151.163 839.657 152.202 839.592 153.396L829.607 153.47V151.801L838.022 151.728L837.089 152.758C837.188 151.777 837.106 150.967 836.844 150.329C836.582 149.691 836.206 149.217 835.716 148.906C835.225 148.596 834.661 148.44 834.023 148.44C833.303 148.44 832.673 148.628 832.134 149.004C831.61 149.364 831.201 149.896 830.907 150.599C830.613 151.302 830.465 152.145 830.465 153.126C830.465 154.598 830.792 155.71 831.447 156.463C832.101 157.199 833.033 157.567 834.244 157.567C834.751 157.567 835.184 157.509 835.544 157.395C835.904 157.264 836.206 157.1 836.452 156.904C836.697 156.692 836.893 156.446 837.04 156.168C837.204 155.874 837.335 155.571 837.433 155.26L839.764 155.8C839.616 156.405 839.387 156.945 839.077 157.419C838.782 157.877 838.406 158.278 837.948 158.622C837.49 158.949 836.95 159.202 836.329 159.382C835.724 159.562 835.02 159.652 834.219 159.652ZM846.596 159.652C845.582 159.652 844.682 159.505 843.897 159.21C843.112 158.9 842.45 158.466 841.91 157.91C841.37 157.338 840.961 156.659 840.683 155.874C840.405 155.072 840.266 154.173 840.266 153.175C840.266 152.177 840.405 151.262 840.683 150.427C840.961 149.577 841.354 148.841 841.861 148.219C842.384 147.598 843.022 147.115 843.775 146.772C844.543 146.428 845.41 146.257 846.375 146.257C847.275 146.257 848.076 146.404 848.779 146.698C849.499 146.993 850.104 147.443 850.595 148.048C851.085 148.636 851.453 149.381 851.699 150.28C851.944 151.163 852.034 152.202 851.969 153.396L841.984 153.47V151.801L850.399 151.728L849.466 152.758C849.564 151.777 849.483 150.967 849.221 150.329C848.959 149.691 848.583 149.217 848.092 148.906C847.602 148.596 847.037 148.44 846.4 148.44C845.68 148.44 845.05 148.628 844.511 149.004C843.987 149.364 843.578 149.896 843.284 150.599C842.989 151.302 842.842 152.145 842.842 153.126C842.842 154.598 843.169 155.71 843.824 156.463C844.478 157.199 845.41 157.567 846.62 157.567C847.127 157.567 847.561 157.509 847.921 157.395C848.28 157.264 848.583 157.1 848.828 156.904C849.074 156.692 849.27 156.446 849.417 156.168C849.581 155.874 849.712 155.571 849.81 155.26L852.14 155.8C851.993 156.405 851.764 156.945 851.453 157.419C851.159 157.877 850.783 158.278 850.325 158.622C849.867 158.949 849.327 159.202 848.706 159.382C848.101 159.562 847.397 159.652 846.596 159.652ZM858.973 159.652C857.959 159.652 857.059 159.505 856.274 159.21C855.489 158.9 854.827 158.466 854.287 157.91C853.747 157.338 853.338 156.659 853.06 155.874C852.782 155.072 852.643 154.173 852.643 153.175C852.643 152.177 852.782 151.262 853.06 150.427C853.338 149.577 853.731 148.841 854.238 148.219C854.761 147.598 855.399 147.115 856.151 146.772C856.92 146.428 857.787 146.257 858.752 146.257C859.651 146.257 860.453 146.404 861.156 146.698C861.876 146.993 862.481 147.443 862.972 148.048C863.462 148.636 863.83 149.381 864.076 150.28C864.321 151.163 864.411 152.202 864.346 153.396L854.36 153.47V151.801L862.775 151.728L861.843 152.758C861.941 151.777 861.859 150.967 861.598 150.329C861.336 149.691 860.96 149.217 860.469 148.906C859.979 148.596 859.414 148.44 858.776 148.44C858.057 148.44 857.427 148.628 856.887 149.004C856.364 149.364 855.955 149.896 855.661 150.599C855.366 151.302 855.219 152.145 855.219 153.126C855.219 154.598 855.546 155.71 856.2 156.463C856.855 157.199 857.787 157.567 858.997 157.567C859.504 157.567 859.938 157.509 860.298 157.395C860.657 157.264 860.96 157.1 861.205 156.904C861.451 156.692 861.647 156.446 861.794 156.168C861.958 155.874 862.088 155.571 862.187 155.26L864.517 155.8C864.37 156.405 864.141 156.945 863.83 157.419C863.536 157.877 863.16 158.278 862.702 158.622C862.244 158.949 861.704 159.202 861.083 159.382C860.477 159.562 859.774 159.652 858.973 159.652ZM866.224 154.794L865.464 143.141H868.629L867.893 154.794H866.224ZM867.034 159.627C866.429 159.627 865.979 159.497 865.685 159.235C865.39 158.973 865.243 158.564 865.243 158.008C865.243 157.436 865.39 157.019 865.685 156.757C865.979 156.495 866.429 156.364 867.034 156.364C867.656 156.364 868.122 156.495 868.432 156.757C868.743 157.019 868.899 157.436 868.899 158.008C868.899 159.088 868.277 159.627 867.034 159.627ZM869.09 147.68C869.384 146.927 869.589 146.24 869.703 145.619C869.834 144.997 869.908 144.4 869.924 143.828C869.957 143.239 869.973 142.642 869.973 142.037H872.476C872.476 142.969 872.418 143.787 872.304 144.49C872.189 145.194 872.034 145.807 871.838 146.33C871.642 146.854 871.445 147.303 871.249 147.68H869.09ZM873.261 147.68C873.555 146.927 873.76 146.24 873.874 145.619C874.005 144.997 874.079 144.4 874.095 143.828C874.128 143.239 874.144 142.642 874.144 142.037H876.646C876.646 142.969 876.589 143.787 876.475 144.49C876.36 145.194 876.205 145.807 876.008 146.33C875.812 146.854 875.616 147.303 875.42 147.68H873.261Z" fill="black"/>
</g>
<path d="M0 0H996H0ZM996 476C996 494.778 980.778 510 962 510H34C15.2223 510 0 494.778 0 476C0 483.732 10.7452 490 24 490H972C985.255 490 996 483.732 996 476ZM0 500V0V500ZM996 0V500V0Z" fill="black" mask="url(#path-1-inside-1_935_13693)"/>
<defs>
<filter id="filter0_d_935_13693" x="596" y="34" width="368" height="180.376" filterUnits="userSpaceOnUse" color-interpolation-filters="sRGB">
<feFlood flood-opacity="0" result="BackgroundImageFix"/>
<feColorMatrix in="SourceAlpha" type="matrix" values="0 0 0 0 0 0 0 0 0 0 0 0 0 0 0 0 0 0 127 0" result="hardAlpha"/>
<feOffset dy="3.06667"/>
<feComposite in2="hardAlpha" operator="out"/>
<feColorMatrix type="matrix" values="0 0 0 0 0 0 0 0 0 0 0 0 0 0 0 0 0 0 1 0"/>
<feBlend mode="normal" in2="BackgroundImageFix" result="effect1_dropShadow_935_13693"/>
<feBlend mode="normal" in="SourceGraphic" in2="effect1_dropShadow_935_13693" result="shape"/>
</filter>
<clipPath id="clip0_935_13693">
<path d="M0 24C0 10.7452 10.7452 0 24 0H972C985.255 0 996 10.7452 996 24V476C996 489.255 985.255 500 972 500H24C10.7452 500 0 489.255 0 476V24Z" fill="white"/>
</clipPath>
</defs>
</svg>
