
<svg width="204" height="88" viewBox="0 0 204 88" fill="none" xmlns="http://www.w3.org/2000/svg">
<path d="M92.5229 13.2137C96.1718 13.2137 99.1298 10.2557 99.1298 6.60686C99.1298 2.95798 96.1718 -1.52588e-05 92.5229 -1.52588e-05C88.874 -1.52588e-05 85.916 2.95798 85.916 6.60686C85.916 10.2557 88.874 13.2137 92.5229 13.2137Z" fill="#111111"/>
<path d="M134.328 39.0184C131.55 51.4281 114.884 54.6727 99.961 51.332C85.0378 47.9912 77.5076 39.3298 80.2857 26.9202C83.0638 14.5105 98.0506 4.31393 112.974 7.65471C127.897 10.9955 137.106 26.6081 134.328 39.0178V39.0184Z" fill="white"/>
<path d="M110.88 52.8156C107.267 52.8156 103.577 52.3994 99.9062 51.5774C96.1706 50.7415 92.8657 49.5628 90.0818 48.0751C87.2892 46.5827 85.0049 44.7696 83.2914 42.6868C81.5553 40.5762 80.3952 38.1755 79.8436 35.552C79.282 32.8804 79.3486 29.9576 80.0404 26.8652C80.7322 23.7756 82.1539 20.8105 84.2669 18.0516C86.304 15.3921 88.9582 13.0112 91.9429 11.1668C95.0441 9.25069 98.3987 7.93719 101.914 7.26336C105.654 6.54611 109.394 6.59532 113.028 7.40924C116.664 8.22316 120.067 9.77285 123.145 12.016C126.037 14.1244 128.511 16.7427 130.499 19.7981C132.413 22.7388 133.798 26.024 134.508 29.2982C135.243 32.6946 135.265 35.9832 134.573 39.0728C133.895 42.1021 132.374 44.7129 130.054 46.8328C127.913 48.7889 125.127 50.2992 121.772 51.3221C118.621 52.2825 115.077 52.7844 111.238 52.8139C111.119 52.8151 110.999 52.8151 110.88 52.8151V52.8156ZM107.11 7.25931C101.976 7.25931 96.8357 8.73548 92.2081 11.5952C86.1355 15.3476 81.8795 20.9535 80.5319 26.9751C79.1813 33.0072 80.2407 38.1859 83.6804 42.3672C87.0669 46.4843 92.5635 49.4181 100.017 51.0865C107.64 52.7931 115.516 52.7033 121.626 50.841C126.423 49.3782 132.479 46.1306 134.083 38.9634C135.431 32.9418 133.972 26.0564 130.079 20.073C125.988 13.7846 119.894 9.46198 112.92 7.90072C111.003 7.47176 109.058 7.25931 107.112 7.25931H107.11Z" fill="#111111"/>
<path d="M127.89 20.5338C131.539 20.5338 134.497 17.5758 134.497 13.927C134.497 10.2781 131.539 7.32008 127.89 7.32008C124.241 7.32008 121.283 10.2781 121.283 13.927C121.283 17.5758 124.241 20.5338 127.89 20.5338Z" fill="#111111"/>
<path d="M113.879 16.5021L110.854 17.1978C110.086 17.3744 109.606 18.1405 109.783 18.9089C109.959 19.6773 110.726 20.1569 111.494 19.9802L114.519 19.2846C115.287 19.1079 115.767 18.3418 115.59 17.5735C115.414 16.8051 114.648 16.3255 113.879 16.5021Z" fill="#111111"/>
<path d="M94.7797 15.5603L97.2196 17.479C97.8394 17.9663 98.7369 17.859 99.2242 17.2392C99.7116 16.6195 99.6042 15.722 98.9845 15.2346L96.5445 13.316C95.9247 12.8286 95.0273 12.9359 94.5399 13.5557C94.0526 14.1754 94.1599 15.0729 94.7797 15.5603Z" fill="#111111"/>
<path d="M112.791 41.5921C118.117 41.5921 122.435 37.2742 122.435 31.9478C122.435 26.6214 118.117 22.3035 112.791 22.3035C107.464 22.3035 103.146 26.6214 103.146 31.9478C103.146 37.2742 107.464 41.5921 112.791 41.5921Z" fill="#111111"/>
<path d="M115.029 28.1776L114.963 28.1673C113.695 27.97 112.508 28.8374 112.311 30.1048L111.587 34.75C111.39 36.0175 112.258 37.2049 113.525 37.4022L113.591 37.4125C114.859 37.6099 116.046 36.7424 116.243 35.475L116.967 30.8298C117.164 29.5624 116.297 28.375 115.029 28.1776Z" fill="white"/>
<path d="M90.0404 36.0932C94.9761 36.0932 98.9773 32.092 98.9773 27.1563C98.9773 22.2206 94.9761 18.2194 90.0404 18.2194C85.1047 18.2194 81.1035 22.2206 81.1035 27.1563C81.1035 32.092 85.1047 36.0932 90.0404 36.0932Z" fill="#111111"/>
<path d="M92.0697 23.7637L92.0691 23.7636C90.8778 23.5782 89.7617 24.3935 89.5763 25.5848L88.9156 29.8279C88.7301 31.0192 89.5455 32.1352 90.7368 32.3207L90.7373 32.3208C91.9286 32.5063 93.0447 31.6909 93.2302 30.4997L93.8908 26.2566C94.0763 25.0653 93.261 23.9492 92.0697 23.7637Z" fill="white"/>
<path d="M93.6453 26.572C93.7381 25.9762 93.3304 25.418 92.7348 25.3253C92.1391 25.2325 91.581 25.6403 91.4883 26.2361L91.1524 28.3931C91.0597 28.9889 91.4673 29.5471 92.063 29.6398C92.6586 29.7326 93.2167 29.3248 93.3094 28.729L93.6453 26.572Z" fill="#111111"/>
<path d="M116.329 30.802C116.422 30.2062 116.014 29.648 115.418 29.5553C114.823 29.4626 114.265 29.8704 114.172 30.4662L113.836 32.6232C113.743 33.219 114.151 33.7771 114.747 33.8699C115.342 33.9626 115.9 33.5548 115.993 32.959L116.329 30.802Z" fill="#111111"/>
<path d="M106.486 39.7767C107.065 36.0601 104.12 32.5155 99.9076 31.8597C95.6956 31.2039 91.812 33.6852 91.2334 37.4018C90.6547 41.1184 93.6 44.663 97.812 45.3188C102.024 45.9746 105.908 43.4933 106.486 39.7767Z" fill="white"/>
<path d="M99.1723 45.6774C98.7103 45.6774 98.2431 45.6415 97.776 45.5685C93.4337 44.8924 90.3882 41.2118 90.9873 37.3645C91.5865 33.5172 95.6063 30.9365 99.9486 31.6132C104.291 32.2894 107.336 35.97 106.737 39.8173C106.446 41.6871 105.35 43.3149 103.649 44.4009C102.336 45.2397 100.783 45.6774 99.1723 45.6774ZM98.5644 32.008C95.0257 32.008 91.9801 34.2547 91.484 37.4415C90.9277 41.015 93.7845 44.438 97.853 45.0713C99.8299 45.3792 101.792 44.9902 103.378 43.9766C104.955 42.9693 105.971 41.4642 106.24 39.7391C106.796 36.1656 103.939 32.7426 99.871 32.1093C99.4304 32.041 98.9934 32.0075 98.5639 32.0075L98.5644 32.008Z" fill="#111111"/>
<path d="M101.326 35.38C101.108 36.3572 99.6419 37.4756 98.2138 37.1554C96.7857 36.8359 95.9364 35.1994 96.1553 34.2222C96.3741 33.245 97.709 32.7113 99.1371 33.0314C100.565 33.351 101.545 34.4028 101.326 35.38Z" fill="#111111"/>
<path d="M103.633 38.3173C103.521 39.0328 102.851 39.5231 102.135 39.4114L94.1022 38.1604C93.3866 38.0487 92.8963 37.3783 93.0081 36.6628" fill="white"/>
<path d="M102.342 39.6788C102.261 39.6788 102.18 39.6725 102.098 39.6597L94.0647 38.4087C93.2132 38.2762 92.6279 37.4756 92.7611 36.624C92.7825 36.4868 92.911 36.3931 93.0482 36.4145C93.1854 36.4359 93.2792 36.5644 93.2578 36.7016C93.168 37.2793 93.5646 37.8223 94.1423 37.9121L102.176 39.163C102.456 39.2065 102.735 39.1387 102.964 38.9714C103.193 38.8041 103.343 38.5581 103.386 38.2785C103.407 38.1413 103.536 38.0475 103.673 38.0689C103.81 38.0904 103.904 38.2189 103.883 38.3561C103.818 38.7688 103.597 39.1312 103.26 39.3778C102.99 39.5752 102.671 39.6788 102.342 39.6788Z" fill="#111111"/>
<path d="M172.673 84.2291H17.483C14.8155 84.2291 13.179 81.3063 14.573 79.0324L33.5559 48.0583C34.1765 47.0458 35.2787 46.4287 36.466 46.4287H191.656C194.324 46.4287 195.96 49.3515 194.566 51.6254L175.583 82.5995C174.963 83.612 173.86 84.2291 172.673 84.2291Z" fill="url(#paint0_linear_444_21190)" stroke="#111111" stroke-width="0.226365" stroke-miterlimit="10"/>
<path d="M186.45 51.3629C186.232 50.9791 185.775 50.7922 185.054 50.7922H184.848C184.839 50.7922 184.83 50.7916 184.821 50.7916H184.614C184.605 50.7916 184.597 50.7916 184.588 50.7916H184.148C184.139 50.7916 184.131 50.791 184.122 50.791H183.915C183.906 50.791 183.897 50.791 183.889 50.791H183.682C183.673 50.791 183.665 50.7904 183.655 50.7904H183.215C183.207 50.7904 183.198 50.7904 183.189 50.7904H182.983C182.973 50.7904 182.965 50.7898 182.956 50.7898H182.749C182.74 50.7898 182.731 50.7898 182.723 50.7898H182.283C182.274 50.7898 182.265 50.7898 182.256 50.7898H182.05C182.041 50.7898 182.032 50.7893 182.023 50.7893H181.817C181.807 50.7893 181.799 50.7887 181.79 50.7887H181.35C181.341 50.7887 181.333 50.7887 181.323 50.7887H181.117C181.108 50.7887 181.099 50.7887 181.09 50.7887H180.884C180.875 50.7887 180.866 50.7881 180.857 50.7881H180.651C180.642 50.7881 180.633 50.7881 180.624 50.7881H180.184C180.176 50.7881 180.167 50.7875 180.158 50.7875H179.951C179.942 50.7875 179.934 50.7875 179.924 50.7875H179.718C179.709 50.7875 179.7 50.787 179.691 50.787H179.252C179.242 50.787 179.234 50.787 179.225 50.787H179.018C179.01 50.787 179.001 50.7864 178.992 50.7864H178.785C178.776 50.7864 178.768 50.7864 178.758 50.7864H178.319C178.31 50.7858 178.301 50.7858 178.292 50.7858H178.086C178.076 50.7858 178.068 50.7858 178.059 50.7858H177.853C177.844 50.7858 177.835 50.7852 177.826 50.7852H177.386C177.377 50.7852 177.369 50.7852 177.36 50.7852H177.153C177.144 50.7852 177.135 50.7846 177.127 50.7846H176.92C176.911 50.7846 176.902 50.7846 176.893 50.7846H176.687C176.678 50.7846 176.669 50.7841 176.66 50.7841H176.221C176.211 50.7841 176.203 50.7841 176.194 50.7841H175.987C175.979 50.7841 175.97 50.7835 175.961 50.7835H175.754C175.745 50.7835 175.737 50.7835 175.727 50.7835H166.787C166.544 50.7835 166.312 50.8026 166.091 50.8408C166.015 50.8391 165.939 50.8379 165.862 50.8379H165.679C165.662 50.8379 165.646 50.8379 165.629 50.8379H165.446C165.429 50.8379 165.413 50.8373 165.396 50.8373H165.212C165.196 50.8373 165.179 50.8373 165.163 50.8373H164.746C164.73 50.8367 164.713 50.8367 164.697 50.8367H164.513C164.496 50.8367 164.48 50.8367 164.463 50.8367H164.28C164.263 50.8367 164.247 50.8362 164.23 50.8362H163.814C163.797 50.8362 163.781 50.8362 163.764 50.8362H163.581C163.564 50.8362 163.548 50.8356 163.531 50.8356H163.347C163.33 50.8356 163.314 50.8356 163.297 50.8356H162.881C162.864 50.835 162.848 50.835 162.831 50.835H162.647C162.631 50.835 162.615 50.835 162.598 50.835H162.415C162.398 50.835 162.382 50.8344 162.365 50.8344H162.182C162.165 50.8344 162.148 50.8344 162.132 50.8344H161.715C161.699 50.8344 161.682 50.8338 161.666 50.8338H161.481C161.465 50.8338 161.449 50.8338 161.432 50.8338H161.249C161.232 50.8338 161.216 50.8333 161.199 50.8333H160.782C160.765 50.8333 160.749 50.8333 160.732 50.8333H160.549C160.533 50.8333 160.516 50.8327 160.5 50.8327H160.316C160.299 50.8327 160.283 50.8327 160.266 50.8327H159.85C159.833 50.8321 159.817 50.8321 159.8 50.8321H159.616C159.599 50.8321 159.583 50.8321 159.567 50.8321H159.384C159.367 50.8321 159.351 50.8321 159.334 50.8321H158.917C158.9 50.8315 158.884 50.8315 158.867 50.8315H158.684C158.667 50.8315 158.651 50.8309 158.634 50.8309H158.45C158.434 50.8309 158.417 50.8309 158.401 50.8309H158.217C158.201 50.8309 158.185 50.8309 158.168 50.8309H157.752C157.735 50.8309 157.718 50.8304 157.701 50.8304H157.518C157.501 50.8304 157.485 50.8304 157.468 50.8304H157.285C157.268 50.8304 157.251 50.8298 157.235 50.8298H156.818C156.802 50.8298 156.785 50.8298 156.769 50.8298H156.585C156.568 50.8298 156.552 50.8292 156.535 50.8292H156.352C156.335 50.8292 156.319 50.8292 156.302 50.8292H137.22C136.531 50.8292 135.856 50.9386 135.202 51.154C134.524 50.9265 133.703 50.8113 132.739 50.8113H132.557C132.54 50.8113 132.523 50.8107 132.506 50.8107H132.323C132.306 50.8107 132.29 50.8107 132.273 50.8107H131.857C131.84 50.8107 131.823 50.8101 131.806 50.8101H131.624C131.607 50.8101 131.59 50.8101 131.573 50.8101H131.39C131.373 50.8101 131.357 50.8095 131.34 50.8095H130.924C130.907 50.8095 130.891 50.8095 130.874 50.8095H130.691C130.674 50.8095 130.658 50.8089 130.641 50.8089H130.458C130.441 50.8089 130.425 50.8089 130.407 50.8089H129.992C129.975 50.8089 129.958 50.8089 129.941 50.8089H129.759C129.741 50.8089 129.725 50.8084 129.708 50.8084H129.525C129.508 50.8084 129.492 50.8078 129.475 50.8078H129.059C129.042 50.8078 129.025 50.8078 129.009 50.8078H128.826C128.809 50.8078 128.792 50.8078 128.775 50.8078H128.592C128.576 50.8078 128.559 50.8072 128.542 50.8072H128.359C128.342 50.8072 128.326 50.8072 128.309 50.8072H127.893C127.876 50.8072 127.86 50.8066 127.843 50.8066H127.66C127.643 50.8066 127.626 50.8066 127.609 50.8066H127.427C127.41 50.8066 127.393 50.8061 127.376 50.8061H126.96C126.943 50.8061 126.927 50.8061 126.91 50.8061H126.727C126.71 50.8061 126.694 50.8055 126.677 50.8055H126.494C126.477 50.8055 126.46 50.8055 126.444 50.8055H126.027C126.011 50.8049 125.994 50.8049 125.977 50.8049H125.794C125.777 50.8049 125.761 50.8049 125.744 50.8049H125.561C125.545 50.8049 125.528 50.8043 125.511 50.8043H125.095C125.078 50.8043 125.062 50.8043 125.044 50.8043H124.861C124.845 50.8043 124.828 50.8037 124.811 50.8037H124.629C124.612 50.8037 124.595 50.8037 124.578 50.8037H124.395C124.379 50.8037 124.362 50.8032 124.345 50.8032H123.929C123.912 50.8032 123.896 50.8032 123.878 50.8032H123.696C123.679 50.8032 123.663 50.8026 123.646 50.8026H123.463C123.445 50.8026 123.429 50.8026 123.412 50.8026H105.837C105.687 50.8026 105.537 50.8078 105.388 50.8182H105.282C105.273 50.8182 105.265 50.8176 105.256 50.8176H104.816C104.807 50.8176 104.798 50.8176 104.789 50.8176H104.583C104.574 50.8176 104.565 50.8171 104.556 50.8171H104.35C104.34 50.8171 104.332 50.8171 104.323 50.8171H103.883C103.874 50.8171 103.866 50.8171 103.856 50.8171H103.65C103.641 50.8171 103.632 50.8165 103.623 50.8165H103.417C103.408 50.8165 103.399 50.8159 103.39 50.8159H102.95C102.942 50.8159 102.933 50.8159 102.924 50.8159H102.717C102.708 50.8159 102.7 50.8159 102.691 50.8159H102.484C102.475 50.8159 102.466 50.8153 102.457 50.8153H102.251C102.242 50.8153 102.233 50.8153 102.225 50.8153H101.785C101.775 50.8153 101.767 50.8147 101.758 50.8147H101.551C101.543 50.8147 101.534 50.8147 101.525 50.8147H101.318C101.309 50.8147 101.301 50.8142 101.291 50.8142H100.852C100.843 50.8142 100.835 50.8142 100.825 50.8142H100.619C100.609 50.8142 100.601 50.8136 100.592 50.8136H100.385C100.377 50.8136 100.368 50.8136 100.359 50.8136H99.9194C99.9101 50.813 99.9014 50.813 99.8928 50.813H99.6861C99.6768 50.813 99.6687 50.813 99.6595 50.813H99.4528C99.4441 50.813 99.4354 50.8124 99.4262 50.8124H98.9868C98.9775 50.8124 98.9688 50.8124 98.9602 50.8124H98.7535C98.7442 50.8124 98.7355 50.8118 98.7269 50.8118H98.5202C98.5115 50.8118 98.5028 50.8118 98.4936 50.8118H98.2869C98.2782 50.8118 98.2695 50.8113 98.2603 50.8113H97.8209C97.8116 50.8113 97.803 50.8113 97.7943 50.8113H97.5876C97.5784 50.8113 97.5703 50.8107 97.561 50.8107H97.3543C97.3451 50.8107 97.337 50.8107 97.3277 50.8107H88.3873C88.2744 50.8107 88.1639 50.8147 88.055 50.8234H88.0498C88.0411 50.8234 88.0325 50.8228 88.0232 50.8228H87.8165C87.8078 50.8228 87.7992 50.8223 87.7899 50.8223H87.3505C87.3413 50.8223 87.3326 50.8223 87.3239 50.8223H87.1172C87.108 50.8223 87.0993 50.8223 87.0906 50.8223H86.8839C86.8747 50.8223 86.8666 50.8217 86.8573 50.8217H86.6506C86.642 50.8217 86.6333 50.8217 86.624 50.8217H86.1846C86.1754 50.8217 86.1667 50.8211 86.158 50.8211H85.9513C85.9421 50.8211 85.9334 50.8211 85.9247 50.8211H85.7181C85.7088 50.8211 85.7007 50.8205 85.6914 50.8205H85.2515C85.2428 50.8205 85.2341 50.8205 85.2248 50.8205H85.0188C85.0095 50.8205 85.0008 50.8199 84.9921 50.8199H84.7855C84.7762 50.8199 84.7681 50.8199 84.7588 50.8199H84.3189C84.3102 50.8194 84.3015 50.8194 84.2922 50.8194H84.0856C84.0769 50.8194 84.0682 50.8194 84.059 50.8194H83.8529C83.8436 50.8194 83.8349 50.8188 83.8262 50.8188H83.3863C83.3776 50.8188 83.3689 50.8188 83.3597 50.8188H83.153C83.1443 50.8188 83.1356 50.8182 83.1264 50.8182H82.9203C82.911 50.8182 82.9023 50.8182 82.8931 50.8182H82.687C82.6777 50.8182 82.669 50.8176 82.6604 50.8176H82.2204C82.2117 50.8176 82.203 50.8176 82.1938 50.8176H81.9877C81.9784 50.8176 81.9697 50.8171 81.9605 50.8171H81.7544C81.7451 50.8171 81.7365 50.8171 81.7278 50.8171H72.7874C72.4076 50.8171 72.0534 50.8639 71.7251 50.9577C71.3251 50.8761 70.8753 50.835 70.3752 50.835H70.1916C70.1749 50.835 70.1587 50.8344 70.1419 50.8344H69.9584C69.9416 50.8344 69.9254 50.8344 69.9086 50.8344H69.4918C69.4756 50.8344 69.4588 50.8338 69.4426 50.8338H69.2591C69.2423 50.8338 69.2261 50.8338 69.2093 50.8338H69.0258C69.009 50.8338 68.9928 50.8333 68.976 50.8333H68.5592C68.5424 50.8333 68.5262 50.8333 68.5094 50.8333H68.3265C68.3097 50.8333 68.2935 50.8327 68.2767 50.8327H68.0926C68.0764 50.8327 68.0602 50.8327 68.0434 50.8327H67.6266C67.6098 50.8327 67.5936 50.8327 67.5768 50.8327H67.3939C67.3771 50.8327 67.3609 50.8321 67.3435 50.8321H67.16C67.1438 50.8321 67.1276 50.8315 67.1108 50.8315H66.694C66.6778 50.8315 66.661 50.8315 66.6442 50.8315H66.4607C66.4439 50.8315 66.4277 50.8315 66.4109 50.8315H66.2274C66.2106 50.8315 66.1944 50.8309 66.1782 50.8309H65.9941C65.9779 50.8309 65.9617 50.8309 65.9449 50.8309H65.5281C65.5113 50.8309 65.4951 50.8304 65.4783 50.8304H65.2948C65.278 50.8304 65.2618 50.8304 65.245 50.8304H65.0615C65.0453 50.8304 65.0285 50.8298 65.0123 50.8298H64.5955C64.5787 50.8298 64.5625 50.8298 64.5457 50.8298H64.3622C64.3454 50.8298 64.3292 50.8292 64.3124 50.8292H64.1289C64.1121 50.8292 64.0959 50.8292 64.0792 50.8292H63.6623C63.6461 50.8286 63.6299 50.8286 63.6131 50.8286H63.4296C63.4128 50.8286 63.3966 50.8286 63.3798 50.8286H63.1969C63.1801 50.8286 63.1633 50.828 63.1466 50.828H62.7298C62.7135 50.828 62.6973 50.828 62.6805 50.828H62.497C62.4803 50.828 62.464 50.8275 62.4473 50.8275H62.2637C62.2475 50.8275 62.2307 50.8275 62.214 50.8275H62.0305C62.0137 50.8275 61.9975 50.8269 61.9807 50.8269H61.5639C61.5477 50.8269 61.5315 50.8269 61.5147 50.8269H61.3312C61.3144 50.8269 61.2982 50.8263 61.2814 50.8263H61.0979C61.0811 50.8263 61.0649 50.8263 61.0481 50.8263H41.4417C40.1102 50.8263 39.0908 51.404 38.4112 52.5439L22.9583 77.3563C22.5513 78.0133 22.461 78.5245 22.6816 78.921C22.8981 79.31 23.3623 79.4993 24.0998 79.4993H24.3065C24.3152 79.4993 24.3239 79.4993 24.3331 79.4993H24.7725C24.7818 79.4999 24.7905 79.4999 24.7997 79.4999H25.0058C25.0151 79.4999 25.0237 79.4999 25.033 79.4999H25.2391C25.2484 79.4999 25.257 79.5005 25.2657 79.5005H25.4724C25.4811 79.5005 25.4898 79.5005 25.499 79.5005H25.9384C25.9477 79.5005 25.9563 79.5011 25.9656 79.5011H26.1717C26.181 79.5011 26.1896 79.5011 26.1989 79.5011H26.405C26.4142 79.5011 26.4223 79.5016 26.4316 79.5016H26.871C26.8802 79.5016 26.8889 79.5016 26.8982 79.5016H27.1043C27.1135 79.5016 27.1222 79.5022 27.1315 79.5022H27.3376C27.3468 79.5022 27.3555 79.5022 27.3648 79.5022H27.8042C27.8128 79.5022 27.8215 79.5028 27.8308 79.5028H28.0369C28.0461 79.5028 28.0548 79.5028 28.0641 79.5028H28.2702C28.2794 79.5028 28.2881 79.5028 28.2974 79.5028H28.7368C28.7454 79.5034 28.7541 79.5034 28.7634 79.5034H28.97C28.9787 79.5034 28.9874 79.504 28.9967 79.504H29.2028C29.212 79.504 29.2207 79.504 29.23 79.504H29.6693C29.6786 79.504 29.6873 79.504 29.696 79.504H29.9026C29.9113 79.504 29.92 79.5045 29.9293 79.5045H30.1353C30.1446 79.5045 30.1533 79.5045 30.1626 79.5045H30.3686C30.3779 79.5045 30.3866 79.5051 30.3958 79.5051H30.8352C30.8439 79.5051 30.8526 79.5051 30.8619 79.5051H31.0685C31.0772 79.5051 31.0859 79.5057 31.0951 79.5057H31.3012C31.3105 79.5057 31.3192 79.5057 31.3284 79.5057H31.7678C31.7771 79.5057 31.7858 79.5063 31.795 79.5063H32.0011C32.0104 79.5063 32.0185 79.5063 32.0277 79.5063H32.2344C32.2431 79.5063 32.2518 79.5068 32.261 79.5068H32.7004C32.7097 79.5068 32.7184 79.5068 32.7276 79.5068H32.9337C32.943 79.5068 32.9516 79.5074 32.9603 79.5074H33.167C33.1763 79.5074 33.1844 79.5074 33.1936 79.5074H33.633C33.6423 79.508 33.6509 79.508 33.6602 79.508H56.2259C56.9507 79.508 57.628 79.4119 58.2584 79.222C58.9253 79.3998 59.7334 79.4901 60.6701 79.4901H60.8443C60.864 79.4901 60.8831 79.4901 60.9028 79.4901H61.3103C61.33 79.4906 61.3497 79.4906 61.3694 79.4906H61.5442C61.5639 79.4906 61.583 79.4906 61.6027 79.4906H61.7775C61.7966 79.4906 61.8163 79.4912 61.8359 79.4912H62.0102C62.0299 79.4912 62.049 79.4912 62.0687 79.4912H62.4768C62.4965 79.4912 62.5156 79.4918 62.5352 79.4918H62.7101C62.7298 79.4918 62.7489 79.4918 62.7685 79.4918H62.9428C62.9625 79.4918 62.9816 79.4924 63.0018 79.4924H63.4094C63.4291 79.4924 63.4482 79.4924 63.4678 79.4924H63.6427C63.6623 79.4924 63.6814 79.4929 63.7011 79.4929H63.8754C63.8951 79.4929 63.9142 79.4929 63.9344 79.4929H64.342C64.3616 79.4935 64.3807 79.4935 64.4004 79.4935H64.5753C64.5949 79.4935 64.614 79.4935 64.6337 79.4935H64.808C64.8277 79.4935 64.8473 79.4935 64.867 79.4935H65.2746C65.2942 79.4941 65.3133 79.4941 65.333 79.4941H65.5078C65.5275 79.4941 65.5466 79.4947 65.5663 79.4947H65.7406C65.7602 79.4947 65.7799 79.4947 65.7996 79.4947H66.2077C66.2268 79.4947 66.2465 79.4947 66.2662 79.4947H66.4404C66.4601 79.4947 66.4792 79.4953 66.4989 79.4953H66.6732C66.6928 79.4953 66.7125 79.4953 66.7322 79.4953H66.907C66.9267 79.4953 66.9458 79.4958 66.9655 79.4958H67.373C67.3927 79.4958 67.4118 79.4958 67.4321 79.4958H67.6063C67.626 79.4958 67.6451 79.4964 67.6648 79.4964H67.8396C67.8593 79.4964 67.8784 79.4964 67.8981 79.4964H68.3056C68.3253 79.497 68.3444 79.497 68.3647 79.497H68.5389C68.5586 79.497 68.5777 79.497 68.5974 79.497H68.7722C68.7919 79.497 68.811 79.4976 68.8307 79.4976H69.2382C69.2579 79.4976 69.2776 79.4976 69.2973 79.4976H69.4721C69.4912 79.4976 69.5109 79.4982 69.5306 79.4982H69.7048C69.7245 79.4982 69.7436 79.4982 69.7633 79.4982H70.1708C70.1905 79.4987 70.2102 79.4987 70.2299 79.4987H85.8304C87.0084 79.4987 88.1008 79.3291 89.1057 78.9928C89.845 79.317 90.792 79.4808 91.9423 79.4808H92.1252C92.1426 79.4808 92.1588 79.4808 92.1756 79.4808H92.5912C92.6086 79.4814 92.6248 79.4814 92.6422 79.4814H92.8251C92.8419 79.4814 92.8581 79.4814 92.8755 79.4814H93.0584C93.0752 79.4814 93.0914 79.482 93.1082 79.482H93.2911C93.3079 79.482 93.3247 79.482 93.3415 79.482H93.7577C93.7745 79.482 93.7907 79.4825 93.808 79.4825H93.991C94.0078 79.4825 94.024 79.4825 94.0413 79.4825H94.2243C94.2411 79.4825 94.2573 79.4831 94.274 79.4831H94.6903C94.7071 79.4831 94.7238 79.4831 94.7406 79.4831H94.9236C94.9404 79.4831 94.9566 79.4837 94.9739 79.4837H95.1563C95.1731 79.4837 95.1899 79.4837 95.2066 79.4837H95.6229C95.6396 79.4837 95.6564 79.4843 95.6732 79.4843H95.8562C95.8729 79.4843 95.8897 79.4843 95.9065 79.4843H96.0889C96.1057 79.4843 96.1224 79.4843 96.1398 79.4843H96.5555C96.5728 79.4848 96.589 79.4848 96.6058 79.4848H96.7887C96.8055 79.4848 96.8223 79.4854 96.8391 79.4854H97.0215C97.0388 79.4854 97.055 79.4854 97.0724 79.4854H97.4886C97.5054 79.4854 97.5216 79.4854 97.5384 79.4854H97.7213C97.7381 79.4854 97.7549 79.486 97.7717 79.486H97.9546C97.9714 79.486 97.9876 79.486 98.005 79.486H98.1879C98.2047 79.486 98.2209 79.4866 98.2383 79.4866H98.6539C98.6707 79.4866 98.6875 79.4866 98.7043 79.4866H98.8872C98.904 79.4866 98.9208 79.4872 98.9376 79.4872H99.1205C99.1373 79.4872 99.1541 79.4872 99.1709 79.4872H99.5865C99.6033 79.4877 99.6201 79.4877 99.6369 79.4877H99.8198C99.8372 79.4877 99.8534 79.4877 99.8702 79.4877H100.053C100.07 79.4877 100.087 79.4883 100.103 79.4883H100.519C100.536 79.4883 100.553 79.4883 100.57 79.4883H100.753C100.77 79.4883 100.786 79.4889 100.803 79.4889H100.986C101.003 79.4889 101.019 79.4889 101.036 79.4889H101.452C101.469 79.4895 101.485 79.4895 101.503 79.4895H118.88C119.031 79.4895 119.181 79.4843 119.33 79.4738H119.4C119.409 79.4738 119.418 79.4738 119.426 79.4738H119.866C119.875 79.4738 119.884 79.4744 119.893 79.4744H120.099C120.108 79.4744 120.117 79.4744 120.126 79.4744H120.332C120.341 79.4744 120.35 79.475 120.359 79.475H120.799C120.807 79.475 120.816 79.475 120.825 79.475H121.032C121.041 79.475 121.049 79.4756 121.059 79.4756H121.265C121.274 79.4756 121.283 79.4756 121.292 79.4756H121.731C121.741 79.4756 121.749 79.4762 121.758 79.4762H121.965C121.973 79.4762 121.982 79.4762 121.991 79.4762H122.197C122.207 79.4762 122.215 79.4762 122.225 79.4762H122.664C122.673 79.4767 122.682 79.4767 122.691 79.4767H122.897C122.906 79.4767 122.915 79.4773 122.924 79.4773H123.13C123.139 79.4773 123.148 79.4773 123.157 79.4773H123.597C123.606 79.4773 123.615 79.4773 123.624 79.4773H123.83C123.839 79.4773 123.848 79.4779 123.856 79.4779H124.063C124.072 79.4779 124.081 79.4779 124.09 79.4779H124.296C124.305 79.4779 124.314 79.4785 124.323 79.4785H124.762C124.772 79.4785 124.78 79.4785 124.79 79.4785H124.996C125.005 79.4785 125.013 79.4791 125.022 79.4791H125.229C125.238 79.4791 125.246 79.4791 125.256 79.4791H125.695C125.704 79.4791 125.713 79.4796 125.722 79.4796H125.928C125.938 79.4796 125.946 79.4796 125.955 79.4796H126.162C126.171 79.4796 126.179 79.4802 126.188 79.4802H126.628C126.637 79.4802 126.646 79.4802 126.655 79.4802H126.861C126.87 79.4802 126.879 79.4808 126.888 79.4808H127.094C127.103 79.4808 127.112 79.4808 127.121 79.4808H127.56C127.569 79.4814 127.578 79.4814 127.587 79.4814H136.295C136.406 79.4814 136.514 79.4767 136.621 79.4686H136.632C136.641 79.4686 136.65 79.4692 136.659 79.4692H136.865C136.874 79.4692 136.883 79.4692 136.892 79.4692H137.331C137.341 79.4692 137.349 79.4698 137.359 79.4698H137.565C137.574 79.4698 137.583 79.4698 137.592 79.4698H137.797C137.807 79.4698 137.815 79.4698 137.825 79.4698H138.264C138.273 79.4704 138.282 79.4704 138.291 79.4704H138.497C138.506 79.4704 138.515 79.471 138.524 79.471H138.73C138.739 79.471 138.748 79.471 138.757 79.471H139.197C139.206 79.471 139.214 79.471 139.224 79.471H139.43C139.439 79.471 139.448 79.4715 139.457 79.4715H139.663C139.672 79.4715 139.681 79.4715 139.69 79.4715H139.896C139.906 79.4715 139.914 79.4721 139.923 79.4721H140.362C140.372 79.4721 140.38 79.4721 140.39 79.4721H140.596C140.605 79.4721 140.614 79.4727 140.623 79.4727H140.829C140.838 79.4727 140.847 79.4727 140.856 79.4727H141.295C141.304 79.4727 141.313 79.4733 141.322 79.4733H141.528C141.538 79.4733 141.546 79.4733 141.555 79.4733H141.762C141.771 79.4733 141.78 79.4738 141.789 79.4738H142.228C142.237 79.4738 142.246 79.4738 142.255 79.4738H142.461C142.47 79.4738 142.479 79.4744 142.488 79.4744H142.694C142.703 79.4744 142.712 79.4744 142.721 79.4744H143.161C143.169 79.475 143.178 79.475 143.187 79.475H151.894C152.007 79.475 152.117 79.4704 152.225 79.4623H152.45C152.459 79.4623 152.468 79.4628 152.477 79.4628H152.683C152.692 79.4628 152.701 79.4628 152.71 79.4628H153.149C153.158 79.4628 153.167 79.4634 153.176 79.4634H153.382C153.391 79.4634 153.4 79.4634 153.409 79.4634H153.615C153.625 79.4634 153.633 79.4634 153.643 79.4634H154.082C154.091 79.464 154.099 79.464 154.109 79.464H154.315C154.324 79.464 154.333 79.4646 154.342 79.4646H154.548C154.557 79.4646 154.566 79.4646 154.575 79.4646H155.015C155.024 79.4646 155.033 79.4646 155.041 79.4646H155.248C155.257 79.4646 155.265 79.4652 155.275 79.4652H155.481C155.49 79.4652 155.499 79.4652 155.508 79.4652H155.714C155.723 79.4652 155.732 79.4657 155.741 79.4657H156.181C156.189 79.4657 156.198 79.4657 156.207 79.4657H156.414C156.423 79.4657 156.431 79.4663 156.44 79.4663H156.647C156.656 79.4663 156.665 79.4663 156.674 79.4663H157.113C157.122 79.4663 157.131 79.4669 157.14 79.4669H157.346C157.356 79.4669 157.364 79.4669 157.373 79.4669H157.58C157.588 79.4669 157.597 79.4675 157.606 79.4675H158.046C158.055 79.4675 158.064 79.4675 158.073 79.4675H158.279C158.288 79.4675 158.297 79.4681 158.306 79.4681H158.512C158.522 79.4681 158.53 79.4681 158.539 79.4681H158.978C158.988 79.4686 158.996 79.4686 159.006 79.4686H167.713C169.017 79.4686 170.037 78.8915 170.742 77.7534L186.197 52.9387C186.197 52.9387 186.199 52.9341 186.201 52.9317C186.593 52.273 186.674 51.7606 186.45 51.3664V51.3629ZM107.944 66.1125C107.981 66.1773 107.972 66.4083 107.704 66.8593L106.875 68.1976H106.646C106.637 68.1976 106.628 68.1976 106.619 68.1976H106.413C106.404 68.1976 106.395 68.1971 106.386 68.1971H106.179C106.17 68.1971 106.162 68.1965 106.153 68.1965H105.713C105.704 68.1965 105.696 68.1965 105.686 68.1965H105.48C105.471 68.1965 105.462 68.1965 105.453 68.1965H105.247C105.238 68.1965 105.229 68.1959 105.22 68.1959H104.78C104.772 68.1959 104.763 68.1959 104.754 68.1959H104.547C104.538 68.1959 104.53 68.1953 104.52 68.1953H104.314C104.305 68.1953 104.296 68.1953 104.287 68.1953H103.848C103.838 68.1948 103.83 68.1948 103.821 68.1948H103.614C103.606 68.1948 103.597 68.1948 103.588 68.1948H103.382C103.372 68.1948 103.364 68.1942 103.355 68.1942H102.915C102.906 68.1942 102.897 68.1942 102.889 68.1942H102.682C102.673 68.1942 102.664 68.1936 102.655 68.1936H102.449C102.44 68.1936 102.431 68.1936 102.422 68.1936H102.215C102.207 68.1936 102.198 68.193 102.189 68.193H98.2794L99.6699 65.9643H99.8082C99.8169 65.9643 99.8256 65.9649 99.8349 65.9649H100.274C100.284 65.9649 100.292 65.9649 100.301 65.9649H100.508C100.517 65.9649 100.525 65.9654 100.534 65.9654H100.741C100.75 65.9654 100.758 65.9654 100.767 65.9654H101.207C101.216 65.966 101.225 65.966 101.234 65.966H101.44C101.449 65.966 101.458 65.966 101.467 65.966H101.673C101.683 65.966 101.691 65.9666 101.7 65.9666H101.907C101.915 65.9666 101.924 65.9666 101.933 65.9666H102.373C102.382 65.9666 102.391 65.9672 102.4 65.9672H102.606C102.615 65.9672 102.624 65.9672 102.633 65.9672H102.839C102.848 65.9672 102.857 65.9678 102.866 65.9678H103.306C103.315 65.9678 103.323 65.9678 103.333 65.9678H103.539C103.548 65.9678 103.557 65.9678 103.565 65.9678H103.772C103.781 65.9678 103.789 65.9683 103.799 65.9683H104.238C104.247 65.9683 104.256 65.9689 104.265 65.9689H104.472C104.48 65.9689 104.489 65.9689 104.498 65.9689H104.704C104.714 65.9689 104.722 65.9689 104.731 65.9689H107.565C107.811 66.0008 107.919 66.0673 107.944 66.1119V66.1125ZM121.49 63.438C121.481 63.438 121.473 63.438 121.463 63.438H121.257C121.248 63.438 121.239 63.4374 121.23 63.4374H121.024C121.015 63.4374 121.006 63.4374 120.997 63.4374H120.557C120.549 63.4374 120.54 63.4374 120.531 63.4374H117.661C117.415 63.4056 117.306 63.3384 117.281 63.2944C117.244 63.229 117.254 62.9986 117.522 62.5477L117.835 62.0429H117.839C117.848 62.0435 117.856 62.0435 117.866 62.0435H118.072C118.081 62.0435 118.09 62.0435 118.099 62.0435H118.305C118.314 62.0435 118.323 62.044 118.332 62.044H118.772C118.781 62.044 118.789 62.044 118.798 62.044H119.005C119.013 62.044 119.022 62.0446 119.031 62.0446H119.238C119.247 62.0446 119.255 62.0446 119.265 62.0446H119.471C119.48 62.0446 119.489 62.0446 119.498 62.0446H119.937C119.946 62.0446 119.955 62.0452 119.964 62.0452H120.171C120.179 62.0452 120.188 62.0458 120.197 62.0458H120.404C120.413 62.0458 120.421 62.0458 120.431 62.0458H120.87C120.879 62.0458 120.888 62.0458 120.897 62.0458H121.103C121.113 62.0458 121.121 62.0464 121.13 62.0464H121.337C121.345 62.0464 121.354 62.0464 121.363 62.0464H121.803C121.812 62.0469 121.821 62.0469 121.83 62.0469H122.036C122.045 62.0469 122.054 62.0469 122.063 62.0469H122.269C122.278 62.0469 122.287 62.0475 122.296 62.0475H122.735C122.744 62.0475 122.753 62.0475 122.762 62.0475H126.46L125.585 63.4421H125.454C125.445 63.4421 125.436 63.4415 125.428 63.4415H125.221C125.212 63.4415 125.204 63.4415 125.194 63.4415H124.988C124.979 63.4415 124.97 63.4409 124.961 63.4409H124.522C124.512 63.4409 124.504 63.4409 124.494 63.4409H124.288C124.279 63.4409 124.27 63.4403 124.262 63.4403H124.055C124.046 63.4403 124.038 63.4403 124.028 63.4403H123.589C123.58 63.4398 123.571 63.4398 123.562 63.4398H123.356C123.346 63.4398 123.338 63.4398 123.329 63.4398H123.122C123.113 63.4398 123.105 63.4392 123.096 63.4392H122.889C122.88 63.4392 122.872 63.4392 122.863 63.4392H122.423C122.414 63.4392 122.405 63.4386 122.396 63.4386H122.19C122.181 63.4386 122.172 63.4386 122.163 63.4386H121.957C121.947 63.4386 121.939 63.438 121.93 63.438H121.49ZM142.335 79.042H133.628C132.467 79.042 132.2 78.5343 132.829 77.5184L137.51 70.0808C138.114 69.0897 137.836 68.5936 136.675 68.5936C135.514 68.5936 134.704 69.0897 134.099 70.0808L129.419 77.5184C128.79 78.5343 127.895 79.042 126.735 79.042H118.028C116.866 79.042 116.6 78.5343 117.229 77.5184L131.85 54.2267C132.43 53.308 133.204 52.5757 134.172 52.0316C135.139 51.4874 136.155 51.2153 137.22 51.2153H156.302C157.874 51.2153 158.884 51.6269 159.331 52.4489C159.779 53.2715 159.579 54.3599 158.733 55.7145L145.02 77.5184C144.39 78.5343 143.496 79.042 142.335 79.042Z" fill="#111111"/>
<path d="M24.1021 79.2449C23.4445 79.2449 23.0387 79.0897 22.861 78.7708C22.6792 78.4443 22.7678 78.0002 23.1325 77.4121L38.5877 52.5962C39.2262 51.523 40.1877 50.9771 41.4445 50.9771H60.8176C62.4634 50.9771 63.5367 51.4286 64.0079 52.3184C64.4774 53.2041 64.2678 54.3827 63.385 55.8207L60.4819 60.501C59.5435 62.0385 58.2433 63.0163 56.6062 63.4174C57.3206 63.6293 57.8051 63.9795 58.0529 64.4652C58.4754 65.2948 58.2138 66.4543 57.2528 68.0103L52.1731 76.138C50.8816 78.1994 49.0297 79.2449 46.6684 79.2449H24.1021ZM36.719 75.9562C36.4556 76.3614 36.3613 76.6734 36.4516 76.839C36.5425 77.0063 36.8597 77.0983 37.3448 77.0983C38.3938 77.0983 39.1926 76.6537 39.7877 75.7391C39.7877 75.7391 46.1005 65.5437 46.1017 65.5414C46.3709 65.1425 46.471 64.8322 46.3836 64.6678C46.2962 64.5034 45.9703 64.4068 45.4718 64.4068C44.4472 64.4068 43.6478 64.8508 43.0295 65.7648L36.7196 75.9562H36.719ZM52.4729 53.1236C51.4483 53.1236 50.661 53.5682 50.0676 54.4828L45.9338 61.1181C45.671 61.5227 45.5766 61.8347 45.6663 62.0009C45.7572 62.1682 46.0745 62.2597 46.5602 62.2597C47.6091 62.2597 48.408 61.8151 49.0019 60.9004L53.1358 54.2652C53.3951 53.8652 53.4877 53.556 53.3974 53.3905C53.3042 53.2185 52.9754 53.1236 52.4729 53.1236Z" fill="white"/>
<path d="M60.8167 51.1802C62.389 51.1802 63.3928 51.5917 63.8281 52.4138C64.2635 53.2358 64.0579 54.3363 63.2116 55.7152L60.3091 60.3949C59.1721 62.2578 57.5153 63.261 55.3387 63.4063C58.2169 63.624 58.797 65.1239 57.08 67.9049L52.0008 76.0313C50.7429 78.0395 48.9657 79.0427 46.6681 79.0427H24.1018C22.9411 79.0427 22.6748 78.535 23.3041 77.5191L38.7587 52.7038C39.3631 51.6878 40.2586 51.1802 41.4436 51.1802H60.8167ZM46.5593 62.4627C47.6713 62.4627 48.542 61.9793 49.1712 61.0114L53.3074 54.3727C53.9355 53.4054 53.6576 52.9215 52.4726 52.9215C51.3843 52.9215 50.5252 53.4054 49.8971 54.3727L45.761 61.0114C45.1317 61.9793 45.398 62.4627 46.5593 62.4627ZM37.3439 77.3014C38.4565 77.3014 39.3272 76.8175 39.9564 75.8501L46.2687 65.6553C46.9216 64.6886 46.6554 64.2046 45.4709 64.2046C44.3826 64.2046 43.5114 64.6886 42.8584 65.6553L36.5462 75.8501C35.9169 76.8175 36.1832 77.3014 37.3439 77.3014ZM60.8167 50.7749H41.4436C40.1122 50.7749 39.0922 51.3532 38.4125 52.4931L22.9602 77.3049C22.5533 77.9619 22.463 78.4737 22.6835 78.8696C22.9 79.2586 23.3643 79.4479 24.1018 79.4479H46.6681C49.1041 79.4479 51.0132 78.3706 52.3441 76.2467L57.4233 68.1196C58.4253 66.4964 58.6899 65.2721 58.2326 64.3742C58.0334 63.9829 57.7 63.6726 57.2357 63.4445C58.6534 62.9565 59.799 62.0071 60.6541 60.6062L63.5555 55.9282C64.4794 54.4231 64.6907 53.1773 64.1859 52.2233C63.6765 51.2618 62.543 50.7744 60.8162 50.7744L60.8167 50.7749ZM50.2393 54.5904C50.7927 53.74 51.5232 53.3267 52.4726 53.3267C53.1244 53.3267 53.2182 53.4859 53.2194 53.4876C53.2477 53.5397 53.2315 53.7458 52.9676 54.1522C52.9664 54.1545 52.9647 54.1562 52.9635 54.1585L48.8297 60.7938C48.2757 61.6442 47.5329 62.0575 46.5598 62.0575C45.9346 62.0575 45.8449 61.9058 45.8443 61.9047C45.8437 61.9029 45.7662 61.7478 46.1014 61.2326C46.1025 61.2303 46.1042 61.228 46.1054 61.2262L50.2393 54.591V54.5904ZM43.1988 65.8759C43.7765 65.0243 44.5198 64.6098 45.4709 64.6098C46.0053 64.6098 46.1812 64.7204 46.2038 64.7632C46.2258 64.8043 46.2194 65.0041 45.9329 65.4284C45.93 65.433 45.9271 65.4371 45.9242 65.4417L39.6143 75.6325C39.0597 76.4823 38.317 76.8956 37.3439 76.8956C36.7193 76.8956 36.6296 76.7439 36.629 76.7422C36.6284 76.7405 36.5508 76.5853 36.886 76.0701C36.8877 76.0678 36.8895 76.0649 36.8906 76.0626L43.1988 65.8747V65.8759Z" fill="#111111"/>
<path d="M60.6716 79.2449C58.3514 79.2449 56.8753 78.6839 56.2842 77.5777C55.6932 76.4743 56.0249 74.9049 57.2706 72.913L69.9321 52.5963C70.5707 51.523 71.5322 50.9771 72.789 50.9771H81.496C82.1375 50.9771 82.5363 51.1305 82.7158 51.4454C82.9004 51.7708 82.8194 52.2159 82.468 52.807L68.0629 75.9568C67.7995 76.3614 67.7057 76.6735 67.7955 76.839C67.8863 77.0063 68.2036 77.0984 68.6893 77.0984C69.7376 77.0984 70.5365 76.6538 71.1316 75.7391L85.5326 52.5963C86.1706 51.523 87.1321 50.9771 88.3889 50.9771H97.096C97.738 50.9771 98.1368 51.1305 98.3163 51.4454C98.5009 51.7708 98.4199 52.2159 98.0685 52.807L84.4611 74.6143C82.5687 77.6865 79.8132 79.2449 76.2716 79.2449H60.6716Z" fill="white"/>
<path d="M97.0957 51.1797C98.2326 51.1797 98.4983 51.6874 97.894 52.7033L84.2889 74.5072C82.4266 77.5308 79.7544 79.0423 76.2713 79.0423H60.6713C58.4218 79.0423 57.0185 78.5224 56.4628 77.4822C55.9059 76.4425 56.2324 74.9553 57.4423 73.0201L70.1038 52.7033C70.7081 51.6874 71.6031 51.1797 72.7887 51.1797H81.4957C82.6321 51.1797 82.8978 51.6874 82.2935 52.7033L67.8907 75.8497C67.2614 76.817 67.5277 77.301 68.689 77.301C69.8502 77.301 70.6717 76.817 71.3009 75.8497L85.7043 52.7033C86.3081 51.6874 87.2036 51.1797 88.3886 51.1797H97.0957ZM97.0957 50.7745H88.3886C87.0566 50.7745 86.0371 51.3528 85.3581 52.4926L70.9594 75.632C70.4048 76.4824 69.6627 76.8957 68.689 76.8957C68.0638 76.8957 67.974 76.7441 67.9735 76.7423C67.9729 76.7406 67.8953 76.5855 68.2305 76.0702C68.2322 76.0679 68.2334 76.0656 68.2351 76.0633L82.6379 52.917C82.6379 52.917 82.6408 52.9123 82.6419 52.91C83.0339 52.2507 83.1161 51.7389 82.8914 51.3447C82.6732 50.9603 82.2165 50.7739 81.4957 50.7739H72.7887C71.4572 50.7739 70.4372 51.3516 69.7576 52.4921L57.0984 72.8053C56.4721 73.8074 56.0668 74.7139 55.8943 75.4995C55.7108 76.3365 55.7814 77.0677 56.1056 77.6726C56.4298 78.2799 56.9971 78.7372 57.7914 79.0313C58.5346 79.3068 59.5037 79.4463 60.6719 79.4463H76.2718C79.8887 79.4463 82.7022 77.8555 84.6345 74.7185L98.2384 52.9164C98.2384 52.9164 98.2413 52.9117 98.243 52.9089C98.6349 52.2495 98.7166 51.7378 98.4925 51.3435C98.2743 50.9592 97.8176 50.7728 97.0963 50.7728L97.0957 50.7745Z" fill="#111111"/>
<path d="M91.9438 79.2449C89.7683 79.2449 88.3529 78.6533 87.7376 77.4862C87.1239 76.3232 87.3949 74.7845 88.5422 72.9141L90.3941 70.0087C91.0581 68.936 92.019 68.3913 93.2498 68.3913H101.957C102.598 68.3913 102.998 68.5447 103.177 68.8596C103.361 69.1849 103.281 69.6301 102.929 70.2211L99.3715 75.9568C99.1081 76.362 99.0138 76.674 99.1041 76.8396C99.195 77.0069 99.5122 77.0989 99.9979 77.0989C101.047 77.0989 101.846 76.6543 102.44 75.7397L107.88 66.9637C108.141 66.5249 108.225 66.195 108.121 66.0132C108.024 65.8407 107.723 65.7498 107.254 65.7498H95.1728C94.5308 65.7498 94.132 65.5964 93.9525 65.2809C93.7679 64.9556 93.8489 64.5104 94.2009 63.9193L100.298 54.0846C100.869 53.141 101.669 52.3786 102.675 51.8194C103.681 51.2608 104.745 50.9777 105.839 50.9777H123.181C125.356 50.9777 126.776 51.5687 127.405 52.7352C128.032 53.9005 127.742 55.4403 126.545 57.3125L124.769 60.2116C124.103 61.2871 123.142 61.8319 121.912 61.8319H113.205C112.547 61.8319 112.141 61.6767 111.963 61.3578C111.781 61.0313 111.87 60.5873 112.234 59.9991L115.79 54.2669C116.053 53.8623 116.147 53.5497 116.057 53.3841C115.967 53.2168 115.649 53.1248 115.164 53.1248C114.115 53.1248 113.316 53.5694 112.722 54.484L107.79 62.4258C107.529 62.8646 107.445 63.1946 107.548 63.3763C107.646 63.5489 107.947 63.6397 108.417 63.6397H120.534C121.175 63.6397 121.575 63.7931 121.754 64.1081C121.938 64.4334 121.857 64.8786 121.506 65.4696L114.865 76.1391C114.269 77.0833 113.463 77.8445 112.471 78.4038C111.477 78.963 110.418 79.246 109.324 79.246H91.9461L91.9438 79.2449Z" fill="white"/>
<path d="M123.181 51.1791C125.285 51.1791 126.633 51.7297 127.226 52.8301C127.818 53.9312 127.535 55.3877 126.373 57.2019L124.596 60.1045C123.966 61.1204 123.072 61.6281 121.911 61.6281H113.204C112.043 61.6281 111.776 61.1204 112.405 60.1045L115.961 54.3723C116.59 53.405 116.324 52.921 115.163 52.921C114.001 52.921 113.179 53.405 112.551 54.3723L107.617 62.3176C107.012 63.3335 107.278 63.8412 108.415 63.8412H120.532C121.669 63.8412 121.935 64.3489 121.331 65.3648L114.691 76.0309C114.111 76.9502 113.337 77.6813 112.37 78.226C111.402 78.7702 110.386 79.0423 109.322 79.0423H91.9446C89.8403 79.0423 88.4978 78.4923 87.9172 77.3913C87.3366 76.2908 87.6029 74.8337 88.7155 73.0195L90.5656 70.1169C91.1943 69.101 92.0893 68.5933 93.2505 68.5933H101.958C103.094 68.5933 103.36 69.101 102.756 70.1169L99.2004 75.8491C98.5711 76.817 98.8374 77.3004 99.9987 77.3004C101.16 77.3004 101.981 76.817 102.611 75.8491L108.053 67.0697C108.657 66.0537 108.391 65.546 107.254 65.546H95.1736C94.0367 65.546 93.7704 65.0383 94.3753 64.0224L100.47 54.1905C101.027 53.2718 101.795 52.5401 102.774 51.9954C103.754 51.4512 104.776 51.1791 105.84 51.1791H123.182M123.182 50.7739H105.84C104.711 50.7739 103.614 51.0657 102.578 51.6411C101.541 52.2171 100.716 53.0032 100.125 53.9786L94.0315 63.8088C94.0315 63.8088 94.0291 63.8128 94.028 63.8151C93.6355 64.4739 93.5539 64.9862 93.7779 65.3805C93.9962 65.7649 94.4529 65.9518 95.1742 65.9518H107.255C107.729 65.9518 107.913 66.0531 107.947 66.1128C107.984 66.1782 107.975 66.4086 107.707 66.8601L102.27 75.6326C101.716 76.4824 100.973 76.8957 99.9998 76.8957C99.3746 76.8957 99.2849 76.7441 99.2843 76.7429C99.2837 76.7412 99.2062 76.586 99.5413 76.0708C99.5431 76.0685 99.5442 76.0662 99.546 76.0633L103.102 70.3311C103.102 70.3311 103.104 70.3271 103.106 70.3248C103.497 69.6654 103.579 69.1537 103.355 68.7594C103.137 68.3751 102.68 68.1887 101.959 68.1887H93.2517C91.9469 68.1887 90.9286 68.7652 90.2235 69.9022L88.3745 72.8024C88.3745 72.8024 88.3722 72.8065 88.3711 72.8082C87.791 73.7535 87.4252 74.6259 87.2839 75.4011C87.1346 76.2179 87.2278 76.9513 87.5601 77.5811C88.213 78.82 89.6886 79.4481 91.9457 79.4481H109.323C110.453 79.4481 111.545 79.1557 112.569 78.5797C113.592 78.0043 114.422 77.2193 115.035 76.248L121.676 65.5796C121.676 65.5796 121.679 65.575 121.68 65.5727C122.072 64.9133 122.153 64.4016 121.929 64.0073C121.711 63.623 121.254 63.4366 120.534 63.4366H108.416C107.942 63.4366 107.758 63.3352 107.725 63.2756C107.687 63.2108 107.697 62.9798 107.965 62.5289L112.895 54.5905C113.449 53.7407 114.191 53.3274 115.164 53.3274C115.789 53.3274 115.879 53.4791 115.879 53.4808C115.88 53.4825 115.958 53.6377 115.622 54.1529C115.621 54.1552 115.619 54.1575 115.618 54.1604L112.062 59.8926C111.656 60.549 111.565 61.0602 111.786 61.4567C112.003 61.8458 112.467 62.0351 113.205 62.0351H121.912C123.217 62.0351 124.236 61.4579 124.941 60.3192L126.718 57.4184C127.322 56.4737 127.705 55.6024 127.856 54.8279C128.016 54.0087 127.924 53.2724 127.584 52.6397C126.918 51.4026 125.436 50.7756 123.182 50.7756V50.7739Z" fill="#111111"/>
<path d="M133.628 79.2449C132.971 79.2449 132.564 79.0897 132.387 78.7707C132.205 78.4442 132.293 78.0002 132.658 77.4121L137.339 69.9734C137.593 69.5554 137.677 69.2405 137.578 69.0651C137.48 68.8897 137.167 68.7965 136.676 68.7965C135.63 68.7965 134.843 69.2509 134.273 70.1864L129.591 77.6263C128.926 78.6995 127.965 79.2449 126.736 79.2449H118.028C117.37 79.2449 116.964 79.0897 116.787 78.7707C116.605 78.4442 116.694 78.0002 117.058 77.4121L131.679 54.1193C132.276 53.1745 133.081 52.4133 134.074 51.8552C135.067 51.2966 136.126 51.013 137.221 51.013H156.304C157.948 51.013 159.027 51.4633 159.511 52.3525C159.993 53.24 159.79 54.4076 158.906 55.8224L145.192 77.6269C144.527 78.7001 143.566 79.2454 142.335 79.2454H133.628V79.2449Z" fill="white"/>
<path d="M156.303 51.2156C157.875 51.2156 158.884 51.6272 159.332 52.4492C159.779 53.2718 159.58 54.3601 158.733 55.7147L145.02 77.5186C144.391 78.5345 143.496 79.0422 142.335 79.0422H133.628C132.467 79.0422 132.201 78.5345 132.83 77.5186L137.51 70.081C138.114 69.09 137.837 68.5938 136.675 68.5938C135.514 68.5938 134.704 69.09 134.1 70.081L129.42 77.5186C128.79 78.5345 127.896 79.0422 126.735 79.0422H118.028C116.867 79.0422 116.601 78.5345 117.23 77.5186L131.85 54.227C132.431 53.3083 133.205 52.576 134.172 52.0318C135.14 51.4877 136.155 51.2156 137.22 51.2156H156.303ZM156.303 50.8103H137.22C136.09 50.8103 134.998 51.1027 133.974 51.6787C132.952 52.2535 132.122 53.0379 131.508 54.0105L116.887 77.3033C116.479 77.9614 116.389 78.4732 116.609 78.8691C116.826 79.2582 117.29 79.4475 118.028 79.4475H126.735C128.04 79.4475 129.059 78.8703 129.764 77.7322L134.443 70.2969C134.443 70.2969 134.444 70.2935 134.445 70.2923C134.976 69.4222 135.705 68.9996 136.675 68.9996C137.175 68.9996 137.367 69.1033 137.401 69.1646C137.435 69.226 137.424 69.4425 137.165 69.868L132.486 77.3033C132.078 77.962 131.988 78.4732 132.209 78.8697C132.425 79.2587 132.889 79.448 133.627 79.448H142.335C143.639 79.448 144.659 78.8709 145.364 77.7328L159.075 55.9312C160.002 54.4487 160.207 53.2127 159.687 52.2564C159.165 51.2972 158.026 50.8115 156.301 50.8115L156.303 50.8103Z" fill="#111111"/>
<path d="M149.448 79.2449C148.791 79.2449 148.384 79.0897 148.207 78.7708C148.025 78.4443 148.114 77.9997 148.478 77.4121L163.933 52.5963C164.571 51.523 165.533 50.9771 166.79 50.9771H175.497C176.138 50.9771 176.538 51.1305 176.716 51.4454C176.901 51.7708 176.82 52.2159 176.469 52.807L161.012 77.6257C160.347 78.7001 159.385 79.2449 158.155 79.2449H149.448H149.448Z" fill="white"/>
<path d="M175.497 51.1791C176.633 51.1791 176.9 51.6868 176.295 52.7028L160.84 77.518C160.211 78.534 159.316 79.0417 158.155 79.0417H149.448C148.287 79.0417 148.021 78.534 148.65 77.518L164.105 52.7028C164.709 51.6868 165.604 51.1791 166.79 51.1791H175.497ZM175.497 50.7739H166.79C165.458 50.7739 164.439 51.3522 163.759 52.492L148.306 77.3039C147.899 77.9609 147.809 78.4726 148.029 78.8686C148.246 79.2576 148.71 79.4469 149.448 79.4469H158.155C159.46 79.4469 160.479 78.8698 161.184 77.7311L176.639 52.917C176.639 52.917 176.642 52.9123 176.643 52.91C177.035 52.2507 177.117 51.7389 176.893 51.3447C176.674 50.9603 176.218 50.7739 175.496 50.7739H175.497Z" fill="#111111"/>
<path d="M147.766 59.7322C143.038 60.3979 141.629 61.2663 138.598 65.5153C138.455 65.7162 138.143 65.5477 138.233 65.3179C139.798 61.3103 139.35 60.4176 135.61 59.7664C135.376 59.7253 135.382 59.3866 135.618 59.353C140.345 58.6873 141.754 57.819 144.785 53.5699C144.928 53.369 145.24 53.5375 145.151 53.7673C143.585 57.775 144.033 58.6676 147.774 59.3189C148.008 59.36 148.002 59.6986 147.766 59.7322Z" fill="#111111"/>
<path d="M188.646 52.4625C188.469 52.4625 188.297 52.3716 188.197 52.2257C188.1 52.0839 188.082 51.9067 188.147 51.74C189.494 48.2904 189.764 46.596 189.141 45.4897C188.574 44.4836 187.194 43.8897 184.218 43.3716C183.957 43.3259 183.777 43.1088 183.781 42.8436C183.786 42.5774 183.973 42.3655 184.236 42.3284C191.584 41.294 193.697 39.9602 198.371 33.4089C198.473 33.2665 198.627 33.1849 198.795 33.1849C198.972 33.1849 199.144 33.2757 199.243 33.4216C199.34 33.5635 199.359 33.7406 199.293 33.9073C197.946 37.3569 197.677 39.0513 198.3 40.1576C198.867 41.1637 200.247 41.7576 203.223 42.2757C203.484 42.3215 203.663 42.5386 203.659 42.8037C203.655 43.07 203.468 43.2819 203.204 43.3195C195.857 44.354 193.743 45.6877 189.07 52.239C188.968 52.3814 188.814 52.4631 188.646 52.4631V52.4625Z" fill="white"/>
<path d="M198.796 33.3869C199.003 33.3869 199.202 33.5872 199.106 33.8332C196.669 40.0719 197.367 41.4613 203.189 42.4749C203.555 42.5386 203.544 43.0665 203.177 43.118C195.818 44.1543 193.624 45.5065 188.906 52.1204C188.836 52.2182 188.741 52.2593 188.647 52.2593C188.441 52.2593 188.241 52.059 188.337 51.813C190.774 45.5743 190.076 44.1849 184.254 43.1713C183.889 43.1076 183.899 42.5797 184.266 42.5281C191.626 41.4919 193.819 40.1396 198.538 33.5258C198.607 33.428 198.703 33.3869 198.796 33.3869ZM198.796 32.9817C198.562 32.9817 198.348 33.0946 198.208 33.2908C193.576 39.7819 191.483 41.1035 184.209 42.1276C183.845 42.1791 183.586 42.472 183.58 42.8402C183.574 43.2078 183.823 43.5082 184.185 43.5713C187.092 44.0778 188.432 44.6434 188.966 45.5893C189.547 46.6215 189.265 48.3252 187.96 51.6665C187.87 51.8963 187.896 52.1418 188.031 52.3398C188.168 52.5406 188.404 52.6651 188.647 52.6651C188.89 52.6651 189.096 52.5522 189.236 52.356C193.867 45.8649 195.96 44.5433 203.234 43.5192C203.599 43.4677 203.858 43.1748 203.863 42.8066C203.869 42.439 203.621 42.1386 203.259 42.0755C200.351 41.5689 199.011 41.0034 198.478 40.0574C197.897 39.0253 198.179 37.3216 199.483 33.9803C199.573 33.7504 199.547 33.505 199.412 33.307C199.275 33.1061 199.039 32.9817 198.796 32.9817Z" fill="#111111"/>
<path d="M6.94555 87.798C6.72383 87.798 6.50849 87.6845 6.38345 87.501C6.26304 87.3244 6.24046 87.1039 6.32208 86.8955C8.22258 82.0299 8.59886 79.6345 7.71026 78.0581C6.90155 76.6225 4.94953 75.7779 0.74795 75.0462C0.422034 74.9894 0.198004 74.7185 0.203214 74.3874C0.208424 74.0551 0.442296 73.79 0.771105 73.7437C11.1072 72.2883 14.0804 70.4127 20.6542 61.198C20.7833 61.0174 20.9709 60.9178 21.1822 60.9178C21.3935 60.9178 21.6193 61.0312 21.7443 61.2148C21.8647 61.3913 21.8873 61.6119 21.8057 61.8203C19.9052 66.6859 19.5289 69.0813 20.4169 70.6576C21.2256 72.0933 23.1776 72.9379 27.3792 73.6696C27.7051 73.7263 27.9292 73.9972 27.9239 74.3284C27.9187 74.6612 27.6849 74.9258 27.3561 74.9721C17.02 76.4274 14.0468 78.303 7.47292 87.5178C7.34382 87.6984 7.15626 87.798 6.94497 87.798H6.94555Z" fill="white"/>
<path d="M21.1823 61.121C21.4717 61.121 21.7513 61.4023 21.617 61.7468C18.1993 70.4984 19.1776 72.447 27.3451 73.8693C27.8575 73.9584 27.8436 74.6989 27.3284 74.7718C17.005 76.2254 13.9282 78.1218 7.30861 87.4003C7.21078 87.5375 7.07705 87.5954 6.94564 87.5954C6.6562 87.5954 6.3766 87.314 6.5109 86.9696C9.92867 78.2179 8.95034 76.2694 0.78278 74.847C0.270463 74.7579 0.284356 74.0175 0.799568 73.9446C11.1229 72.491 14.1997 70.5945 20.8193 61.3161C20.9172 61.1789 21.0509 61.121 21.1823 61.121ZM21.1823 60.7158C20.9073 60.7158 20.6549 60.8489 20.4894 61.081C13.9583 70.235 11.006 72.0985 0.742837 73.5434C0.312722 73.6042 0.00764653 73.9498 0.000120955 74.3839C-0.00682573 74.8169 0.286093 75.1718 0.712735 75.2459C4.84659 75.966 6.75866 76.7823 7.53322 78.1577C7.97317 78.9392 8.06927 79.9534 7.83482 81.3503C7.60847 82.6991 7.08342 84.3866 6.1323 86.822C6.02637 87.0935 6.05647 87.3829 6.21509 87.615C6.37717 87.8524 6.65678 88 6.94449 88C7.23219 88 7.47185 87.8669 7.63742 87.6347C14.1685 78.4807 17.1208 76.6173 27.3839 75.1724C27.8141 75.1116 28.1191 74.766 28.1267 74.3313C28.1336 73.8982 27.8407 73.5434 27.414 73.4693C23.2802 72.7492 21.3681 71.9329 20.5936 70.5575C20.1536 69.776 20.0575 68.7618 20.292 67.3649C20.5183 66.0161 21.0434 64.3286 21.9945 61.8932C22.1004 61.6217 22.0703 61.3323 21.9117 61.1001C21.7496 60.8628 21.47 60.7152 21.1823 60.7152V60.7158Z" fill="#111111"/>
<defs>
<linearGradient id="paint0_linear_444_21190" x1="14.0647" y1="65.3289" x2="195.075" y2="65.3289" gradientUnits="userSpaceOnUse">
<stop stop-color="#E95BD3"/>
<stop offset="0.27" stop-color="#747CFF"/>
<stop offset="0.49" stop-color="#74FFFC"/>
<stop offset="0.77" stop-color="#BDFA79"/>
<stop offset="1" stop-color="#F967C3"/>
</linearGradient>
</defs>
</svg>
